<mxfile host="65bd71144e">
    <diagram id="m_Ahtx08vlcnaVKVDEbz" name="Page-1">
        <mxGraphModel dx="3996" dy="2397" grid="1" gridSize="10" guides="1" tooltips="1" connect="1" arrows="1" fold="1" page="1" pageScale="1" pageWidth="850" pageHeight="1100" math="0" shadow="0">
            <root>
                <mxCell id="0"/>
                <mxCell id="1" parent="0"/>
                <mxCell id="42" style="edgeStyle=none;html=1;" parent="1" source="11" target="40" edge="1">
                    <mxGeometry relative="1" as="geometry"/>
                </mxCell>
                <mxCell id="11" value="" style="sketch=0;aspect=fixed;html=1;points=[];align=center;image;fontSize=12;image=img/lib/mscae/Docker.svg;" parent="1" vertex="1">
                    <mxGeometry x="-760" y="-370" width="158.54" height="130" as="geometry"/>
                </mxCell>
                <mxCell id="31" value="" style="dashed=0;outlineConnect=0;html=1;align=center;labelPosition=center;verticalLabelPosition=bottom;verticalAlign=top;shape=mxgraph.webicons.github;gradientColor=#DFDEDE" parent="1" vertex="1">
                    <mxGeometry x="323" y="290" width="102.4" height="102.4" as="geometry"/>
                </mxCell>
                <mxCell id="32" value="" style="shape=image;verticalLabelPosition=bottom;labelBackgroundColor=default;verticalAlign=top;aspect=fixed;imageAspect=0;image=data:image/png,iVBORw0KGgoAAAANSUhEUgAAAgAAAAIACAMAAADDpiTIAAADAFBMVEVMaXEAt1roOiEArUX9bU8AsOkAfe0Aypr+LhbkOCAAofAC0FUArUUAx9UAx9QAtEUAfvEAe+7oOyMAyNQAe+8Af/bkOCDoPCMArUQBytjtOBzlOCAAe+4AuUHpPyYAwOQAgPEAe+8CzFPkOCAAe+8Ax9QAtEcAfO8Ar0UAx9UAeP3kNyDkOCAAx9QAx9QAfPAArkQGofkArUUBy9nmOiICzNkL2ecI1d8BytlMaXHlOCAAe+8Ae+4AydUAx9UAe+/qQinlOB/7aEsArUQArUUAfvAAx9XmPCMAe+8ArUQJrf0ArUXpQCcArUXbPioAe+4Ar0bkOCABytgAsk0AyNUArUQCxNwAyNUArkQBu0wAx9UAskcArUUAeu8BxNwAe+8CiPLxSSsArUUAt0kAydYNr/vrPiUArUUElfYBzNgCzVQAycLlOCAM2OX2X0MAffAHpfsAx9UMq/oAx9QDlfgArUXlOCAGoPkJ0ucAskgAu0rnMxsAwEwAr0X3YUQK2ebSSjoAsEQByFEK2OYK0t8CkfUAtUgO3esL2ub1Wz8Aj/UCylL1XkH5ZUn5ZUgJvvAGovruYkf1X0IGovr4Y0b5ZEgCy1IM2+dGi70K1+dMaXEAfO/lOCAAx9UArUb/dFYQ4e8Mt/8E11hKSEgC1VcH1eIKsv4BzNkP4e0M3OjyVTrpQikO3+oAtkz+cVMCifIBwU4Cx1AIp/sDwHj5ZkkC0l4Ct2XuTDLlOyMSwcsBm7y/S0IM184GmfcAht7tel8GxI2QmY4K0LcKtv8Af+8Ek/YCtY98dIwAvEuuW1kIyaCYZG4+s7YCy2vCiXQCvIZClsZfqaarkYAAsUY2Z1QZwMP5dllFU1QhqekAjdJrpJ8xoNhZibAqscwAr0YBp6kCg/EVr/KNa3oAkcwEj/VRrax4mZclp+Ueo6sCrZ0afsDUhGs2VHAyeX4WnUwCrpoUxrFve5jffmaDVkxmREAKza8ycI1wRD4CsZZsfJ0ockYoXpGFQjgCrZ8Cq6FsUEpl8oCqAAAAm3RSTlMAFSzw/gz+AgT0BP7b9ugnJPZW/dYW20j6QhDF4ws6FTZN/eeU3D/vTcQKif2i0Wtz/v4pbln++xsAqsW5c65dYaH2rR9AjZR6Z/7DeLj+r4K/N/2BziNiM6CYkY3+Z4aYGFn7TfshnX1R7Da12vul0u/yuEzm0Ox8nl4bcl20oPk3xI/xYL/0u30o14rj3K6kmZy5ztXfwYtmACRNwT0AAAAJcEhZcwAACxMAAAsTAQCanBgAACAASURBVHja7X0JtBzVeeYToCr0xCY12kCIRYAEKpB4CKGSwaCwCLGDwGCgICasNmbxgnOCGYMzHDzYmUPiSTI+Vd3vdbvUapBYRUOB2BuzGss29osBj1gsTDzOcuzEiZ2Zk5lT+//fpbqqu5Zbrb6S9fr1637vmf+7//3+7bsj6nDt0Gtk+J9gCAB1p9WzDWPawoWzb7113/OCdcMNq1avXrNmyZIzly8/8cSZM+csWLDTbfsM/5MNxJp6zEWfCgCw0zTFsBTFUCzFIJdiL/uj4X9t2sLZ+553wyobHEuWLFl+4sw5C3a6ZoiLcq3jq9Vq9Yuf8gBwq6JYhmUolm1oi/zrwMD9133KfbVh40IJETNt9r43rF5y5okzh3AQf32y6qw9VjoAWOBZ2V6WYSnhX+85xXva/4L/pPOQeLELCWvawtm3nrdqzZLlM+fsdNvwP7ho9q+4AKhc4gDgTCXc+OgMgD7ACI4A99UG+ALpLmxYQDgYC2+9YfWZJ87ZaegZRFjyEVV/HeIAYHm48Q3sAPBz4UcXHdAhuK8ywOfwGzoMwz0nzlu9ZPmcBZ8ZmqE4+19SDZcDgGvAlocb2rV08Bzx0Qg/9ze/FToI+3PFMixIJ70vO9Rh2ux9Vy9ZPnPBbbsOLZLzgvavuCRwjb/lFbCh/W2swFOf8dFyXQPc7t5jx+iIUfh+xOcUdoQx+4Y1y+fsNMRBIfbf3csD3GAE+1UhznQLnvqcj561LcAULEgVfIeCHA1mFtbC81afOXPBkCRkvU6twnWLnwm8IdyvMBAAzxlRH10/oQCiYACqEBwBmFsAZhGkHIyF+646c+ZOQzvlY/9KAAB1VbipiSgA0X/2x5AsKOBzg3QBBuIW3tNEtOF6jmm3rjpz5jXDYyH1dUEVrz0CAOy6ymKkART0HPeju7uNIF1g+Hscvp1w/RbIO4BoI6QeijFt3zUnDslB6vk/6AH2AMWg1SCMD3cqeI7/UbFCl+99TlAEd5crgF4YcNcHDILIPCiK4qBgaLp07F+pEAg4BFYDV6MwPvTyMaKAYO+CNAF65HkTzBDArg8eosxDkEyadt6amdcMDdjnupw0PwEAdY1BRwGWES8KCJxFmCZQIAuwDJBntNA5EEYbROaBKEZMO2/JnGGU0Pu6qEqvI2XUD7CGEQUY3aIAsMMtyALgI+RNQBRghEwD+AIFEYnQP9gvnb1m5rC00NM6psICANEQsgT5/1hRQJDyA/vfAPsWsX/DQFFAsOuDnAPOPFjAPyhhmLFw9fIhK0i6rmfZnwKAvCRxFAA8OqgaEizA3cMoz2iBXR94G5x5oPyD/4vZ+YJVy4cBQt/2rxxGtYSdmTAKMAC5Dx0AxQL8nawYKAoA3MEywp4E8EbkH8L3OJ9Mu+HMoSeIt65i2r9apQEgL1diRgFgs1tBnM9jAUrYbgDzhEF0oITgAd+C8g+WAQMOey1cPXNIDLsteV6FA4Av0k2h8nIcBIT7lsH+A5dtBCSfwwJQgA/yhFZwyKOgw/f8hH8wAFXwXIJiGPsuWTA0ctSat3u1GhsAqnyiAuJwxQChPuOjQu5kFgsIA3wUBTC5JSQZpH8wwlwTTBfYjmDNnCEjSG7/6ieZbeEnKiAIYLcEGSTlB86CYgEowA+jAAN6GQYBACwkeJFC1Ck9x2CDYOHqmUMMsNb5fPtzAKDOhEEAsyVIITe7AVN9oFsQFAIU/xQn+gYM4G0QhyDQZuFcIkoXuHCdtmrm0N5J7F89gg0AeaZigGPZC/V5YQDcyQo+whWY00NVQEMxOIc8mY4kS4VEhgJwA5sRLFwz5ANofe6WanIAqPIcRUF0jF8MACV9heogBsVB1HYMdjI85BXoVgANCYsGFpV3hDll94fNXjIsGwTr6Ej7Vy/hjYbZCLDQzuYVAwxQ0ic4vAKLg7Dt2AKuAR3yyH1gB4GCB/SjwO/ngkgx9l0+jA3j2J8PAFWdo6BIIDIMCGk6ywGA/gBU/rMYlNLiRQFU8EC4H+ACnM+nrRqGBd3tXzk1Yjh0wTTDCiOByDAA7GCGA4AtQhYjKWgxOQQRBQSRhIJZhEI0IBphpnDhmh09T/ipPapd1gVyxHTwnGkG2tn8MIDm8DQLoMp/yaIA4DfovKMBuxNDd6QY5+3IkaG8sqv9qxdEjocvmGbgmUFuGEBxeJoFUOU/ThRgMKMA6Deo7gPYdwr8hvOKhUt22BmUGPavHi9H6gMsmIb/I3OqAQwOz2ABuPxnMFN9oFUYJyOpliI0ZaAQM0og76goxqoFQ/tzAdBFIGKnacgF8KoBDA5PswCD2ut0FABdjYFfDDiChfOO8G0Kyhr4nmLfHTA/tPKQSgwAXB7tAVR5p4XABTB7gYiaQRQLoCJ+FrOEo8eQggCOQAQNYDAFjTgqgA3ceuIORgb2P6QaZ13UTSJG3mkhPLLpXiBUM1C6swDkLRi1ALKHiMURGNwANSADvIVkYfbyXeUdyf6VWAA4Ru6qEWT7AIUs0+GSvxGZByRZAMziUVEAY56I5ghsbmAQQ4gKfpVlLFy+w3iB/Y+MZ//q9TFEoq5ZiPt9LLLkj2sG3VgAShgavB1OjhRaRKBhsWMK9A78KnvNPnHHsP/UI6sx11VxVMJuW4jiboMs+eOaQTQLsEhnwtzhuOqHWAaVeAw9Cmw4RAwgbEdQbp05tD9c82LJxF0zG57wdNeeYqGEYRQLQOE8Jwog54lwZwKReCSCByIEoGePlH0HPiicelglNgDOl2PpBN42G5zwVNce6uDqwgJQOM+qBTDmifDPYDEAAysVMBgAmDdQVn9mwO1fjb/OjykU+ZnZisUuAmAGYHTNBViEM6E6gqh5IsbPYHMDiwoBwlcB2SLDmDbIbHA0wf6vVo+OqxS6z60GsxhA2Ji//1GXb3QUgOeJWD/DoLgBkCxiMwCsTzB7UM8BefSL1STrU7GlYm0E0MUAyyD+iWQBdNsAPRZAzxMZ1M+wGMMEClQqYDAAxcJRwqrBHDBLaP/qytgAkPe5lSjtGUyPz3cACqNoQLX9WtQ8EWYACjs7gFgFiwHgJKL93ECeA6OfTGb/6tQEYtH77KtQxQCGC+ATAJjZ43YEUfNEmAFgvmBR80QKjwHgVgLH19w6cO0CclL7V0flBGrh++xLFAMshqWj0gBU4w8vCgj9jEL/DEth0lFYoGAwACB/FAwbK2sGrHEssf0ryeTidz3PIts0SB8QmQagGn/4UYARCg/SLoZ+F05NcBiAQuiZWYoyWGTwiGolIQBuSQYAedfziCiAJnn8NABZ32dHAYAFoK2ssOsCBtWKEMyqYQYQ5hYV2GOsLB8c/39JNfHaI+mFEbveYDBOcMZcDysCiBUFoHQDkwHA2J/nOWgGAFoJYI+xYtwwKMdAD/a3FWKSAUDe9QbWCd61JzBuFKDgQoFicZBEJASI+IGVAzCQnhnUNV64YIe1v60PkfjKmFXEqY4PYqW/KIAsFDBYBiMKUChZAYoBWFCvGDoAe6zwzAGw/6m92L96mNzDnUGrLH4UYPUbBaCQnsEAGFGAFc4dk/kJoowYZiOxLrqxqvQpgQuqvQGgp0ujVim8KMDoPwqwyDCA4WbIkUGkUmoQPoKaboQOwHdLt15T7m6h43uzf/WTck+3hq3mRAHksEBPUQAOAxipRiIKgDLntGfC041EsQAoYk2bsyPav/LJHq+NW8OMAqiZ4Z6jADwEHBkFIJlzfn7Cnx6ExQKkiKgsKa/9L08c/wejgXKP9wauYUQBzJnhHqKAqDwDGQUgiYAu77PgbIJCuCVLUVaX1f4XVXtd9pVBPV4cucSiowDGzHBvUQA/z0BMC2GJgC7vU8AQsUW4JUda4IZyUsGLKj0DwJ4M6/Xm0CWMKMBC4mA9RwH8PAM5RggUBcmfFOECoLA5IhC3ljEndEwf9q/0AQBbUJAVBXALgvGjAMZXWaUAfEEBOwogogvfBQQeg8hfzC5fk8D1fdjfmQzrFQCyvJwZBfBFAmJGAYyvskoB5AUFnCiA6F0zUOMwaA/wfr2FZasQX9WX/e3BoN4vj5aXG6xKIJcFxI0CrC7VRsAAkBRhlyggsLWC2wewGnLJ8sJXVfsDwDH93R5+osKoBHJZQNwoQOlSbQy8Df6h3aMABaqa4vaA4O/GhWVKCFy1e7W/dVWf18efqPAkfjOKAjADoNRKo6MHnwWQ15uhmWJr2pzSJAXn9Wt/ey6kLwDYCGBpe2QWBRAMgClKyE9Io44h4CwQL7CeKMn8mHx+3/avfK5fAKgzFabCX0ZRAIMBEBwjKgqwYMeQQt5d4H9ZUZ44sRQ+oH/7O13hfQJAnqPQCn9MFpBCFEAxAAbJ4EYBsC+YdEuAFyiKNe3+/1YG+9/Sv/2r+/cNgFBQkBwByiIKoBkASTIiogCiLxjfXQDmUAxLuVF8BHwuDfvbTcH9AsATFCTvCsgkCiAZgMEgGfwoQMESY+iSY3xTmWX90bcEt//RqdjfbgruHwDqnGmsuwLSjwJIBkA4GnA7KY8BIK+jEBdYAlVja+P4t3YA+1f3kFMBgCcmhllA+lEAyQDIYUR8O6nCnVoi9MYU4t509+X3C42AT+2Riv2dntA0ACC7goJovyvpRwFGZDcweTspsx5IXGGooPvLgKqxYTw2/pcDb3+nJzQNAKjyTtO6soC+owCaASjMBGCMKAB+oqB70wNnYT04/leCxv8r07K/fWdYOgCwEdCVBfQbBdAMwGImAJWIKADLCOHLBoi7DZ4YH/8rIRsEVu5RSQkA9n0hKQHAFRSMZgH9RQEKiwEozAQgr5OIkBgDwuOYeLjfw3psfPy/CGj/uAJwcTzAEekBwBUUjGIB/UYBTAZgMRKA7F5iSmIMvEnBmQHvN9o4LiICYgpAxlunpggAR1CQfWNQKlEAmwEYdAKQywAIiTGcCEDFTA9/9wuIgFTt73SEpQcAW1CQnZxPIwpgMwBCXJitKMKTGAvfxGQBhvXg+Pj4/xDL/kemaX+nIShFALiCgozkfP9RAI8BEOLChhLFAEiJsbAlmM0CFNsFCIWAqena32kIShMA6jWzcXcuGhPoLwpgMwAsLtyFAWCJMeIqEwYLUJRdbAT8tUD2r6QLgOvTBoAtKMhKzvcZBYRnCUsvIFpTjCsxBhMBCpMFWHYoOD4+/t9Fsf9h1ZTXvNQBEAgKUg13/UQBxCwApxVZ6cYAyIlieOsgkwUo1i4CISB9+1c/lz4AXDk51tU+PUcBlmJwGQBsReZpirHmiiw0x6CwWYBhuSxgfPwvBMj/jaZvf1skLnUAqPvcapHJ+b6iAII7cIv8XEUR1lyRQTgPHgtwAgEbAYXnBJMKAMYViUsfAK6oKH21T69RAMEdOEV+rqYYc64IdhRidVLEAiw3FyACAjKx/+5qJgBw5eToq316iwLwNzJ4RX6ephinq9gg5hi4LGDjpI+AfQbO/o5EVBYAUPfZF9fle48CFLKAx5Um5WiK8STGaGVyTi7gMQ8A439UIAKSC0DGrwZnAQB11/PQCd9HFEBk+XlF/tgMAN0pCJXJOSzAeMIHwPhffGbA7O8IxGQDANmWlLTw9E4vUQBq41MiJn6UeAyAuFPQ6sYC7G8aAGD8jwpCgHxEJRP7O/og2QDAERRk1d2SRgEEVeBl+KM8BCMKoDWF2CzAed2NhSPgkmpG65IMAeBISvYbBRBXB0XN/Ud4CDoKIDWFOCzAdRQbxwECChgflzOzv1sMzAoA6q6rUMqtlyggGOmlEoLU3D9XU4whMUY4AC4L8H6rBwECJq8ZnP3vFQMzA4CNAAP03fcQBVAJe+7cv6V0rQIECQCkEBLFArwXu2eAFw7ukjcCTs3O/s5weIYAcAUF+4gCDCJhHzH3b8RlAAa4RKwrC3BfBc+A8fEH85WQuCBD+1fnyRkDQF1tKcmjAHrKMHriB4QAsaIArCwQzQLsb20hAEw+uGBQ7O/WgjIFgLoa1d3iRQGsKcPoiR/cMtQ9CGAIm7NZgPvNbxwnfEBuw8PHVzIFwMrsAaCuCbuwYkcBjPmCyIkfC18R0L0UwBA2Z7EAn788MU4gIC8fcHm29q+O5gAAW1AQXOsdVymUwQKi1b9iMgCDd7MJiwUE7YK+9w8RkIsPuDxb8zvXhWQPAHWJgYS5u0YBRCch0bLHU/+KxwDQRQJWNxbgeyqvLQSuPISELsrY/u5kYPYAcAUFY0cBlOCwZaBLxHhRQDwGYPBvNrFY2QcXrTdSABjP/g7qYypZA+AwORcAuIKCiW4NMww2C1D47f6xGIBhRNxsgq5Hh6UImgTkgYDrM7e/OxiWgwewBQWT3RrGyQUY/Ln/WNvfopRB+SwAXo+obIQEIECAXHL7e6WAHADgycnFvzWMnQuImPiJuf2VsKxodWcBgAzAPEDwKEsxsatysH/lgvwAoJ6oKMmiAJoFRPB8JbYLMKJuOLbYvEOxjMfGWSs7MbF5lRwA4I6F5AQA9USltyhA6ZYHNJQELiBIAsZlAe4PDjoDiZWVlNS83at5rKvyBIAtKNhbFNAtD5jEBRiGFXGpCZsFuIIxeSLg/HzsXz0/VwDsOkdJEAXQp3PkhVQxXQCWB4rFAlwPsBGf/5NZIkDOy/5eJjgvAISCgjGjAOp0jtrcRjwCYHS54JTFApyfO85b3yrt/vczwbkBwBYUNHqIApTIPCC8CqBbCsDqesEpgwU4vwwfAKkj4Pxb8rL/HmreAPAEBanp/G5RQGQe0CL7hmIVAuKzAPfXfIyPgHTFxI7Ozf5eU3iuAFAXTKOn85l3B7NP56gcvxW7EKBE3G3IzAUoBqgI0zzgr8pp/8oXCwCAJyhIafaRdwdbzNPZipb+SFAIUBKxAIMbB3oI2DVF+1dyQ8AlBQDAExSkNPvoOz6p07nb3H8sFsBQGI6TCzBcAEzyEJCWkFBqApAJeoJzBoArKAjv8mbeHczapt1P+Hh1AO61ZlEVgSfGI1c6CFiZq/39RGDOAHAFBeE5z7o72OBKDBpdREC7dgMpUZebclkABsBkJgjI2f6Vq4oBgCcoCGT62VEAT2KQG+J3ZQEcheFYuYCNrH0PcdC/lNTKQ3I8/+11dEEAcAQFwf1dMaKAiKkg6sKy7upASmIWYLEBgFa/CEhXADDO2r8wALiCggpKzUVGARFTQYziQkQdgKEwHIsFKArX+Qfrr0tm/93V4gCg3rYwHL1hRwERQuNGlEpAZB2Amj6MXRGwuLYPn+5DSkqeekglZ/tXDikSAOpts5H4HzMK4EgMRlwFYHSpAzCmD+OygAfHu9DAvhCw/5F5279a/WKhAJBvm422fd9RQBcWwJ0+jNsd+OB4jNUrAtIWAE2UByoGAJ6gIJ2m7zEKCIl9RB2ANX0YlwXsErX7g2d6k5KaWsD+D/NARQHAFhNTmAr/PUQBSjcWwLtjIC4LUHbpFgf2joCphxVh/8pFRQPAERRUUooCLPhaTh2AM30YjwU8Nh5vJRcTy0AANN5ocOEAcEVFU4oC0PZlvoA3fRiLBfgAmEwbAfJoIfvfuzW2YADYgoJpRQFIpJxTB8DXjCRiAUZXDzDZm5xcNgKAcY6AUQEA4AoKphkF8FgAdiHJWIDlXSDEMTjlFBJJSRVm/z1UEQDgCApSefq+ogCDf18YLh3GZgFO4BiXAyRDgPzJakEHgKcRWDgA5F3PM1KKAqJYAOFCrOQsYJeoPU86h9hiYp+sFraOEAMAtpwcHaX3FAVYESwAjxXE6SAnWIAVMwz0BQSuibf/K4U5gDANUDQAfEHBPqMAJZoFoOajGA6AzAWw8wBcJEzGEhM7olKcA/AUwkQAQCAoiOd8kkYBxEAxywXEywOycwG7dPf+6Gu7dBcTu6Ra5DpfFgYArqAg4QISRwGk9GfEdWHd9z/NAh6Mx/8m48vJFWv/oBtABADYgoJUUi95FIDfEXFdWFQ3AIcFKFxD83lAtJTUJZVC7b+7LBQA1NWspF6PUYDCCwTidAOwWYBljSdfkQg4tdj9H0yFiAIAX1CQ3bQbLwpQurAAK15PIIsFdO8JZCOAKyBwQcH29+VhxAGALyjIbNqNqQIUxQIsZumwCwsIOchGYPDJ+FyAJyZ2fNH2r5wqHAA8QUE2TY8ZBfBZAPn2uJJS/vfaGD8KnOwuJ3d8pVI0Ai4SDwCuoCCbpieMAigWQLw9lgMA+UjFeiJZCBAtJnZ54eYPxCGEAoAtKMim6cmjAKNLQ1AcAhBeSs6XCOm+aDGxi6oCrP1l8QBgCwpyhXyN+HlABguwGLWB7mkAoHB6P3e7d2UEpJjYMQLsf18lVjAPoMrLFVC8SxYFsPYwpyEoVhSgwAyirxU62YsPwGJiQtjfFwkVDQCOoCCo3yeKAlh7mNMQFIcFBNcLG1Q1eDLW+c8WErpeCPuDWqBgALARoNBSYTE7giJYgMJtIIq4WSKsSzwWj/VNsrEQIuAqMewPaoGiAcDxAZRgcLzpYD4LsJT4k0GkhGGSUsB4Fzm5q6qCAOB6cQFgCwrSt/fEmQ62+CzASDQZhCQMFVYpIPFypaTmVQSxfzAZLCIAdp2jsG7v6Tb5y5QVYTcEdZsMwuIlVnB34GSC+J/8yrfyEwCNkwiUBQaAIyjo5+K3vPHhK6/85o0tXSIBgy0rwm4IitcRoMAe5SdIm04mzgn9ZY4CgN1LQUIDwBYUdNJvW/7wcf3qurM++Pkrr53NjQSCoh2PBVjce8m6RQHOg3h5oGhQTP6lOPaHpSAhAeAICm75Ycc1fr1Zr9c7nU7n528YkUUAfi7AiLiXLDoKiEoETiY7Dj4SBwAXiA4AecG015qduo+Aer3j/Kl//ModHALAiAIQC+DfSxYdBbilgMd63PY4Z/h9YQBwvegAUOX/6Vjd+afp+QDns87Pz1a46iCKwWcBRuJaAIgudunq4OOcET8QBgBHy6ID4Dpv44deIPAGH7xyNk8dxIpgAUovtQD3kZKwH4jbL/aRiEGAkAC4LnT9Td//dwIIfPyGxcrq8S4DYzUExa4FOI82dsn0xfUJoriAI1WxASDfVQ8cgEcCm4AP1Dudd7cwWIARwQIS6QPgWoDFvjWsl7rQ5JNiAOAIwQFwV2D6OjwCOhADfzibLu7xdjJDIShRFNAlCpyMDwlBaODxYh8Bd3X8E78TbP5mHcYE7jlA0wBecy9VSUgYBTzWw/HPfP4dMSjAVUJ7gLvq5AoOAgyBH96hkFLB3OZegx4WThAF7NIH90ev+aUYtYCpAgNA/lKzDp1+B1CADkZF54PX8FWgBo8FWGxh0bgdQVbSU5/7yheEAMAeqsAACO1f94wfpgPxKWCfD69YCpgLVvhXgkb3D0Z1BAWloMg4YDIeCl4QwgF8UWAAAPv7OQDgADrIAdgv+eEdltIlDGA4/NhRQOStgT2sX4qXCBYLAKegg74DbN4kWYD3pZ+9pkQWA0CHbyJ9AFhCurHvHKC/3hHiCDhGVADIB0AT4xCgjllAxwdHp/lKZDHAom4tjrX/nTd4l51au8R28dSzhKqIGGHgp0QFgGv/Dub6Lg1oUiygEzgEpzoQEQVQLYUxBwODImK/1C/8wpMitATdIgsKgAOurgcZAA8ITb8gVEcswEeJ99p37+AXA4gOvwSDgW6+AN4W0ncY8FshWsIIDigMAO5poqS/jwVv3zf9oKATxgfBSz++I6IYYFANQXHlATwOcH8fTQB4/VgMDiimB7jn6noHHPgo+9cEjSFhfNAJwfDxlogoQKEuHo4rD0DeGZgs+0t/UYxq4PVCeoC9rvY3ulcICLd/0z/xQ+ffCUiB5yh+tiW6yt9DFOCXA60H0woCBakFrRQRAJ79w+jPZ/lN4AKw428G54T96IPXIsMAEAUoMaMAw8swbBzvtRuA+GxSjGrwHqqAAFh5dSc46JuBqZugEhCQ/g5IEHYAKWh+GKe2Fz8K8BMBHgec7DkGCNePxGsIFQQAs77QBOFeaPvQ3DAW9M6J8KPHG16JEwXElgcIEgE3xq8CRweCz4lRCTpePADM+kIn3OsdEP8DJNQ7iAaGR0MnxMGHCnd7B1GAElMrOHAA1i49ZP0m2ZUgIRAwTxYNALb9wwAA5P7qqB8oeK7pgyHkCM5nnc6HlhEdBfgpwQQOwEqnGWh8fPynYjQDjIrmAaZ+AST9w3Ogg1P/Tf9AaIK4sINahTr1zoe8IF8BOuRJHIBhPNE76SeTAEI4gCNVwQBw+Bc6AZnvoPYPb1/Te78DaGLHpwVu7PCGERUFJHMAzuviVYLiKMiK4QCqpwoGgFHP/4MzvY7yPM064oVN0jc0oXuoN19T2MP/hmGBFH9sB+B1A6XQC/LjJ6silgILB8BXAJ3vAOrXCU2LEgQoUGhCHLhfvfo1dkLQO9ENIxkDoCpBk73ygP8lyEjASqEAMPoVch+jQ78DyAD9CrJRyP3qB1siantGshDAMOi54Dh7f5IZAggRBByiCgWAr4QnexDPw53dwbTQ3+hNWDYgfcHPzmZGAUp4B1A8BqAYUVmAeLgI2wGeFMP+xEhA0QC4mWjvIbMAHZgGgL1BsD7UBL7Aec27Zxts6e+gSTiWA3BRk04hYPKdqiDiIJfL4gBg9GaU6+vQDgCc7z4cmpAedgh4uJ9f/UO2UgB1D0B0COA83NjzJMgkMRMmiDjM0QJ5gJvJxt863s4gz4deBCsAnTBhCIKDP1h0KECMEHZ1AG4l8P5UYoBJOwQUsSO8UADcXIf8DRzpYDs34U4PXQR4Cx4f8V3CK0y1UfIegGgG4LzssX6jP+cr7wjjAI4QBwA3ox1MRHfh6d/BR30HftYMOoeb9XCK2FlvdGEBMRiAM07QdSAgDhh+sKEqyrpIFgQA8rc7cPifqAPVw8YQMBRIVAk6dZQehC/t1DuvRbGAOAxAQe2A8TUA6PXck8LYn2wILg4A3/ZSfrDjrwmegEc6GeqDVzbBK+CDTv2D7FxvWQAAIABJREFUOxSLxwLiMQAbKDemEQJ8JIw6IJMCFAGA0Xvr6DSv08dAB6eHmijqx4d/E25/v07QefdsDgtQ4jOAbgKhk11uD3T++bE49mdSgCIAcC9O/IIDoFPH8T22dhNQPRQkQE/htxP/kM0CrMj5AcwANnLNGp8H/FYc86N7QooEwL2wwxuW9lFVkGD3TdAQ3oHpIEAUmkFbuf3xNwaLBcRoCfIZQPyhQC4jmBRIGqxarewvBADuDbc/OujBxvdPeDgQANN+TbJaCBMIQVHxNbJDKHQBcRiAAe6Lney1E+RHAtmf0QtQBAD+uEmXeonh3ybxoBnN+ptg+8OawQdbLIN5GagRjwFs7H8k9AWRDgByLLgYAFxH0HXoCxA0mmHar47iA7I7gIBS2E9qVwVYl4FasRhAvIuCopHwY6HsX51XPABGr4PZnQ5o8CM6AInG3ybrq5gdoDECb8js58zLQI0YDMBLA072EgMEtYJfPykSACq7y8UD4Lo63dvXrFM9gCgfgGeD0LgguygIvsGHjFxALAZg/9NvAuC3Twq1/+mJgPwBcB3a0ESDHzEFQPN9wvkTpYI6QFXw/T/YQl8GGocBKPAEmGSN+ndfz/1ULPtXLiocANdB181M/cGBkCZqDEKne7NOjgugjABIH75LjgzGYwD2P4/FPfLZQaBQASBzKDBvALgCoB0w0AdZfpMs/xNV4iZLNaZJDQh1gpd4H1+hrh6KxQB6uzBcUHV41wEcqRYMgLtIJ4/dNqrzh/btNAnZSMz1MT9oguSi7wNeI68eiscAjCf6KwN/tEE0B3BBsQCQ7+p00AZGp33ovJt0MhBXepnZwTrxHtA08PHZxNVDsRhA91aAyciQ4EfVimgAOLpYANxFHPxNkvA3kTsAGlF1oucHOYEmMSNMZRKa9Z9bimKh8aDuDMBvBZjssRH0RxXhAHCIXCQAbAFQ4uBHg95NsiugWecGeMQnTYI3NImmAXdkEI8Hdc8B4CzQZMJE8DsV4fY/YyQoTwB8qclQ+GrSwRvSCCB7PsHuB2wSQqZDRQF2bai5xVKseCFAKCHwWA+8L7D/hqp4J8C8IgHwpZCgM5UAOqQkXJ0aEmqidGEHDwd2oGNoUr7AaxSPnQOIrANMdn3inaqA6xa5QACc0iT6f1Htn9jXMAtQpzvFOkTuGFMBLB4S3Drxm5hJwJAB9CEP+05FRAAcoRYGAEcAFFC7Dt64Tar9n1H7R4SQFBGmKoYd/NJOvb4lSRXA9gC7JJv8Ed7+xB0BuQLgAETS63RnF9EVwN7SdVIYhGKJnUBCqkkNGLiHQGwGYGzsqgDOiQIn7Q7ASplOgMwBcMDVeLYfx+9NUAagJGLgkcAdIiZbyGB8GX7H3ySoAhgWoxIcLwZ47vtVMR3AJWpRAHAFQMmUPa38HfAAuKXJtAHa3NQ1Ah3mxLA7M3j1Fit+FcDoMhI4ya//iLn/I2KArAHgC4B2iHI9GPbrUJQOBfaMjADUFApSxnVicAj1FdTr7yZhAD3qwvxaVPtX9lALAsA9V6PYr045erqgFzACsl5QhxKhTXqamKoM1FGX0YdW5GAwuk7kxvi9gOBrP6g4I4AiIuCCggAABUCx7keTVPmBJzxQDUd1QET1qUiiidvLm0QX4dV3WEosBtBjIdAZABD0AODWATIGQCgASo964I8dnBAIju4OefTDdH+HyhATQ8U4bfBDI+K+MHSj0P1Ru53XGPKCOwEsJACOlAsBQCgASpXrmrBkDzsEcNzXJL/QJDsBmkQFsYkx0YHTJG9E1AINuhCYpAl8cvJHAtufVgfNBQChAGizTlT1iKxtEx8AcMc3aRZAHPsdIg/UIQOIoNz48dlcfRAkJr4xuf9/7vtVgRd7ICRrAMz6AjqfiWbfDszbwSbgJjkWAPr9Ozh2QCNFhKRos053GdkZYc5YEOwZY0sDTkZV/3/9pMj253WDZguAqV9g5nZQsx9Z46dFQPDRzhAT6eBqEml5UFXwkgHMjgB8p+CD8fM/k377f0VkAFxVAABGvxC256GkPzqf6eHPJmoabpLUn7xJFEoFEx1C1LeyeSAnHYgYwBNJk4DviG3+6h5y/gBwBAA7KPFXh4X+Zr1++umPwtXs4EphkzUyTrSHNGHGt4loY5h46sAZ5DcMqxsDiOwEmGQd/xvEtj+/FSRDAHylDvc8OK9Pf/SoZ763/aGHXtJ0XdPB0jT9/Ye2f++Zox49nZQBITVBgBQA6iQgFac7VC2p/rOzjUgGoIAbQiZj9X/84MlqRXAAHJ07AOSv1PFFb7YVTj/qme3v21aXdEnXnX+9P8EDzfmK7iMBqohgH0AoijSpPqMOeblAx/vCb7oygGTCYC8I7v6r1ephat4AGL0ZuelOvf7oM9tfsne55Ftfk2wI6MHnevjB/qO5T7+//ZmjTq/zMgSUSADuBqYkRty1JZIBGBZfFYQx//HcR+LbnyEPnTUAbg6u/nLO+qMeesmxOLS199c5B0I0QDAE4HjpIQcFVE6hQ0yI1slmEOK+Sbsm2XHygREMQLGS1IF+8OQG4c3fjQKmDwBfANT11c88pOmBYV2T+n81CT6h+Ttfw67BPRRe2v7MUU1aSw5kkuqU1jBKCoQYeSOqCqCQFDCiGjT5yxJs/+g6UCYAuDlk8Uc9FJjSt3BgeD08BMK9j1yEFh4XkmbD6KHvOQcCJSNB3CJEKgqHCHFcwMdnRzEAK3br72+FZ/8xsoAZACDY/49u14N9r0mkB9Cwz9dcDui9QAv8AHyj/XX9/e1HnU51BTaxeHATzxqRpYhX+AwgfjPo5I+f3FApAQAqn1TzBcDNbg2v+cz7WsjzfbsSHEALfT6gBRLBE5BnkDRdc0DAyf01sZhoJ9CXB1nDD86GkoGYAThZwBiCQM99VC3JmpcrAEa/7Qb7z7wUGNVzA5q/kdEhIEHO532BIgla6COCKEF//3uPNolGwg6WCsLqI3Aw5Q8KEAtEk+NdWoEmwf0vJVlHqrkCwBEAPf17cIdLgOtJmBKET2m+iTFNdExNocT3Jy9tP6pJZgTYt4h08IUCV98RygVjBhBvHui5H1XK4P2ddX2uAPi2vfu3a9iIgVsPT3TI8zU6NvQPB2BsBlAcv/KQzQjwhHCHuHWyQwiI1ev1nyscBrCxexvI+PgPfloa+1cOUfMEwL122Od5cQ2d3+FW1kDGT9JCbiCxYgMEJY1OI9j40R965nSidMCYJCCcxBYrEAxDDODGGKn/H22oVivVkiDgmBwBIN9brx/1kq7TblyifDtBCQHN04isIHE0oOhA87/3+8+cjq+XDdVCiDtGPRcQVAVxUihGL6Bz+pfF//NHwrMAwL2d5naQyvWDOQ1we/rwB9lh7AT812lhzlDi/pV07f1nTu8Qc4Fk+1GgI1uv119TLGoWIOgF5A+DP/dRReDOT3pdlCMA7nW3PyfJ4+d9pTCcw3lf4OA1KlcEYaXTqaQQA+jOADwf0EEio+/6s4KoFaibOPgLT26olGj/R04DpA2A6zrbg5iPkeTRJVYWSAtPeugQ6NfpmAmExCEID9032nyAqhISyUAXBG8wGECXMsAPfuq1/ZcGAZfnB4A/Pv39sLQfntYS7a41hneAR71Ovk6T6BoCP2msP/RMk5wo6pAtwp1O/WOaAUR3gvz2ow2lMn5cBpAOAK5z2R9AgJf5B5EbAQUNBHiapBO+gPqLiwhuV4GGE4WBx7HzA3WyWahJXDL0IckAmJoQPh2Y/OUGj/yVCAEX5QUA+bpndLyksKIbHvT+2R5saY1hacABGIWjkA8Ae2MMeDmiR5twogg0h/gk4WckA/Duh5lkc/8NZdr6iRxACgBYul2nF877QYpPnw9kHpBzaHiY8DPMYajglhTgQWLnik+v00oB4cxR/UNMAJADwCj49ferlfLZv3pMXgC46yFJZyIgLP9qRCaYSPwBG2uMthEdZ4olv0SMyISOk0n2D7XpAK4DwAnVj4lWoPs5mf/n3qmWcsV1AH0D4EszJCYAUP0m3PmA6ms4KeBnBlk5Xwl3CrGCCuwn3I8vfe9R6rLRICLALoAnCfBCGb1/zCpAKgA4ZcZLOmcRbV5hvZ95uGsSsyao0ZEjKx+AgwvwM4OoAGuS2YEAqgPezwn9KpVy2v8wNR8AHDBD0vUoBGjA3kHxh2b4JAMARWAc/4FEMpE69hiC7yaCRy/5bAA5g06984YV1gGNXRgE8NcfbaiUK/ILk0BH5wIA+Z5FEfbn+2+wf6mCj0bnCTSyZVTSo1pGQISoeQWjo0iFAdsbfAx6gekk0KRz+JfV/peouQBgr/l69CIsrVGZXLJ2iGICTWJ2h+DdrzECRtg6oHn1oiZ1AY2dDvR9wGNUBPCC2/JbzgPglqm5AGBWN/tHFQbCHK+kkwUjuKs19rdgZgg0kCcI50yk4CQIzO82CbyrbPm///6v//rv/3fL2TT387ZSOUOAy9U8ADB1b0mPiwBNZxtOwljQYCiP24dwdxBFH1COUZPoRISu69sfhVLk9fr//m6wXiOqPpWyHv5xG8FSAMDhn9DjLGAPwndLrP2Nd7JGOxFmgpB+UgP+I2CP2kNHhXWhD/7tu2D9y+TAmL+SgAH2A4BzYtmf2QxCtvhpjOg+rPOiwRFGqZBRKCKmUIIPmksGnGsl/+G7aP2/SRcCL/zUM395EXCBnAcArtD1uAgASVpNx8ka3BGkhRUCHPWx5soYJwCjdgzSQt5LHDLQqf/bd4n1L7bUzwtPVkpW82XkAEfVHABwoCTpeiIMEF1d6CSAftpPIYOUjwa+iSZRhvcPAE2iPAoJN/fz7Y/C8z/gAZMv+P0+JTZ/tXK+mgMA9lqk6QmWlw5inPWSxxOIPEHow7VweDywJI4CdfpNIXrQiRMmHbb/HQ2A7zqj/pWSO4AkKYDeAXD43nqihbL4MCmso/EhTdcp4odaROHcMCPLhHKN+BAgKAPDAXz3u39fvpo/4wCYmgcAztETLolo+giDOi1EhYSOCY3TBSiFTAH1CON0sYaRQZSPtP/DAsA/lv74r1ar56s5AGCpnnihoi+xiTVyTJzF8zTmkClqJNCIzmPcfwI7i7V/YAHgH7zcT5kRcIGaPQDke2boek8QACyO3Nkav+sbb3+aTOrgG7KyCohJeN+NCYCfVEu/DpNzAEBSAgAjAY2gd6yuII07JUzRO41sLwneGLJF+FTwI9keoFIpuf1vWZkHAA7We1wwya9hh9ClDuAfAND/42RyOGAG+wb8IBPVCey/bA9QdvvH7wLpBwAH9mp+DXf+ENs66BYK6wBhWZ+oCgCbk62nEho+QuzPSyc434JNAjeU3P6XyDkAYNYivR8PgGc8cY+/RM2Ggry+zsr/hfUCskU8/KgREafzrblhYJkzQEeOqjkA4Jy+7M/IAgX8Hk4I4h5QcnIQOQE4jBjKEMKEIUEa7GeeZSSC/q7sBGB/NXsAyAfqva+gdRuk9HDlVtNR3B5MD4TD5RrVJEQNIvvIIhpGAdF49uX2PzEcwKb1Zd7/lXlqDgCYukjva4G8H9XCqQHBUDLmY4X+iDlqKEtIzhjBaoD09suNRqPxHxQDmJiYmFhfXhpwvJoHAG6S+rO+JlEiQIC46UAQDOaLmYNEVD3AH0cjzn4NBZ7a21sb7voJEQKsmJhoTUxMrCgpBI5Q8wDAKbqk97mIaUE84iGBqR9QRtbIrU4OFBJjYzoWpgSwe3tro91omA3KB/zj3bYDaNkYuO/YMmaARvMAwOHz9f5PALKPl8zYacCIZLs/0hjWaBqg4cME8AHn6be3OrZvO38bjZ0DJvh3fz8R2H9iYqJ8ZODIqWoeALhC73+R6h/BRqemf8mAkWgwlNAJT5QEwu7CMIhwz35v+zsQ+JN/+o+f/OQnP/mPf1rn2d/FQGtiolWuk+CQ/dU8ALDXDD2VhQJ2DUMBDgASLYIa1fGn8/o/SXg4zL8Rbn7HATQeGauNuav2u8AD+F5g4r7SuIHKHivVXABwjp6SBwCMjRwfJE51jZgq0fBskEawAlJoKDw0/rmNN7/977paAIDHvY0PUNBqtUoSE9xytJoLAE5JaftrjI2qU1KCGhnkgZw+e0CIkqUJe9HfaweWbwcgOKjmA6A2NvYi3P/hozIQwlvOV3MBwOh8KcUTwDelFg4Nabi8S7YCa1TnsIaGSuAgIu4yeGpzw9//3kcHBQ9sq7kQsD887jmAEAMeJ9wkuhvYfZ6aCwDkpSnZXydneGgqL+mMp6FiKKUbSZSYgGOQnt3aAKd/eARMr4HluQCEAu9ImJhYIbIb2P0YNR8AHL4oRfsDO+k6NfRLxH6EVrROqAlqEtSdwEMomiT9s3fwexGABwKz3Xi1hhDw+CZg9WD/t0R3Axu+o+YDAPk0PcVF8DhUsUNFYQ30DvidxRrdLKprrDhAl6Sn3rQ3vOnt/zZwBcgB2C7gd3j3Q/uL6waO/VM1JwBMnZGq/TUqd4e3LqR9OPSD3gInkjREAZ283+YGdz1cI5bjAvzzvzUBvIGPBvHcwPr+7R8XAFfoerouQJfwBpdYNT6JEppBUkL4SgGcLJAk6feBtdum6wjsB97Ht0gPMPY7kAfyjn/gCETMDaz4czUvAMxapKd9BGiE5A9vllwKW/01RtuHpOnEMLj32VOewzfbDUT+3I+UA6iNrSOPgAAD8FQQJ0W44b407B8PAHLKDoDqAdJAUkcL4z9YySOSwqToaHgqOD7j2a0E78chQOMtCgC1ba9P4CNgAqQFwiNBEEZYWT/x53JuAJiVifkRF2BPAzEPASdpwFWPcf78J7XtwxDA/nhQjbHW3YdOgBaRGgKUsHgMbFjR+loq9o8FgPQdgIYEpBi3RWi4WwREBYzxMA1NHunSL970jW8CBwBjgFcZ9h9b9zzMBdEkENGBYjFwbGvia6qaGwBSDQG44jFE/ha1B4MaMdE0QNcNnn05rPm3oQsIH09nOYDa2LpjiRAAeQOCDxSIgQ0rJlrfUOXcAJBuDoA1JQBkIIiLwjR81xAIDLyLZ0kq4JE/ZHqX+HuYsB8+zAbA2PNc+1MYKNAPrG+1Wt9Q1fw8wOGL9GwQoLG0P7l3TmCJMIm8jMZ94IT+YcLP9wVtdBSY22ocBDw9Qbh78g8VFeSOgWPtH5qe/eMAIBMHoNPdHMzLg1gTpLqEvEgYREi/Ap7eBHbHdPARtv1r28Y2T5DbnvhLVI3d1VqRGwjWb7J/4N+qeQLg8EVSpghAkqLk/UISOVQMBz2h+qDT8rUZnvbA+mb4idlomOtqvDX2NLXhyb/oK+AwWHFs5iDYsN7NVn4+rfM/HgCWSlkBAM9sSxG3RJKtwRrqEvBe+F5Q7DXD0A+7BOfxQXz7jz3eAmlAXBKIfmA/vC9TR7Bh/Sb3Z31eVXP1AHtLmp6lC0BkAF8uCFvHNYmlJRYygWc3o3Yf9BeHgq/WIhDw4gQrAKA4YYuRJHQdQUbZ4g33ecdNyvbvDoBTstv/ZH5XYkyQ0S1jaBrAdwU++SdOe8ITOA/NWhQAHies2mIaH2z71sQEjAxatiNI3RPYR7/3M1O2f3cA3JSt/XGGV4PzYCC3AzsAWdJA0tYw8e8nfMyA9Ae73+ECD9ciEfD6BB3+01FB5PEw0WptSo8Xbli/AhQlPi/nDIBZmToApN6FJF1YdX7WSJATEL79ptkw2RseLYckvBUNgHUrSK9PpQYZ2UKULPYpRN+uoLJhg0P7w+/7X9O2f1cAnKbn4QGgoAd5EhA3jTKqBu+1G+EGN4PtHzwVPmg02gfVotfY8yT7o5sEcHmI3T/gf37f+vW9xQcbNqz3zv3gN0h//3cFwOj8rPe/hsf5fWkPQiQWOH9CIVB7dis++2Hdr91A/5jRFNCx/zY3FKQNT+94oljAShgEUaLtDTYksP2KTRNUKqp191Q1bwAc+JKewwo1Apji8lQ5EJ4Eb78JUn8EBvCZ4PCA6bVuHmBsM+NspyuErJQAt6swzBasWL9+/YZjN7BuItqwYcOx69evcEw/QTudiYm7R9W8ASAflz0DkNC0h8a4QFQjcsHwgqH32kTdp+1b28TtgCanFYwXCnIawzhNY0z/QKWT4Wptum+FA4f1ttFX3LfJ/c5oLgGDL4v93w0As7Q89r+OCABDD5ghAeeh5mVc8DPDfB/pBrw4YFutOwLWtVhW5hYHmJZHQQS7tsBbMNMMvvHd+6v5A+A0PZeF83poTIh3ZzhM/jS8Zj8AhjawugnA8EgtznqeEfC1WFUCVlDIyRRy60u8P8SrM7J/FwDMl/Kxv0aP+xD3gWEtIPdNbuNHmwz7yOJP+LnZjQIGJQHeoFCL1zNChwN0cBg+HwUG+kc7/n+lWgAATpHy8gBEulcjdMOpG0XtJ0Dyr42r/kT/j+8DYlBAPx+4ien3afrPTRfwW0oIGkn9jwmmuz+lFgGAg/XcFroDVkcZQDQvGmaO/9kb8SFjvTbkAybuDYl3Ajj5QKbbbzESwlTGkA8TZkIh8hjw/f/RcgEAkEdn6DkuJAOALwpGkaC7/Z3kLy/jFxz84Hiwc4XmA3EBYHeHcatCVEzQovtI6Gpi15ODakIIXrHpaFUtwgOckKf9GddH4YlveCe9ZNM/lOw34UNGOqgd/wRwkwEtXoDfYnYNU66fYvGtmAhoUYWIu89XiwHAcbqeLwSAPADZOYyygNKzb7LS/OwhACAN8XBcAGyzB4WYRuTRvhYVHkwwpgyp3GI3Euj8ydL+UQCYKmkFuACN2RuI7396O5R6MamZj6Ab0MRFoHhJgPAQuC86Bcxi/S2m32fMFrDiBVYAYH+yKVP7RwFgqa7n7QLg5SH4qtkwVaRrT7VxpyfM/7VN1AVigrjAPKgWf41t29rieW9WXrjFdfK8hDKn1EieAK15alEA+IRUwBEgEdoBOtYPt7HxXrsBhnyAp2ekA1Bc8GotEQJenOC2ghCMDQdxdAKR+V5eMRFjZtNVakEAkGfp+XsASWdfAw7Lg78Ker7DEl+7QfaDmXQ9yKwlAsC6dZuY1uNVhdhOgN1g2uKVl8kDYyJr+0d4gNP0AhYW/mLdKv0yJnptPPnXRlTQRK2Bj9SSIaD2fItmeGz6x6b5PKN3KyiB73W9XBwA9tYLQQBDQgxcASltZSV9Tcj123QW2F0P1BKuuS8y83LcKhAnj8fpFuGwfvT8MapaGAD2kqSCEAAUYqDws/P0VhM1+YFOAJz4QcNBpvPs9G1JAbDt8fta0dn/CT4CmJyRTvkyjxL/wUVygQBYqukFLVwEhplBt/pL+wDGICA5HZL4BHBUQ7Zyw39fQ4KVuJ1o8bM/rS7HBETEd1S1QAAc91KB9tfYSpIvh2W9NnXs42Eg+hRIfALUxpxIICIMiM7kRnEC9tmAXtP6jlwgAOTDC3MAeARABxIALyPSj8d9TGhvM0wCeJ+a8dPAKBRcd2yXvc3e3Ow0zwQvFcR85k/lIgGQbx2AjgaBFEzgDn6Pj3zU7A/zAGSPkPv5w9t6QsBm6vDmyMl1jwtazA4T9tts+6tqkQA4Ry9waYSQmPPoV/BEN1lMHyYAQAzY6wngIGDu60y9mGjKHxEi0GkjdvPYn6tqoQAYnSEV7QLgxYCapP8nFdjBXmCsBdYmUgQ9ngBOJLDuaW6Wnlu+4zE+VhhIK1Tbr8vN/jwAHFikAyCOAOfDU6GTNwndb5NggW08HOSdAL3Zf8zuDmpxRoW5bR+s7i9WUwhV+PffnJ/9eQA4WNL1gjGApsB+YTZgYb9Bdn4FFjcbqFGo0d8J4M0J0HVhXi6fDu5bSHOSFyXib/Y1tXAAzNd1ERDg1wPfbjfIXu82kQ+ADcDI+Tvv6/UE8DRE+VNBPNZHbPyI7lGaTuRpfw4A9tJ1MRDgtX+3iaR/qPthtgl3D4YDeq8DEGWhp8nRYMrWvFYfTpNnRHF5ovW1UbloAMhLdYEQIEmbfVpnsnwA1RfapieEH+gHAH6TcGAuUkEUo4LbCNDilgLhO78hy8V7gON0MRDgHgFb/WOdavpqs1vCgv/5Z4BZ6wsAY5s3TfDEAYLEHeOIZ2lLRbaWT7QmvrGrqhYOgHzbgbvxgPfaZPc/bgLyH7lq4PQ4WLth9nMC2AiY+zo7Zx8xFcbp/uHk/YKPf6uqAgDgQF0XBwG/aNNenln9h8MgRH/QA7U+ETD24gQ3kc9rEaCTBmSeiE4ZpSoA1jsADtaFQYD27JuM9n9mDzA5EN4OggCz1i8A1q07lq0b3IpM+mGiMME69NELPq+qQniAvSVxELDZJwAm0ACB2T8ThAbt8NiH7uCgWq1vCDx+X4tM7XCsyvIEkc4/ePrzshgAmCqO/fVfUbVd1PJHngXwMAgdx6spAGDb4/w5H6oplJ8dZiWU/Q8F7H82AE4QBwC/MMnwjkACrAubDXoywPn7Vi0NBDw/EXPomz0tEKUx5gqAjYoCAGEoACIARCqgTZ74+AyAAgHT+7d/bZt3sRi/l5uaEWNBgnEFiR9G3l2I/ZkA2FsYB/Ay0vwm2KBJqoEStDCoFj5cS2WNbXt6E6ebI7L/hzcHhl9YzP5nAmCWMA7gKdz/0w5TAaHRTSrvT0UKD6QEAHdmmMX4mM9F9BDTKLp7qiwMAE4QBQDPvgmyPYwiUBspQwQngAlLg2YjlRPAcwGPb2rxGvt8qdgJotDfihj9CZ/PRgCqNwCMCkMBfs/U+4m4CgbGAWYAi0dSsv82rzmAdYtIK0gHt+gpMSblg4ywQPuzPMB8QYKAX8DpLyD0Q9QFTXQCMHzFw2l5ABsCmzex7pZlJHqYPaIcEfLC/D8TALNECQI3h4d8m5R9gmXBtkmG/5gMvJUaAOyqwOZNnDZ+lloMfcsIqxZ09/7F2Z8BAFEKAb9AGr8mHgRiDwQzc4LTa2kue1iEUeXjbXyujih49d0rC7Q/DYAMbgntKQXs5oDbrPJvu0EOApL4N3PMAAAQxklEQVThP+wZeyRlAKx7nlH4Y6r98Od+IE3ITgCsRw/wCTEcwFOk9ruJGgCpEdA2mRJsp5YHplrEIho6GJnCFq/10xMAU8UCwKgYFMB2AGZ4BRDc3CbdDGSyUoLe+7alCwBfP4g77UXfLMZRlslcAKw3ABwgjgNok1OeJq77m8DoAUhMIiCcXkt7Od0BUQ1e/BtoqYTR3eerogHgNKFCALi724yuAFIKCjWCJdGGTJgPeJF3ZURE2x89ONRqFW5/GgDnCHEEvB2YsQ2tGQoCQlyYsCsMXREUWx04sRN4scWXimIJCbB8w8Td81TxALBICAfwe1aTF1sEhmoUwx7irWwAEOgI8mIBaiaEkRsSwP4UAGbpIngAqc25AMrkiMBAFohOALOWzSJjASwXwBwJIY+LTfNk8QAgC5EG8hpBTdzW4YX22Pc3wKsIVSgzGwoQ+IDXyUOA3TAILg/CTuB6EexPeQAx0kCMMhCm/8D5U7qwyF88XMsOAc9v4sz+sEXkMQ1oiWF/ygMIMRKivWkCmQ/2/X+A9qHH0F+0Y+uD9zwv0uJqyJC6T0S3wDGqKiIAxOCAz0Ki38YWpXBA7H/sLsxaLUsEPL6ixe37JTY/4RS+s6uYALhHkE4gPPtPXAfUxmFfKA1H9YU2DsoWALZ8BL/vlzcm0JqY+I6qigkAMbqB3gsFntp0rY91EwBWCgoIY2YcMFSR+t0E974I7pUyre+MyoICQIxuoJdxCGgStT6zgfY/2RoOgoD2q7WMETBmXzXb4s4NsluH/1QY81MAEGMseCshBojaPdqwCIzqv4w44K1ttczX5vt4s4HsxgCh7E8CQIw84GaTMQtCa0QxmoBN7DDM7M1fG5v7+NPUOOgER/09XwGo5ADYS4xa8ObI3B7o/mMyBOAvDqrlgYCxda9zw0DaA4hlfwIAgrSDbQUd3m0iuccc/muQ0qHew0dquSBgm+0E+JeLISh8TRUZAILUgl/mj36bzIgAPQdcxMO1fNa2det+xxP9wCeAaPYnAHCOEPbX3jM5R4DJmQWge8PcvoAHcgLAmN0ufCxXKTwEg3D2JwAgyEjAL3CbZ7vBngI0GehAJ0BjWy23ZTMBXu0/ePC1UVloABwuyEiA1O4i/sHBBmgOc7IAZo7232YzgRcZsqAgPZCzAFhyAAjSD6jr/2nytzlTBIh9BhxUq+ULgdrmp6msYAiHb6gCLggAWZSxUElq+wo//BOgzSQICBWP1HJeNhV4miUbbn/4W1V0ABSvEBwg4Cne5A+0tslCRxu0hz9cyx8BY2OPv34fo/1r0/M73yk8AI4T5QjQpadM3i5v89kBlhNvmK/WCkHAtrlbnybz/08/PjY2907RATBfHAAs+nS70eDtck4MYDagkJjZyC0KpBCwbezx558Gc8RPb91mByRzDxUbAIcLY399xgGjn24wTwBc7mWfAP6l0ttqRSx7bsBecx/f+vzzr7/+/OvPrxsbG3PLBocKDYADBLK/rKqX4vJ+nCgAdok1GmatoOUCYNvYtrF1zqOaHSA4a+5igQEgTBCgzzhFVlVZvpTuCW3Tc0Em2TIWaEZMLwoAthPw/cCYt/trgiJgRMQg4EAPkZc2mPl+mBRuE9Og8Ax4pFbs2mZfQEyuuYtlYT3AOYIQwFP8X0g+NyIKMJmycbBJ6OGaiGvulcJ6ADEqAdKB4RaRv0qdACZXJxr4ABcLYgKgNna7qACQRPL/7hr9KqvobzLkAc1QMMiHwqs1QRGwVkwA3KOJsP9PICZVvkpme02iSRw4h3YD6Yc/UBN1rZUFBIAQY4Gk/VVVXcuRhCVJgNkgLxV8qyYuAkT0AKcJcAScwPgV/8xk9wC0sWwM0hB0nqoJvJYJ6AGKnwmQlrJco/xn05n5PwSJtglvEjfTuCck23WueB6geHmwpZxf8s/4DUFt1iVi7jPThQZA7TLhPEDRpSDpNO5vuXg6UzKoTRMCMD4qOABqlwoGgNGi9/9pEdR4MTwBWC2jbbT/HSp4kOAAqF0rFgAKLgVJB0eFRvKh00PVjzZnbrgBeEDeDWE95QOuFQoABUeBB0f/njYCGjjT2zDZhMDMdSqkPx8gCwSA00S2v6rKd04Pk7xmo0HqBYHRYe9lJQDA2EmyOAAoNAo8OMaNORdPB4KhhHoI1hArqCW0lAgYEaIh8KZY/xlsBICz32wwCIEZ3hlXBgDUamfJogCgwFrgOTF/2T2nY5kgeAKY1Mzgw7UhAhIAQC7sxnDpnNi/7Z4HhSW/YMebpJ6Q90lJAFA7a1QIAOwl/P6318nTqSlwghCEVKAsAKidsZ8IADilqP1/XKINcPJnyYbA8OwnmgJLA4CxIhEQAKCojtBk9lflkw9qsHuCTKIxvDwAqNUu3K9wAMgFpQGOOzzpbzzls2RDIJAQg/OBJQLA3OIQMFJsGuAThyf/lad8Fl0RREqIBaNBj9RKtC6cUrQHOK4s9vcQwBCTb6PWULNUACgMAYEH2LuANMAnerwxdb/PBreJtFkSQu1GmcJAb+02pVgA5J8GkPbu+cZcGwFt1pQoHA8plwcoCgE+AAq4M37vPm7MHf2sSfUEtQO34OLioFrZEHBygQA4IP/9P6uf33v0bxgyAW2kMl46ABSCgJGiugH6s78q2wigR0NgS8j00gGg9uWTCwPA0pz3//xZff7i8ujf0CpCqDhYQgDUvrxnUQDI+a6g+bNSqIF9k9EWBOoDZgkBUNt5z4IAcFPO9k/jd5e/SaoItdEZsK2EAJibNwJGimgHmb9XSr/9Nzmzgi4GHqiV0gdcXAQARvfO8fxflJb9Vfnr6BIp4jbpcgIgZwT4HiDHPGB69rcRgMfDTVgVfLVWUgTcmT8AZuW4/+9J9f/A1wmpYFAVfLikAKjlKSjoASC/6+IW3ZNyD9zX21QiyCsIPlIrLQIOzRsAueWBFh2Qdg+k/OkGcaNMu7yZIL9HKD8EjOTbDzTjgPT/L9gIAJcHBkeAadbKu3KTk/MAcFp57a/K8qdN4gTwHr41REBcAOQjETjjgGxuTHBOgQasD7rpgQdqpUaAnCMAbsoDAI4AaCZLvtQE18gGSeGHa6VGwJU5AiCPRKB0YHb/N3xZ2QZqDXyk1ADIR1DQA0AOicAZGdrfExU1cWtgicMADwFrcwPAIqnM+9+BwLnkbJBZznIQWtkLCroAyEEeJmP7q/LoV8NuIF8l5tVa6RGQDwCyzwSfkD2ltUVF8WxQyVmgs5blAoDMOwJPyCWm/Sp5d9j08gMga0FBFwBZT4YuzSmt9dUgAPBKhAMAgIwFBUdyyARLednflZVtg/nhVwcBAZdmD4ClA7H/XQSYsDnw4UEAQKaCgg4A5ExbQk/LtcXpyulQOnj6QAAgS0FB1wNkORp8Rc4aOIvhGVDucgDwAXK2HiC724Kkg9Wcl7zYHLgzIEM5OdcDZCcUnrv9VVU91DQDBcHBOAMyRMBItqWAIuwvu7KyXmVwQM6AzOTkRjItBRxckAJaICxc+opg5ghwAZDRdVE3FaaBePF0vzBk1gYHAaNZAWBWNg7gHLW45QkLmwNDA2sZCQo6ANhr4Ozvyso6ycDpgwOALAQFRzKrBR1XqAKqj4BBooGZCAo6AMhgKkAq2v62qGjbFOEO6VT7BFNHgAOAE6SB2/+OqKh3wcBbtUHyAVPSB4Ccei1I6k0AMH0f0Cj3iFgOCHA8wBVpewAx7O9KSrYb5kC5gJTl5EayqAWJYn9ZdkVFB8sFzE0VAQ4AUh4L+cRUYS7HthFgNsx1tcHyASenDIBz0gRAnwKAaSNgv8+2B80FpIoABwCfSBMAvQvAZrNsWdmBygXUUhUUHEm7GCjU/neWLSk5vTZEQAQA5ktSevaXVeEQ8Nn2IFUEPATsmSIAUqsGS/MFtL/jA8xtAwaAsZQEBR0ApLb/xbS/qsp/M3A8sDaWjpycDYCp6QlAiml/R1Ly1UFDQDqCgiMpTgbO30sVd31zwPKBaSFgRFXldDTipEUi219VvzlwkUAqkpIjqbUDCG5/Vf36I4OHgP7l5EbSagdIWQA0i8LA1wePBvQvKJgWABYdoIq/vv4nA+gDFvcNgNETdhD7q/Kn3xoigOEB+u8HmVEK+9sIWDc2RAAFgCt2FPurqrqsNoA+4MqCAZCdAGQGPmDtACKgH0FBOw/Qb0PQgWqJlrx2bAARsLYvD9DfhVFSifa/s24fQB/Qu5zcSJ/qAJp0YMnsr8qL5w4RgDxAP0LB5bO/qqp37jyACFjWuwfoXR5Ckk4oof1Vdc8vDyAPOLdnD9B7R5h2glrONWW3AaSCl/UKgPmCC4BmsfY7ozZEgA+AnjvClqrlXfK1A4iAS3sDwAxpx7O/nRQcwFPg2p4AUAoByAzWoQMYDCQWFBxR5cN7CwCuKLv9VXkAg4HEcnIjvbYEHqwOwNrvpB0eASM9KgQNhP1taeHBOwaSIWCkt3uDB8X+qnry4MWDiQQFR3rqCR0c+6uqvGzgSgNJBAVHVPWUxFHgTbI8QAhQ97xw0BCQQE5uJHlPqHSOOlhLHh00J5BAULAHAAya/Z2A8MId1QeMJL4waADtP4hMIK6gYGIAnCOrg7lOPmvAEDAlJgCSqQQKIACZ2Vq82w6IgBFVPS1BFCCKAFxG58C5A5UWiiUnZwOgbAKgWZ4Dg5QbHouDgJEkYwEDb387KXDSALHBGHJyIwl0QncE+9sQuHbuDoQAGwAxOcDeU+UdAgCqfPLgQKCrnNxI3LkQSTwBwOwQoJ586dwdBAEjcZWCRRMAzXpNGZSIoIug4IiqxhoM2oH2v7/2WzYQDUNdBAVHVPW4GB5g/o5nf3ut3W0gEHBxFwAM7c9nA4sHoV8kCgEjcbTC5++l7rjr4gFIDEQgYCTGzdE7tP3t9OBlpeeDOx8aAYC9pZILAOZxEpTdDXDl5Ea6zYZKQ/u7McHaUrMBrqDgiH1bQKkFIHPMEZ9b6r6hxT0BYGh/TAeWlRcDbDm5kejp8BIJwOWHgdKeBVcyASAv4p//Q/szKeGUtWeVkhOyBAVHVHVGxP6Xh+ZmIUBWp9x+0tzyjZczBAVHVHnG0P69xQWLLy1fsWAtwwMMggBoYYHB2rN23lZqBIyoozz7Hzi0b6zj4NDLyhQZjC0jAXA4TwBwaNyYEFDVKbdfW57TYBkBAPadYdrQ/glRcPGys8pRMsCCgiNsgRDpwNGhUXugBFdedkYJgoPLugPghCH/63ldvPba3cqDADYAhvbvc01ZfNkZIueKLo0EgLR0aP80aMGhy04S1hVcGwWApUPjpYeCPa889yQRhYl9QUEGAIb2TzdGtJOGF99+2VliwcCXk6PDwNOG/j+r3PGday876cK5wiDABQAhFCodPLR/xuvkQ28/96QLBcgZnMTKBB48NFBO58KUO68899ozCk0gnksDYGj/3M+FPRcvu/Ss3Qo5GMamkNXAof2LoonOwXDpWRfunCtTvNIBQNARJN00NEfhQFD3vPPKtededtJZF+ZwOtyOZwOH9hfteDj5zsW3L7vs2pPO2C0bzrinKxU7tL/gTsFR5p1y8aG2a7j2pLPOuDAdPIyd4d0YcqAzGnLFMP4rCy5sQOw3Zc+LD1185dpl51567UlnXbjbl5NjwtGOGHG+5V5Llw77f8vtJZwjY8rJe+558Z2HHrr4yttvX7ts2bnnXnbZtdeedNJZZ51x4YW77fblnSFIdrv0ZDUAwHDtsGsIgB18/X86DCG2rzvCrgAAAABJRU5ErkJggg==;" parent="1" vertex="1">
                    <mxGeometry x="-270" y="-365" width="120" height="120" as="geometry"/>
                </mxCell>
                <mxCell id="85" style="edgeStyle=none;html=1;exitX=1;exitY=0.5;exitDx=0;exitDy=0;entryX=0;entryY=0.5;entryDx=0;entryDy=0;" parent="1" source="34" target="70" edge="1">
                    <mxGeometry relative="1" as="geometry"/>
                </mxCell>
                <mxCell id="34" value="" style="shape=image;verticalLabelPosition=bottom;labelBackgroundColor=default;verticalAlign=top;aspect=fixed;imageAspect=0;image=data:image/png,iVBORw0KGgoAAAANSUhEUgAAAgAAAAIACAMAAADDpiTIAAADAFBMVEVMaXG9P0J8NDrxQUFMaXH/Skq9PkLnRkb/SkrPLi7/Skr/Skq9QEK9PkL/SUl8NDr/SUm9PkK9PkL/Skq9QEL/R0doAAD/SUn/Skr/SkqvKyv/Skr/Skr/SUl8NDp9Mzl8NDq9QEL/Skq9P0L/Q0P/SUn/SkrAP0J5LzT/Skr/SUn+SUm9P0J8Mzn/TEx8Jjj/SUn/SUm+P0KBMjL/Pz//Skp8NDr/SUm+PkH/SEh8NDr/Skr/Skq+PEG/QEB8NDr4SEirVFR8NDq9PkJ8NDr7SEnxSEj/R0fSNTV8NDr/SUn/Skr+Skr/Skq+PkK9PkL/SUm/P0J8Mzl9NDrAP0L/SkqsOz//SEjWQ0W+QEL/Skp7Mzd8NDrLQUP/Skr/Skq/QEC9P0KBKip8NDr/SUn/SUn/Skp8Mzp6Ljh8NDr/Skq9PkK9PEK9P0L/Skp9NDr/SkrQQkT/Skr/Skp9Mzl8MznDQEJ8NDrKQUOzPEDHQEOCNDq9PkL/SkreREWnOj3/SUnzR0j/Skp8NDp7Mzm8P0L/Skr/SUm9PkJ8MznCPT18MzqHNjp7MTj/SEjrRkb/SUn/SkqMNjx7Mzm9P0LRQkN8NDr/SkrqRUeBMDjbQ0Z8NDq+P0H/SEi+P0G+P0H/TEz/Skr/Skq/P0LkRUW9QELFOjr9SUr1SEh7MznWQ0T/SEi7OkR8NDr/Skq9P0K9P0KBNja9PkK9PkLmRUaHNjq+P0H8SUm9P0L/SkqfOD6iOj29PkLhRUa3PkF8NDq5PkLDPDz/SUl6MjL/SkqQNzz/Skr/Skp7NTl7Mzr/Skp+Mzl8NDr/Skq9QEKVOD5+NDrHQEP/SkrHQEODNDy7PkL/SEj/SEjxSEh8NDp8NDp8NDrhREWDNjr/SEi/PkC9QEK/QEB8NDrEQEObOTy3PkJ8NDr/Skq9P0KMNzvFQkSWOD18NDp8NDq3PUH/RkZ8NDrXREWdOT6ZOD69PEKVODz/TEybODy/PkC5Rka/QEDJQkT/Skq9QEJ8NDq9PkJu8B57AAAA/HRSTlMA9v0NAPb6Bf0D+fH78R767v3uNPcXAib74wXNwnfzRaHh2dIRVubSD7Bp9eljFAhFSd0UCb3Efjox6+ieIjTN4AKv65Hp1CMJ2Sya3dCXy1/fgPbXir89usaTMCW+Zd4oiQyoY4Z0ihq/x9cukevj08CjplF3x/XCxcbu5ay8vkzas+dU3I5RQGsXcOEzG8xwkdg/n7iWocYgwd94DmVyQIPF48LlDNjVWsE4HtGVbKUmvX7F3Ffvg1TBwLfCyoPRFFkYqdBytjlfW0udyUjL97i5vOfYKkLQ13Ltwe86X/1OuMvEz7GBrdLLxsnhviq0v8PFMsUocHwKNsWIGIyQAAAACXBIWXMAAAsTAAALEwEAmpwYAAAgAElEQVR42u2dDZBU1ZXHX2Z7oJ2hITCIwzcMioI64gJ+onltzKIkKCpYiobxK6CiI7K6KbeEYongVyTxY9WoowOsZhM1Rk2M7GqM7saokeQV6+4mWmMmVkVTlEkFszUb1veore6e7unX7957zn39Pnv+PxUYhJ6Zvuedc8//nnOuYQAAAAAAAAAAAAAAAAAAAAAAAAAAAAAAAAAAAAAAAAAAAAAAAAAAAAAAAAAAAAAAAAAAAAAAAAAAAAAAAAAAAAAAAAAAAAAAAAAAAAAAAAAAAAAAAAAAAAAAAAAAAAAAAAAAAAAAAAAAAAAAAAAAAAAAAAAAAAAAAAAAAAAAAAAAAAAAAAAAAAAAAAAAAAAAACAF3HHq/9yBd2G4ctt9OcdxnHH3/R/ei2HIpLOcMmMvPQjvx7DjQmeI/ufwfgw37nNcfB/vyPDiN04Nz+A9GVa7/8/UGsD4U/CuDCOeczycjXdl+PCoI+AxvC/DhadyIgMYgSAwHDPA6iCQx1szLHjGkfAI3pthEQDGywxgxCV4d4ZvACgIgrMQBIZxAEAQGBacMl5lAKMQBBqdsx0lCAINzmMOwV/wHjV0ABhBGQCCwHAOAMUggOKQxuWRftoAnOfxPg3fAFAMAtfgnWpM8mdzHIDjrEUQaNAA4DB5Ee9VI3LJCK4BjEUQaMQAMMths3YS3q+G4y+OBpfi/Wq4ADBKxwDGnop3rLE4aJajxRYEgcbieUcTBIGG4ppRugaAINBQAWCtow2CQAPxouODS1Ea0DABYKwfA0AQaBQmrXV8gSDQIFzq+ORavHeNwKlj/RrA2BPw7jVAANji+GYmgsAwDgAIAsM8ABRBEBjGAaAYBM7Ae5hqrnXq5Cy8h2nmhLH1GoBz2zB4m3p6X191YkMGgJl1r79zc0MGgTeOvnH6EYO/XrDCLvClDUsQAIZHEHj28mkHCqwpfrRtnV3mgdENFgCcQGiwIHDl200lDhx4uuAEJttVfO9gBIDGDgLz1xxoGuKqvPGa7aJ5xaEN872e5QTEfQ3zllx27rSmpiarSNECpht77Bo+O3UBAkBjBoFJd550oLL+JSOYYXw2a9s1/86eO7IBvtszZgZnADc/0QBvyIQ3/+Be/YIBXGfYdjbr/tfO2l1vIQA0WhC45cxi8B9c+b6yCRiz7az7n8IPtr3u2JR/v7c5gfKLlL8d05+uevr7SliWNeZhY32tAQz+Y+94MtUB4OZgDeCoVAeBu66qevr7hrCsGUavNwAMOgF783+l91u+zwmYFN8ocfFpTU1NYyzP8hdcwA2G0WXXBoCKE8iuT6sydJsTOGkNAle+PeaA6OkvWkBf3jCmijYBgxZgt6dTGXri5uAN4KhXU6n7nG5V7fxq198qiMGdWbf/t10BwW7e3oMAkNYgcNm50w5U3H+fF+tbhd6HDTXrXrsbTJ8y9AsnFH6bPt1nKPiLlt86rvjnNnkiQO3Hs1elShl64qhwDODzqQoCE47+g3jrX2UBb5b+6OyhVRcEgaIX6HgtRX1S33dCIk1B4JZfS7b+VQ5g2v7Sn/0oa1P/2PbSY4d5AEhVEJj+MfX0Fyzg/kzpT29zb/+9jqBkA1e3peJ7f/Wo8AwgJUHgouOa5Fv/Kg9wV/kv7KmKADIrKJhAKpSh7zsh8vsUvAHPnsZ4+gs8XQnru+gYUIoDKVCGfuuEygsp0H0YT3/RAdxeMYCR3V4lyOsRiibQsjLZytCrnw/XABIeBOaffh7v6S9YwBFDG/sV3o1/TQwo/8K2j0y0MvR7J2ReSrbu4z3zkzqAGVV/c0CmBov8gt2dXGXoBSd0XkhqQuyu9+mjsO6t+kYyUyTnQbUBYTAQJFUZCjsAFMglMwhMOPo6KvF3r//Drr++TKD/ySyi+E/HYUl8EF5yIiCRQeCWXx84wA3+JQO40bWAI5urV10VAcpOwJ587HAMAAV+k0Ddp0nD+Ze2APPdL/E9Se4nCQpFE0iaMvRqLhoDyN2RNN3nQJPW01/gwxoPvkT0qEv2AJWEIGHK0EtORDyXLN1HK/aXHcDPa19nsiTYE4aRIGXoN05kJCcIlHSfJs317+t7J1+7h5srd/lKcbB9ZefwCgBJCgLFep8xlvbyW9YrE2oNYEGL4nlXKEPZpChDLzkRkoggMFjvo7v6Q6VAbhbZnkNBgTYk+JVtf3b1guEUAAo8mgTdx4/vLzmAqwQv+D6R+WflH9j2xLiVoTty0RpA3EHAVe/Tp4t1i0DFyXRIUz7VtqDsBWJWhp5zIibeIFCs97F8Pf7FUqBjRC+6WuXtBYVitY0kcSpDjzqRE2MQYNX7qCzg9IzoZTtb1EFAWjha0QViU4aiDgDFIPBUbLqPj8Tf7QEuFr/yBsXmT31WVEkK5wwMjwBQ4MKYdJ/6nv4CH+fF4XqeRPjPUqlBdc1QHHOGHnVi4ZkYdJ8ZY+p7+osO4GjJq+e7CCVQWDLuVgsKNUNRK0NP5eIxgPFRB4H5p593oN6nv6+v77z9sv368cSJoKxEpOaIIGpl6EInJqINAq56H//Lb1lvS/O1bVlZCsiQhaszgkiVoWec2IgwCBzz7knKNj8NC3hDagCZzRwlyLsp8HqDCJWhp8bHZwDjT4lO92mqO/gPrv+Zis9zq1z60coQit1kESlDFzoxcnZUuk/9W/+KAdypWJdMt2rzZ6uLhj1zhibPa+wAUOCxSHSfoJ7+wvqPOUL1ub4iSQQJQUhsL7Y9JXRl6JTx8RpA+EHAV72PwgAuVzrm0fJFl7QMSmNEKSUIWxk624mZkINAsd7HsoJa/j7Lmq7+hFOyqm0gs2jI9cdCVYYec2LnkTB1n7ebDgT49ItLgdy8JXrsqbVWGobdcndoytApI2Jf//4RoQWB+aePCSLxdzuAcyeoP+nIVqmDl9SGSjaF1fpwWHOG8mf3x+8BnLPDyXYG632aAlz+ggVcSX3eu1nFgIRY4Laa0JShR5xEEEYQOOZd9Xwfvw7gA/IzD6gDgGD5aedQ+GHiqoOCfpMuGdGfCAMYcUnwus91gW79hyzgBtJdZXaLYgAnJ5R7h3BqhvKzkuEAnP5ZwX5jE245M8DE37X+JzH02VU8zV9RPiY5QQxaGUpIACjwl0B1n8+F8/QXDGANw1QXNCvOgmTqoDxSuDOCAJWhS0YlxwBGBRcE6q738VMK5OaL1KQAKgCItgiB1wwdNMtJELMC2uAEUe+j4Lg8J1g9Se7ws/wuIo9ZBKUMPe8kiueDqfcJ7+kvOoA3eV9Hh7IEVHUgQGwJynOGAlCGkhQAikHgmiB0nwMhPv3KUiA33yw9qdLwz6gUUgycKbx26/a/aqQAUGBtnUHgslemBS37eRzA/cyvpadFXRXI2vZLY0DJC3TXpwy92J80A3BeDKDepym85S9YwF3cdHW9fGgk0TfInDJTMIGJV/h/Zq4Zlbj1rycI6M738ekAnmbLFf/NOP2jZ4gQr2HbHbt8CigHrXUSiN8gMCHIeh+VBdzOfrvF9eHKUYJSdyH963XUDL3oJBJ/QWD658J/+kse4Aj+FzXVlnYBqDJAfu1AXcrQNWOTaQBjfQSBgOt9VAYwQ8PfdmY59R/KYwKe2/CjDE1a6ySUtZP81PtE8PQXHcC9Ol/ZHB8qEFUeItkX2tkHtmm9a5c6ieVSXd3nQDRPf7EUKKOz49okFHgY5QDMIFD9wprK0Kljk2sAY0/V0X2skBN/twO4cYLWUetsXp+4NNljJ5ElE2j9iKsMTdriJJgt3CBw2SvTwk/8XRYwXy86bVe1fsm2+Oq6AZW1sJWh/KVOouEFAVe9TxTrb1kfaqbcozmjQnj7Q6KRsBIJWMpQkgMANwiEVu+jsoCfaxpAZiEvD5DKfZygoa8MJTsAsIJAePU+KgfwNW3NbZdNdgrLllQhEFH6MaUMXesknmtjq/dRWcAr2gZQqA9XCD7MijH+4NFKN9mJii/qhLHJNwBlELjruGAbfdge4Fv6GtVWsgZQ3S5GHxYLPYZKGZo000kB8iAQcr2Pgqvy+scuA5LFJatDlVs/1gvKlKFrnVRwbSz1PkoH8B0/pxQ76AovYoAoee+IUFyysxJl6IR0rL8z9oRY6n0UlO+I1eMKMgKoA4BWNlgrDQmUoTNmpsQAnJmToq/3UTqA032dU45sVneG6waAWjVI3Vlmd79eowyd5aSGa/PR1/uoLOAiX4UX+ZW8zT5/k8i+ma60G3QrQ7c5KeKEqOt9lA7gY5+VSm22TdcGMwqC+VXjtWVjHbuGAsDNaTKAmWdU6T5xbf0rFnC0z8qrzDpFXY/22RB9/4ToLoKyMpQ/y0kVZ0Vc76P0AJf5LVaca6uP92l5iFlSqPorJWXoNidl3FbSfeJ++gsG8Lbv3lV3fTjV+8m4YkTjDooqcXDDgPHEzWkzgJvPMJ79MPanv+gA3vBfrv6AzegUl/9fsSisaC8QG5ptrz/LSR33zUjA01/gzLz/7vVetgjA3vixK0ndt9Y/dFTqLOCXsSX+bgfwbj0dKx3EZp1hH8whM1TLwZHfHZcyAziqryn25S+WAtUzvmI1MTCK1xTCKxKTi4elH350/WfStP79/TclYfmt0+oaX9LZzioBog8EOb9DBISs/YUvj0qTAfT/Mn4D6KMGQ1JsUFYD+xWElfUC8n7kbNb8dGxqlr+/f1xf7MvvoxTIzbF86U5HGOJHFddnzWaz//B36TGAQhCI2wLOrXeA1WzWxp7TFigP93wLKxjB3xyelvUfNeqXsXuAK+tcf+MjeYbHmRVps48RiRhQ/QrfODwV69/fP2pcX8wu4IO6J9htIx918Wrpl4/zk8ms/YO/TsX6jxp1YcwiwC31jzD8GXdMuJbyT91HRMlK7S8/nvj1L1rAn2O1gPdG1m8Au1jNnvw1ZBiT+rK68hDypIqD/S4DyMXqANYEMMN0ZLdgBYg2H6qIVFIqTB4Puf/HkftyyV7/ogX8OM6DoIuDGGK7wtY66LU1akm5p82S302iOFhc91yFQhCIzwEcF8gQ40PYoyF4V8/7iwHiPDKbNHGwv8YACrwTmwW8GYgBZKaIJX25FODDYxAyo1RPTpg4WL36ZvHfXC73u7jW/6v7jUB4i1HHrT1cnKEJcc6RC//+w96k+f/K2pd++iQmA7g/oDH2VW2CfqfHE5ovkV0oxKHSDwkRBz3Ov0xMW4C7jID4HrXCWeV1gzr7RJXHV4yhzyZBHBx6/Mv/lX+5N5ZE4Ol8UBdZLFGM+6PP8GxmfwlXNxTHg2zs4uDQ8296XMCf43AAdwZ3kclu20cI4N08qooAojuKhJZYbCiMWRysev69LiCOTEBnMCTFKmV6rpfXcfuKFNFA8jmycYqDnvhvun76SfQO4PIAbzLqaaEXXK0WKrZ/9NLyp5TGJg6Wnn/TlQG4TCHyTMC6N8irrBbZ3HGxWps7rdMlxRFi7OJg5fk3qxe9Ygtm9EHAejjQq8zel5bwK7t9NebNq8dScobOlH+KQRx0qX+mwBRyudzhEQ+FuDFQA8h06Kj9WfL6WVtbR2JfZRqDODi4/KZn1V2x4JNotwBXBnuZ4eucfFxrVCCdS9JjZqWbjUjFQc/zb7qiQMUwIg0Cfwr4RuOedirX4+8G5KFEXVSkMbXQjlAc9D7/Yi0gNytKB3CDETD/rhrmoG4DZxkJf4yEfEi5Wx2MSByUPP81G8Hir8+PbhvwXj7oO83naTZ8sKbH6cV59XhK714gkspB0fNvijYBZi436p3IHMCa4O+07+LOfOH8pqKiTDBIiFGBJpafwxcHiee/xjQiywT8DIakOJ7zIBJTw7TKiIT7A4EyrCwXaA5XHBTHf4kDiCwTsKyrgl9/4+As6XrpiXHknCFNE2FEkzDFQdHzb3qygOqPvx6NBXwnH4IFbPZX6KPbCECXHTG7iSt7gdDEQdnz7374zeoPZ0VyO8B7+0NYf2MTdQjIcwTsM0WJa6DKTkSvHo446K7+M2v2AF6riCwTsO7PhGEA+W5eyNfuD/UlE2opk9ms+fdjw3v+Bac/pscqyv99PYItwEVGKHylnqDM6SYlWw5VIybllQOlD4IWBz3Pf40PMCWeYHn4LuBz+XAMYLTWw6/o8NG8i0S+05fpDGITCFQcLC+/mVPsAMzaApEC/xq6A7jdCImFvPkQGjXDHlGgjhhA9i7Y2W8sD6f+p0b0N8U5YPnne8K2gP0heQDjtSDqOv1UEGkMJVRHl6AqB13lP8JTANOTAVR+5z+tcB3AjLDW3xjZqq7v1JSEOUNDZBofuxit9g8GIg66y38F2Z7H77t++mO4FvBGaAZgbKVdPXG/rN9tIfsGe3qMUcu+zwdZ/le7yqZgZ1C7L/xhmOt/ZnjrX7hGxp/sozw7Uo8RIGsFSBvwXFR65HdzgTz/kpzfzMmqA8o/nxOiC7DeDdEAMldLxHjlQ62sEtXZCKjnS+r0K9YhDtaU/5qic19ZbWjFO5wf3vqPmW+EyBW2+vJwXv2f9s0D2ndW0AqFX3HQ3f4jFPsELsCTKIaWCVinZUL0AMaCZk5VB3Fm7GfMvHIWkeIqGvnL+BMHRe1/3me/VgH0/uGwMgHL+rkRKl/kTPYQa0J0iSjXLrSEAumn8iMOVsr/TcHTLioDq1p00/X/w8oE3smHawBtxPbef6EI6zCZLxLxyko1xUFV+4/ylwJncU84DuCVCeEagLHOVy+/2hPQRkN1idPCguwqgm+s9Sf/mYLDflc5kCnXB3LhZQJhlAIJrpHhjP2Uajni/636+3QpIC/si4bP2tkfnKMv/5mio38zJ6kDMnO1fUIhZQKW9UE+bAM4tCWrfTMMJywopRy9/T7dxO66jCLb/tDjevKfx8F7n3xTsj0ww80EghgMSbHepg5uiJnBfg+V6QIi3RKjIWVo3zh++DdFbl8qC3nahYa2ATOtwB3AtJGhr3/1NTKq/I2o41UNFWSIQVrpACc5+NH1Oe3n3xPgBclgTnFmHHwmYK3Jh+8BMl3Mnj/9KR86ehKVdYhtUPp3bPsL14/Qkf/lNYC1J4GmJx0M62DYsp41ImCqTaouOhk5W9Ll54P6FWTFPyLvKXUN/6r15GZNXiDa9guKxgs/7AzYBXwcgQMwjE7WqIYs43ieHBomLwHiXljHnk1YTAkkt1F45T9TrfwI0n5TaBnnB+sAjjYiYQ4vpbN9dQZrPsR0cYhELRB/OqEy5Jr+Ie4AN10e3lTXildLx4EGgfP25yMxgE31KEF6VRycpdeYRkUPJc7aDx5OTf8QyT4Kb2DKNMECAWYCVh13xGrWh89mlfnQchCtBzGun/HRqK5SiOzanlJx958w2zdz3u2A4mTQDDgTqOeOWD22a82B0Lgx1PfaS19HPlhO4VKqlSHh7FfJQ65K+qS9gz8NrhQoqvUv1IeTl4bS5V++Ov1oKYHVryhrIytvBZrLZWM1058FAV+c+QvdgClKEwLLBKw7M5FZwB5ilDtd36/UiviOwPaX8dmEnJQtK0O10z/NnKTrw1RUgsrUg0F7uCmoUqAjIlt/Y5de347eldEajoCoQJAUMHOsI2vbX/jyeE/1v6D/X7zepjDuizOEYO6WC3QwJFkf3s05/FFUDXN3CapRxD4up1TffF5tw6WGwuv7xW0fpmB772kOk4yL8x4NPG4FkgNMNyJkBb8Cj3FhgK0dA7S6UbQGmA2Jw4Ufv71Xvu2TfWTKvIUpqx288LwALOC6fJQGMEAewWoUd9EPMXWnLK9LgdFNWPNVZbPZby/3Vv2a4qpv09sU6E0bTVG70E8DcADnGpEyhZNzc+sHdQtCbGLEnPZ91lJ1ssCvDpfs9cwcTxBWKESDPwYQBOq/I1aPZZpVvfoN5Bpj6OkUlJhRopo31d7e/uA5koYvgTfwiMHCw4Ba27mpbgfwp2jX3xjZzE7qmPlfPVUd3N5i7vhx1+DZbDbb/uBOof5ryppAZLmfKVCOzSAyAeuGfMQWsFLHkdv6KQB5tRT35dh9Y5J5k0UDaG9+WXoKaAp7f0yhc8gJm0frzwSsk6Je/1J9OPHoaTYOcleX7P3g96CzxMGSCbRurH2KheMfhGKgJFBUU98t09aaTNQGkFmnW3mXJRMGfpO32k/QX4Bu91nRBLpfpkX+nDIomCLvYdYvB1nhV4ML6sMJwVezwlfz2J+VPcrrDSmnILqQJtve3rVPdAxQu/0zJdtC6SyB4q/G9dXhA47LR28AC1pYgdjXIGDVCuvW+9j+dpXer6lgAi3ffojx/BOpoektJq7vTMCy3jRi4AH+8Z18t88/4mUdAjOUHvIES5aoDJrA0r1eKceUaD+mokLUayT+g8C0/XEYQK/e6vPLA/ROCrgiIqvHhDqqKsSBlh3Lc7JpUJIn3xSdJnvsZ5xvB3C/EQsdxJEu434BYvC06tFknBRS5wm6xeyVjODB5YoVNnOSmRHCu0SCyASsi/KxGMBqylVTHpoeB+N3mfzXGKruOq1sBdpbBpUhSROoamCUKR4m6F8Osqyn41l/o7OFeJwZUg27flOuMCmHzdK/YHap2m51sL355ceJs0B5QaiwqMB/JmDdnonHADIbbL0IwDziY3eGsYcM0T5Ks6mpsBtsfVlc6a0aDiKYGuX67R/78gBHGDExjyjllbeKkM+ZbrEv/6SfYTXU1VXlnPDkjbIBQYJ2MFO4Z6j1DZ/ou4AQB0OSLmC2z+rfAIZOS6xJY0g9XVeqGnNXMoGufaKdgKw42JR1EVelke/oO4B7jdg4Xt7lo5HjE0XcGn0l3CIg3SGUcmWofd2FVPmPKdonmDLReK92ddB1mdg8gLGN5arlzYJ6u3j2tXL0loS915RvFMtbgZZ1n3pnBJjSRhHZIMHKh3/WdQA3GjGyuf5yD73IrCo2J2OFutBcY95otRdob2+fsoU8BlKowrV2oxkErPn5GA3gVnmzpVY/l6qCzGcXEqvDlDoRJnOHkhdofnCmoC3EFPWMS8+DKx/+Ts8BnBbn+hv5bnJqj+Kx5T3urA0lNZTY/+g5YspxWRna97jsieZME3fFEK275cIeDEnlASuC2OJrN/NLe08ZNxYxqobU+w+RKlCsGRonfqTFvkF1gKARBKyvxeoAhtoEiUYL4mGkCvN0dgv6VkX2m1PlzoNuoFgzZApaSU1pdmCKZsjl9vLFAOuVmA0gM0Vvb6d64DQGfWjWlDPnlVCHzJKANOQFRMqQqe4tFHqNTxJdCuTmLUYWxUjvWDs6Rvefbukfc24J67aDcs2QbF6EKUoRxV3G3CBgfZCP2QOUrpEh53urRVtWLTnzGIERIsgJg6x7cCQ5YUvHp6K7Q6jBsTU55E+4DuA7RuystNk+QGfki25Rh02riIxX9NGS5rWByXtlMcDMSUfK1xgF84LRaSPzsRvAkqziliftIZCc03nqkiL9BlTOCSFZTlzlBX61V1EoZKrGC5o6QcCyTjcSwG6bPaCDTsm5ewR/xWY21QhGT7WghhuUtoPZhecorpAzZRMlqkyClQlYF+cTYACr9N5+mxjxRywQb5Om9zlY1Qn0XJGhTqKCF3h5p/QGQdG1op6aoU8YDuDjJKy/saDZRxqtPcyBknP1CohtmYJEHgbZygjnqhnaOE46F8ZU1wYxzwSsoxNhAMYihUhm0xe3sDsJOYfF/DsqbOZ21dcwq9IRQfdG70gpcQWJaKM4iwoC1lf3J2L9jSf1Bv2zJgH4qxRRjwjRnDLir9mkuqu4vX32BfJJgmZO0TlsMjKByAZDkmpgB/VOaT5Xar2fV/ClmY6qKtZUsqJQ3KzqKm750j5ZjYh42Bz/TMCKbjAkxeu8UT/Ek66pFBKbPp4ozBxK76PqYaiCfN2nqlFRAhdgMs8EzswnxQB6WvzV8DMHhiu7O3XGVPoYFqV1M4L4nLCl5Z8/FY+PNUWzhap//helA3g3MQZg/K2td02Mz8s9qPJ97Slx+iIUNfBIeFTY3r5wubJP3JSNkfu6ygKOSIwB5Hs5jVcqOU95/MuyD8VOkH2ur3s7Ma9kreQFHlyuaheQzBbLrbXkDuByIznku+ooCVE3+epqgFR8Z78a4+jKZikU5e3gUCuRbHK4AHkmYE3PJ8gApvo6ZmWmBSx5ibWSjDohnQG27N1DuZVop7g6WFg6PGgeP0xqKRBZHy7f9vvI9zX2FzZz5piymUFzsoWyO6VKF2jdOI66eKbWFSyXuADr3EySDCAzx+etAfKxIOp6ML1SE86UYY1Qn2W1xAkKiNvbZ2+UbPmEgqD8glHL+jcjUWxiN2rqZdv8lN33zFlOi4pPhUDUStR1gWyymGRzKMwErD/lExUCjPxshjO1OZs8LVNgXQSh68jp0yxb2eyk8kJFWWCfYmSIt89YFAQs6wYjYWy3mfV5jKo/P7V8+pNgmFkfW2NSJCS1gWD376T9YQKPIMoE3huZT5gBjNYbG13PyA9mhY5uryd75qnmkAHRbIGWhVtkPSKCn+7xOoA1SVt/w1jI3IXTDQHUjl8588tm+X5/FcgMLZGYM1ItCyz3dAbItgHeIJCMUiA3h9F1N9zx8rprxywtlKYD/joQ5HsTcuR1yQtUKUPCdpEhwzi/1gEcl7z1L9WH6/XbKY9/NCOAj1FS5GFCHdIP8XfK44d3EgeE5d+rCQLxDIak2MqURqi2YEYUpq1AZ24hSzXkDg9htCK7TEB880jtBXMz3es/bX8SDWCAe5UDf56zj7YB6egAvYMonnDF2aXY8uHDBWZfIL1IoJqbqgeHWPfnk2gAmR0atRxExGYq8TZXENCpIOL2hDK/I5WaVfQCX9qoGB1R+e+e6i3AXUYiuUI5Etj32C7NGKBT+cmbW0uIv3Udf5bmDO0TlQu6XcE5VZnA0/lEegDBNTKKsR3KsY2al4FzhntIAkG9zaqq70+VItaMH578kDwRNGsyAcu600goX+Sf4tm0yyUWihjnqdFqqigN5VaJaSfQocYAAAZLSURBVAyllcyeXbhXNVXWlQnENxiSoi1LzX7jn8zy6/jpbSaj9V/ntFdrMgUxbrBSP9zS8uBeYY9YxSC2WIMOYEY+qQZgrCMDPrFPpmfyUH/Kv1rAtDjqygHVkCyhIxjqIti8UzlE8I+DFnBvcg1gro9jYO7VX3y3QXah8obK0cOHOLeQ0qciVUcEzUVlKCcZLVsKAtbDyV1/49AW5RZITwRgqsmctD00B8/PNBSJgFscHCcdIpTbWXAB1o0JNoDMevYOnjfqW3HKQmTvjBFF2pVfnPsppbOQpA7RLQ62TNwovlwsV8oELGu+kWB6WakPPfXB77ExrfPzTnnI4jHJtUKsUwVFLlP0Ah3/IW0X+Gmf9WE+yQaQ6dI4LFU/NnQZqJ+zO5uby/k+ZfI5uc51Trj05doDgkE7eNyKeTAkyVT9nI+lGShnQfAeYrL2S6sqVHMDKjzrlqjDRWXoU/EEgT++k0+0BzA6bfqeNsV4ML29me5xMLcxmRxsYysjAHMMkvQbryhDpneSwKj/Tfb6D7YJqpJ9nwV9TH2JITiy/rc/P84PTYwjgpZ/2uJVBXf2TEi4ASzWPC9jhWTWKTOZ9DNWnzHrmjmPmKEUSyqJhiygec7O2kPCF4zEs4gzrE34NPsp8tF6zsijIq1JJ+z5BqwNrmA3OKgMmVWKwD+OzCfeAA7tIipptGOAqgyfdeDGOKghu5t95RecY1G5gRW3Aq0XVD3/M58wUsCJLRqnuT40fFalmEY5CMMYycyCmCemKm9SV5Bn29snXlBxAQPHpMEAMoexKurpugs/Vfc2QwGs/5Vo38adSUDVsZXmDA16gRMmGOlgtdbsFfabrLH30itRV/cF1JdXEvOH6ekkRRtYWjCBW/P5lBhA5iO+9q9fCqaY2sgoyJRFgPokBO34olFRVvICV+97Pp8WB1AYH8udAcKauuN/vJD+rC92L7qOjdBDEZRFAwWaP8qnyQAyvV3Mu5xtxluijgA6YwOk23DdI2J646KTJlBKSDa7Y7GRMlxhQDVk2XfnhryiX1llymvqteniD5+ZhzoLlPydlZmMkToL2LZBt2Kfd4zI8eq6FkQfGXOrytidLnQ5Y+Xjjk3pW/6iCbQtauWlUMxZgv4HjVBKHXvGEG8giX5npMJ2p/Rm0rn+hpHJZDbdvVTVCMDq7yNrP2SHrIz6TR/jSZjTD4hCB/U9l5VfTlzWk9rlL9tA566tU1rrUnXUlzzqFmHQp7u+T56ZR36sgrLm3VO2zhvIpHv5K0ZQsIMl81Ydv2jz0m5NOVdjuxhcBJBNK1NfOMHasiiEiKzdum7Pou1zN7UdXHrPGmDxa80gk8mMXNy7a/XWDVO6WlRqgI8YII3RPk+l2fmB1vR7gd21T9y9YeXqt3oHFlTeJKOByVRsoeeQ9zetWr1i0earO1p9XxLBc9G8c6n6goCWztjatftn67dOXXVr70DnMFh00i1kMtuW9B4296O7N+xZOjurU4KlU/+vcOXcTQH59CtC2snrFm5Yuf2bb807cfTQ920My4UnzKFncduxy17fvmjOlI5u7jRAm5Nm1Fnppd3lkG3t2LF50YrVyzY9eUhPlbVj0fmeIdO5uK1316qpK1Zu2DO5o1vnLhjtKiJec7ry9Ke1a/LCDYtWTJ172Ly2inPHotdpDPkqi+gc3da76bBlc1cfv2LlovWbF+5Y2jGxlc4OqVIvWXen/ISodXbH0qsXbt6waOWKj6bOveK1Tb1tizux3hG7h6Go0bl4SVvvsbuWrVp9/FfuXrR+zp4pO66evHTduo6uroknd3e3NrOLywpJeGt398kTu7o6OtZNnrx7x5Q9c9YvunvF8a/PXbZrU2/bksUH9wi+hMJXhtWJ0y5kxlHFgp6ezs5to0cfMjCw5MS2J9/v7e19sq3txIGBgdGjt3V29vQsoF4B65z2JLS4gJmyKyn/CAAAAAAAAAAAAAAAAAAAAAAAAAAAAAAAAAAAAAAAAAAAAAAAAAAAAAAAAAAAAAAAAAAAAAAAAAAAAAAAAAAAAAAAAAAAAAAAAAAAAAAAAAAAAAAAAAAAAAAAAAAAAAAAAAAAAAAAAAAAAAAAAAAAAAAAAAAAAAAAAAAAAAAAAAAAAAAAAAAAAAAAAAAAAAAg8fw/uDFxEUArG9EAAAAASUVORK5CYII=;" parent="1" vertex="1">
                    <mxGeometry x="860" y="-340" width="130" height="130" as="geometry"/>
                </mxCell>
                <mxCell id="38" value="&lt;a href=&quot;https://docs.docker.com/desktop/setup/install/windows-install/&quot;&gt;Setup docker in your system&lt;/a&gt;" style="rounded=0;whiteSpace=wrap;html=1;" parent="1" vertex="1">
                    <mxGeometry x="-740.73" y="-220" width="120" height="60" as="geometry"/>
                </mxCell>
                <mxCell id="43" style="edgeStyle=none;html=1;" parent="1" source="40" target="32" edge="1">
                    <mxGeometry relative="1" as="geometry"/>
                </mxCell>
                <mxCell id="40" value="" style="shape=image;verticalLabelPosition=bottom;labelBackgroundColor=default;verticalAlign=top;aspect=fixed;imageAspect=0;image=data:image/svg+xml,PHN2ZyB4bWxucz0iaHR0cDovL3d3dy53My5vcmcvMjAwMC9zdmciIHZpZXdCb3g9IjAgMCAxMjggMTI4Ij4KPHBvbHlnb24gcG9pbnRzPSI4Ny43MDIgMTM3LjY3IDAgMCA2My4yNSAwIDExOS4wMiA4OC42NDYgMTc1LjI0IDAgMjM1Ljc5IDAgMTQzLjk4IDEzNy42NyAxNDMuOTggMjI0Ljk1IDg3LjcwMiAyMjQuOTUiIHRyYW5zZm9ybT0ibWF0cml4KC4yNDgwNSAwIDAgLjI0ODA1IC41IDUuNjI4NykiLz4KPHBhdGggZmlsbD0iI2NiMTcxZSIgZD0ibTgyLjQyOCA0OS4xNDloLTI1LjI2NmwtNS4xMzg4IDEyLjQwOGgtMTEuMTg4bDIzLjY1OS01NS43OThoMTEuNDQ0bDIyLjY5OSA1NS43OThoLTExLjk1NmwtNC4yNTI1LTEyLjQwOHptLTQuMTk3LTExLjE0LTcuNzQ1NS0yMC40NzYtOC42NDEyIDIwLjQ3NnoiLz4KPHBvbHlnb24gcG9pbnRzPSI4Ny43MDEgMjUwLjE4IDg3LjcwMSA0NzAuNjUgMTM1IDQ3MC42NSAxMzUgMzE4LjU3IDE4NC41MSA0MjAuNzkgMjIxLjc0IDQyMC43OSAyNzIuOTQgMzE0Ljk4IDI3Mi45NCA0NzAuNiAzMTguMzIgNDcwLjYgMzE4LjMyIDI1MC4xOCAyNTYuMzYgMjUwLjE4IDIwMS4zOCAzNDkuODggMTQ5LjAyIDI1MC4xOCIgdHJhbnNmb3JtPSJtYXRyaXgoLjI0ODA1IDAgMCAuMjQ4MDUgLjUgNS42Mjg3KSIvPgo8cG9seWdvbiBwb2ludHM9IjUxMiA0MjIuNzQgNTEyIDQyMi43NCAzOTUuNjQgNDIyLjc0IDM5NS42NCAyNTAuMTIgMzQ3LjQ0IDI1MC4xMiAzNDcuNDQgNDY5LjY1IDUxMiA0NjkuNjUiIHRyYW5zZm9ybT0ibWF0cml4KC4yNDgwNSAwIDAgLjI0ODA1IC41IDUuNjI4NykiLz4KPC9zdmc+;" parent="1" vertex="1">
                    <mxGeometry x="-500" y="-365" width="128" height="128" as="geometry"/>
                </mxCell>
                <mxCell id="44" value="curl -LfO 'https://airflow.apache.org/docs/apache-airflow/2.10.3/docker-compose.yaml'" style="rounded=0;whiteSpace=wrap;html=1;" parent="1" vertex="1">
                    <mxGeometry x="-560" y="-237" width="214" height="97" as="geometry"/>
                </mxCell>
                <mxCell id="70" value="" style="fillColor=#10739E;strokeColor=none;" parent="1" vertex="1">
                    <mxGeometry x="1120" y="-330" width="30" height="100" as="geometry"/>
                </mxCell>
                <mxCell id="71" value="" style="shape=mxgraph.arrows2.arrow;dy=0.4;dx=16;notch=0;direction=north;fillColor=#1699D3;strokeColor=none;" parent="70" vertex="1">
                    <mxGeometry x="3" y="30" width="24" height="70" as="geometry"/>
                </mxCell>
                <mxCell id="72" value="Delhi" style="text;html=1;align=center;verticalAlign=middle;whiteSpace=wrap;fontColor=#FFFFFF;fontSize=10;strokeColor=none;fillColor=none;" parent="70" vertex="1">
                    <mxGeometry width="30" height="20" as="geometry"/>
                </mxCell>
                <mxCell id="73" value="" style="fillColor=#F2931E;strokeColor=none;" parent="1" vertex="1">
                    <mxGeometry x="1155" y="-350" width="30" height="120" as="geometry"/>
                </mxCell>
                <mxCell id="74" value="" style="shape=mxgraph.arrows2.arrow;dy=0.4;dx=16;notch=0;direction=south;fillColor=#F5AB50;strokeColor=none;" parent="73" vertex="1">
                    <mxGeometry x="3" width="24" height="80" as="geometry"/>
                </mxCell>
                <mxCell id="75" value="Pune" style="text;html=1;align=center;verticalAlign=middle;whiteSpace=wrap;fontColor=#FFFFFF;fontSize=10;strokeColor=none;fillColor=none;" parent="73" vertex="1">
                    <mxGeometry width="30" height="20" as="geometry"/>
                </mxCell>
                <mxCell id="76" value="" style="fillColor=#AE4132;strokeColor=none;" parent="1" vertex="1">
                    <mxGeometry x="1190" y="-360" width="30" height="130" as="geometry"/>
                </mxCell>
                <mxCell id="77" value="" style="shape=mxgraph.arrows2.arrow;dy=0.4;dx=16;notch=0;direction=north;fillColor=#E85642;strokeColor=none;" parent="76" vertex="1">
                    <mxGeometry x="3" y="80" width="24" height="50" as="geometry"/>
                </mxCell>
                <mxCell id="78" value="MUM" style="text;html=1;align=center;verticalAlign=middle;whiteSpace=wrap;fontColor=#FFFFFF;fontSize=10;strokeColor=none;fillColor=none;" parent="76" vertex="1">
                    <mxGeometry width="30" height="20" as="geometry"/>
                </mxCell>
                <mxCell id="79" value="" style="fillColor=#12AAB5;strokeColor=none;" parent="1" vertex="1">
                    <mxGeometry x="1225" y="-310" width="30" height="80" as="geometry"/>
                </mxCell>
                <mxCell id="80" value="" style="shape=mxgraph.arrows2.arrow;dy=0.4;dx=16;notch=0;direction=south;fillColor=#64BBE2;strokeColor=none;" parent="79" vertex="1">
                    <mxGeometry x="3" width="24" height="30" as="geometry"/>
                </mxCell>
                <mxCell id="81" value="BLR" style="text;html=1;align=center;verticalAlign=middle;whiteSpace=wrap;fontColor=#FFFFFF;fontSize=10;strokeColor=none;fillColor=none;" parent="79" vertex="1">
                    <mxGeometry width="30" height="20" as="geometry"/>
                </mxCell>
                <mxCell id="82" value="" style="fillColor=#23445D;strokeColor=none;" parent="1" vertex="1">
                    <mxGeometry x="1260" y="-300" width="30" height="70" as="geometry"/>
                </mxCell>
                <mxCell id="83" value="" style="shape=mxgraph.arrows2.arrow;dy=0.4;dx=16;notch=0;direction=north;fillColor=#2F5B7C;strokeColor=none;" parent="82" vertex="1">
                    <mxGeometry x="3" y="10" width="24" height="60" as="geometry"/>
                </mxCell>
                <mxCell id="84" value="CHN" style="text;html=1;align=center;verticalAlign=middle;whiteSpace=wrap;fontColor=#FFFFFF;fontSize=10;strokeColor=none;fillColor=none;" parent="82" vertex="1">
                    <mxGeometry width="30" height="20" as="geometry"/>
                </mxCell>
                <mxCell id="87" value="" style="group" parent="1" vertex="1" connectable="0">
                    <mxGeometry x="50" y="-150" width="540" height="177" as="geometry"/>
                </mxCell>
                <mxCell id="2" value="Weather API" style="rounded=0;whiteSpace=wrap;html=1;" parent="87" vertex="1">
                    <mxGeometry y="117" width="120" height="60" as="geometry"/>
                </mxCell>
                <mxCell id="3" value="Create a function to scrap the data" style="rounded=0;whiteSpace=wrap;html=1;" parent="87" vertex="1">
                    <mxGeometry x="230" y="117" width="120" height="60" as="geometry"/>
                </mxCell>
                <mxCell id="4" style="edgeStyle=none;html=1;exitX=1;exitY=0.5;exitDx=0;exitDy=0;" parent="87" source="2" target="3" edge="1">
                    <mxGeometry relative="1" as="geometry"/>
                </mxCell>
                <mxCell id="10" value="" style="edgeStyle=none;html=1;exitX=1;exitY=0.5;exitDx=0;exitDy=0;entryX=0;entryY=0.5;entryDx=0;entryDy=0;entryPerimeter=0;endArrow=none;" parent="87" source="3" target="9" edge="1">
                    <mxGeometry relative="1" as="geometry">
                        <mxPoint x="340" y="146.9999999999999" as="sourcePoint"/>
                        <mxPoint x="590" y="146.9999999999999" as="targetPoint"/>
                    </mxGeometry>
                </mxCell>
                <mxCell id="9" value="Tabulate the data" style="rounded=0;whiteSpace=wrap;html=1;" parent="87" vertex="1">
                    <mxGeometry x="420" y="117" width="120" height="60" as="geometry"/>
                </mxCell>
                <mxCell id="35" value="" style="shape=image;verticalLabelPosition=bottom;labelBackgroundColor=default;verticalAlign=top;aspect=fixed;imageAspect=0;image=data:image/png,iVBORw0KGgoAAAANSUhEUgAAAgAAAAIACAYAAAD0eNT6AAAABHNCSVQICAgIfAhkiAAAAAlwSFlzAAAN1wAADdcBQiibeAAAABl0RVh0U29mdHdhcmUAd3d3Lmlua3NjYXBlLm9yZ5vuPBoAACAASURBVHic7N13eFRF2wbwezebHtIISQgldEKRjoBCAInAKyC9igoRUEEUsIBiRUFQFARpioC0IE2UIkiHUEQ6gdA7pJDey5bvD8qn0lJm9uzZc/+ui8tC9pmHJGTunXPOjM5iscBW6XS6QAAhd35Vv/PLD4AHgBJ3fnkAcFCqRyIi0iQTgAwA6Xd+ZQBIAHDmzq/TAE5bLJZYxTp8DJ0tBQCdTmcAEAqgC4DOAMor2xEREVGxXAXwG4A1AHZZLBajwv3co3gA0Ol07gDa4/aE3xGAj6INERERyZEMYB1uB4KNFoslU8lmFAkAOp3OF0BX3H6nHwbAxepNEBERKScHwBbcXhn41WKxJFm7AasGAJ1O5wZgBIDRADytNjAREZHtSgMwCcBUi8WSZa1BrRIAdDqdA4BwAJ8CCJI+IBERkfrcxO15cp7FYjHJHkx6ANDpdF0ATABQQ+pARERE9iEawAcWi2WNzEGkBQCdTvc0bi9pPC1lACIiIvu2B8Boi8WyR0Zx4QHgzl39PwLoK7QwERGRNkUAGCz6qQGhAUCn05UH8DuAusKKEhER0TEAz1sslquiCupFFbqz5P83OPkTERGJVhfA33fmWiGEBACdTjcQwDYA/iLqERER0X38AWy7M+cWW7ECgE6nc9DpdN8AmAfASURDRERE9FBOAObpdLpv7jxiX2RFvgdAp9N54faNCf8rTgNERERUJH8A6GuxWFKL8uIiBYA7k38kgNpFGZSIiIiEiALQvCghoNCXAO4sOUSAkz8REZHSagOIKMrlgKLcA/AVuOxPRERkK/6H23NzoRTqEsCdOw/nFXYQIiIiki7cYrHML+gHFzgA3Hn2cBt4tz8REZEtygPwTEG3Di5QALizw9/f4HP+REREtiweQOOC7Bj42ABwZ2//PVB4h79ydRqhTO0G8AooA8+AIHgF3v6np39pGJyclWyNyKbk5+bgs0aBQmteX/cUXJyEbRxKpHq5+WbEJubh5q083LyVi5sJubhxKw9HzqTj0Ol0pds7BuDpx50dYChAoR+hwOSvNxhQuUlL1G7XFbWf7Qyv0mWt3QKRKskIxF4eBgYAov/w93FCnSr3///r8blYuzsBa3YmYNeRFBhNck7dfYS6uD1393vUBz1yBeDOdf9IsX09mnfpcggb/iHqdugJVy8faw5NZBeMuTkYU91VaM30HaEMAERFkJxuxKpt8Ziw4AquxeVae/jmj7of4HEBIBKAsIMHHsXV0xvPDH0fLQa+CYOzizWGJLJLDABEticnz4zvl1/HpIVXkZJhtNaweywWS/OH/eZD/0brdLousMLkb3ByRqsh7+CD3RfR+rX3OPkTEZHdcXHS453+5XF2VVOM6lcOzo5WCdRP63S6zg/7zQeuANzZUegEgBoSG4N3UHmEz/0NQTXryRyGSFO4AkBk+46dy0DX905Y47JANIAnLBaL6b+/8bC/0eGQPPlXaPgURqz9m5M/ERFpTt2qHtg/ryGaPeEle6gauD2n3+e+AKDT6dwAfCqzm8Y9B+L1ZdvhUZLbChARkTb5+zhhy/d18XIHsY/tPsCnd+b2f3nQCsAIAEGyumj/9ufo/fU8ODhyQ0EiItI2J0c95o4NwWdDKsocJgi35/Z/+VcA0Ol0vgBGy+qgcc+BCBv+oazyREREqvTBgGDZKwGj78zx9/x3BaArAE8ZI1do+BR6TJgtozQREZHqzXyvmsx7Ajxxe46/578BoIuMUb2DymPAD79y2Z+IiOghnBz1WDmxFsoHSHsc/l9z/L0AcGfP/zDRoxmcnBE+9zfe8EdERPQY/j5OWP1VbVn7BITdmesB/HsFoD0A4bGj+YDhfNSPiIiogOpW9cCwnmVklHbB7bkewL8DwEN3CyoqV09vtBn2geiyREREdm3My8Hw9ijIeX2Fdm+u1wOATqczAOgoepRnhr7PA32IiIgKyaeEAaNfKi+jdMc7c/69FYBQAEJnau/S5dBi4JsiSxIREWnGG73KolyA8OO9fXB7zr8XAITf/R82/EMe7ENERFRELk56fDAgWEbpLsD/BwCh1//1BgPqdugpsiQREZHmdH/GHwYHneiynQFAr9PpAgEIvdBQuUlLXvsnIiIqJp8SBoTW9xZdtrxOpwvUAwgRXbl2u66P/yAiIiJ6rC4t/WSUDZETAJ4V/kQhERGRJnVqIS8AVBdZsVydRvAqXVZkSSIiIs0q6++MhiElRJetLjwAlKndQGQ5IiIizatfXU4AELq24BUgZftCIiIizSpTSvhhen56AB4iK3oGBIksR0REpHlBfsI3BPLQAxC6ruAVyBUAIiIikYJKCQ8AJYQHAK4AEBERiRUk/hJACfGXAPxLiyxHRESkeYElhQcADz0AB5EVHRyFN0lERKRpTo76x39Q4TgIr0hERES2jwGAiMjOXY3LwY1buUq3QTbGoHQDREQkVkxiHuauuYmD0ek4GJ2O+OQ8AEDpkk5oVNMTjWuUwOAuQfDzdlS4U1ISAwARkR1ZvDEOo6acQ3K68b7fi0nMw9rdCVi7OwHTl1/HtHeqocczpRTokmwBLwEQEdmB5HQjur53AgPHRT9w8v+vWyn56PvhSfT+4CTSMh//8WR/GACIiOzAW9+cw7rIxEK/bvWOW3hn2gUJHZGtYwAgIlK5NTsTEPFnXJFfP39tDLYcSBbYEakBAwARkYolpuZj2Fdni13ntYlnkJFtEtARqQUDABGRiv22M+HeXf7FcSU2Bxv3JQnoiNSCAYCISMUOnk4XVuvvU2nCapHtYwAgIlKxwwIDwMFocbXI9jEAEBGpVL7RgqgLmcLqHT6dDotFWDmycQwAVGAmYz7yc7KVboOI7sjMMSE33yysXka22Hpk27gTICE9IQ5JVy8iPSEOGQnxt/+ZGI+M//x3dmoyLBYL9A4OcHLzgLNHCbi4l4Czhyd8ygajVIWqKFmhCvyCq8CvYlWU8AtQ+o9GREQPwQCgQXlZmbjw106c3b0Z5/ZsQeyZqEK93mwyISc9FTnpqUi98/+uHv3rvo/z8C2Fik+2QKUnQ1GpSSiCatSFTs9FJyIiW8AAoAEWsxnXThy8PeHv3ozLh/fBlF/8x4YeJyPpFk5sXI0TG1cDAFxKeKFSk1DUfa4narfrAmf3EtJ7ICKiB2MAsFMWiwUnN/+Gw78uxrm925CdqvwuXznpqTi1ZS1ObVkLg7MLarR+DvU69UHNNh3h6OKqdHtERJrCAGBnTPl5OPTrYuyY8zXiL5xWup2HMubm3FsdcPX0RovwEQh9ZQRcSngp3RoRkSYwANiJnIw07F8yB7vmTUVa3E2l2ymU7LQU/Dn1U+yeNxWhg0ahRfhbcPHwVLotIiK7xgCgcum3YrFr3lTsWzwbOempj3+BDctOS8Gmbz/Grp+moOXgt9Fi4Ju8T4CISBLekq1SqbE3sOL9IRj/dAVsnzVJ9ZP/P2WnJmPj5A8x/ukK2DpjAnIzM5RuiYjI7jAAqNCR35Zictva+CviRxjzcpVuR5qslCT88fVYjG9eAdtmTUR+dpbSLRER2Q0GABXJSk7EomG9sOStF5CdlqJ0O1aTlZyIDZPex3edn0Tc+Wil2yGNuBKbgz/2JeLE+QzkG7k/rtLyjRYcO5eBP/Yl4mpcjtLt2AXeA6AS0ds3YMXoQUiLj1G6FcXEnj2J755vjO7jZ6Nh1/5Kt0N2aOGGWCzaEItj5zKQnG689/+dHPWoVckdbRr74MOBwXB3dVCwS+3IyDZh/Pwr2HIgCacuZSHvH9sU+3o6ol41DwzoGIi+bbnraFEwANi43MwMrB3/NvYv/UHpVmxCXlYmIka+iIt/7UTXz6bD4OyidEtkB27cysVrE89g476kB/5+Xr4ZR86k48iZdKzcFo+fxoYgtL63lbvUlu2HkjF4whlciXnwu/2ktHxsO5iMbQeTsWLrLcx4rxpKl3SycpfqxksANuzywT349n91Ofk/wF/L5mJal6ZIuHRO6VZI5dbsTEDdF/5+6OT/X5dv5iDsjaMYNfU8TGZeGhDNaLJg+ORzaPfmsYdO/v+1dncC6vY7gA17EyV3Z18YAGzUrp+mYEavUCRevah0KzbrZvQxTOnYEEfX/aJ0K6RSV+NyEP55NFIzjI//4H+wWIDpy68j/PPTDAECGU0W9P/4FGavvlHoY4mT0414+dNoxCTK3+bcXjAA2KAt34/H75+PgsXMYzkfJzczHYvf6IPVHw2z6yciSI7XvjyL9CxTkV+/dFMcQ4Agdyf/VdtvFblGSoYRQyedEdiVfWMAsDEbJ3+IjZM/VLoN1dm7aCZm92vDRwWpwBasi8HmAwVb9n8UhoDiEzH537UuMhERf8YJ6Mr+MQDYkLVfvI0t349Xug3VunxwDxa82g0mY77SrZAK/PS7uCdqlAgBsYl5WBcp/pr377sSEJ9svWV0kZP/XfMEfm3tGZ8CsAEWiwW/fjQMexfPUroV1TuzaxMiRr6EF75bAp2e+ZYezGS24Pj5TKE1l266/a5z3kchcNDrhNYGbu9LsPNwCiKPpWL30RScv5YtfAwAeOHjUwCAauXd0KKeF5rX80bL+t4oF+AsfCwZkz8AHD2bAYsF0In/MtgVBgCFWcxmLB89CH+vmK90K3bj6NplcPcpia7jvle6FbJRZ65kISun6Nf+H0Z0CIhLysOKrfGI+DMeB06mFbteYZy9moWzV7Pw0+8x0OmAZk944YV2AejRphR8PR2LXV/W5A/cvhfg0s1sVCrDY8YfhQFAQWajERGjXsKR3yOUbsXu7Fk4A+6+pdB2xCdKt0I2SPS7/38qbgjIyTPfnvQ3xWPbwWSbuLfAYgH2Hk/F3uOpGDn1PNo39UW/9gHoHOoHg0Ph/4wyJ/+7jp/PZAB4DAYABf02boRNTf56vR7169dHcHAw/P39ERAQgMDAQPj7+9/7p06nQ1xcHGJiYhAXF4fY2Nh7v2JiYnDixAnk5trG3fh/Tv0U7r5+ePqlYUq3QjamTCm5G8YUJQRkZpvww5qbmLL0mk0/ypaXb8bvuxPw++4EBJd2wTsvlMOAjqXh4lSwS27WmPwB+V9je8AAoJCoTb9iz8IZSreBEiVKoE2bNmjfvj3CwsJQsmTJx76mZMmSqFmz5gN/LzMzE1u2bMG6deuwefNmpKYqe0rhmk/fhLtPSdTr1EfRPsi21KtWAjodCv2seWEUNASkZBgxY8UNTF9+HYmp6rqB9UpMDoZPPocv5l3BW33K4tWuQfB0f/i0Yq3J3+CgwxNVPKSOYQ90AIT+Ffj8eDJcPblF5qMk37iCb5+rj+zUZEXGL1u2LDp27Ij27dvjqaeegqNj8a/nPUh+fj4iIyOxfv16bNiwATExytyZ62BwRPi8tage2k6R8a3NmJuDMdXFLn2m7wgt8Ds8tajZ5wDOXZX/2Gi/dgEPDAFGkwXTl1/HF/OuIC2zcBsR2SpvDwM+GVwBr3cv88A/rzUmfwB4oooHDi9sJH0ca0rJMKJU20ihNe3rb7QKmI1GLB7eV5HJv1y5cpg2bRqOHDmCL7/8Ei1btpQ2+QOAo6MjWrdujcmTJ+PkyZNYtmwZQkJCpI33MCZjPha/0Qfpt2KtPjbZrjaNfKwyzoMeEdx7PBWNBxzEe9Mv2M3kD9yepEZOOY+m4Yf+ddOiNSd/AGjT2DpfW7VjALCyjd98hCuH91l1zNKlS+Obb77BwYMH8eKLL8JgsP6VH51Oh3bt2mHPnj2YPn06goKCrDp+dloK1nz6plXHJNv22ZAKCLTS4TF3Q0BcUh4GjT+NVq8fQdQFeTciKu3o2Qw0H3IYr086i/jkPKtO/mX9nfFReLBVxlI7XgKworO7/8SPL7WHReaFx3/w9/fHyJEjMXDgQDg7i3+GtzhycnIwe/ZsTJkyBWlp1nu8KfyntajZpqPVxlMCLwEU3G+7EtBjTJTVxnM06JBvVP6ufmuy9p957Td10L6Zr9XGsxZeAlCx9FuxiBj5ktUm/969e+PIkSN47bXXbG7yBwAXFxeMGDECR48exauvvgqdlXbsWP3RMORmZlhlLLJ9nUP9rHqWvNYmf8C6f+YBHUvb5eQvCwOAFVjMZiwd+SLSE+TvT+3k5ITJkydj9uzZcHNzkz5ecfn4+GDixImYP38+XF3lP7ObcvMqNn7zkfRxSD1+HFsd7Zpy0lC7Ti38MOPdqkq3oSoMAFZwcPVCnIvcIn2coKAgrF+/Hq+88or0sUTr3LkzNm7ciDJlykgfK3LBNFw7flD6OKQOzo56rJpUmyFAxZ5v4YdfxteCkyOntMLgZ0sys9GILdO/kD5OaGgodu7ciUaN1PvoS506dbBt2zY0btxY6jgWsxkrxgyG2Wg/d19T8dwNAVw+Vp/nW/hh2fhacDRw4//CYgCQ7ODqhUi8ckHqGEOGDMHq1avh5+cndRxr8Pf3x9q1a9Gnj9yNe26eOopdP02ROgapi7OjHisnMgSoSedQTv7FwQAgkTXe/ffu3RuTJk2Cg4OD1HGsydnZGbNmzcI777wjdZxNUz9F0rVLUscgdbkbAv7X7PE7YpKyOof6IeILTv7FwQAg0d8rF0idYFq3bo3p06dLq6+0sWPHolu3btLq52dnYeuMCdLqkzo5O+qxYmIthgAb1qUlJ38RGAAkMRnzsfX78dLq16lTBwsXLpS6k58tmDFjBurXry+t/pHfI5CTYd1jVsn23Q0Bzz3FEGBrurT0w9LPOfmLwAAgycEVC5B0/bKU2uXLl8fy5cvh4WH/h124uLhgyZIlCAiQ86x2XlYmDv+6WEptUjdnRz1WfMkQYEu6tirFyV8gBgAJTMZ8bJH07t/HxwcrV66UNiHaotKlS2PJkiXSNjTat2S2lLqkfk53QkCHp9UZAtwcHFDZ3R3NS5bEU76+qOjmBleV3i/UtVUpLBlXk5O/QDwOWIIDy+ch+cYVKbXHjx+PqlW1t9lFw4YNMX36dAwZMkR47ZjTJ3Dl8D4EN2gmvDapn5OjHssn1EKvD05i/Z5Epdt5oNIuLugYEICWfn4o4+KC0nd+eT7k3I/U/HzE5OYiJicHN7KzsSMxEetiYxGXm2vlzgumW6tSWPJ5TRgcOPmLxAAgwV8RP0qp27RpU+mPx9mynj17Yvv27YiIiBBee9+S2QwA9FB3Q0DvsSexLtI2QkA9Ly90CgzE84GBaOjtjcJMjV6OjvBydETIncuI/cuVgwXAX8nJ+D0mBmvj4hBlxTM6HoWTvzw8DEiw1Ngb+KJZOeF7/hsMBuzYsQO1atUSWldtbty4gYYNGyJX8DsVg7MLPjlwE65e6j9GlIcByZOXb1Y0BJQwGDCqcmW8EhyMcpK3zr6UlYUfLl/GdxcvIttkkjrWw3RvXQqLx3HyB3gYkCqc3PK7lAN/Bg8erPnJHwDKlCmD119/XXhdY24ODq76WXhdsi9OjnpMf6ca9HrrTkhOej2GV6qEC2Fh+DQkRPrkDwAV3dzwZc2aOB8WhiEVKsBgpQO77nI06DDtnaqc/CViABDs1ObfhdcMCAjA+++/L7yuWo0YMQI+PuLfqe9bMkd4TbI/H8+5BLPZOifc6QD0K1sWp9u0wbQnnkApBU72DHJxwZy6dXHymWfQMyioUJcaiiPfaMEnP1y20mjaxAAgUG5mBs7v2y687hdffIESJUoIr6tWXl5eUnYJjL9wGhf+2im8LtmP3UdTsOiPWKuMVc/LC4dbtcKShg1R0QZO9qzm4YHljRvjQMuWqGWln0c//X4TB07axr0I9ogBQKAzOzfCmCf22nSlSpXQo0cPoTXtwaBBg1C+fHnhdU9sXC28JtmHfKMFb3x9zipj9SpTBntatEA9Ly+rjFcYjby9sS80FM8HBkofy2IBhn19FiYrrbhoDQOAQCe3iF/+7927t/Ca9sDJyQljx44VXvfCvh3Ca5J9+G7ZNZy6lCl1DB2AL2rUwC+NGsHNhp/XL2EwYE2TJvigWjXpYx09m4FZq25IH0eLGAAEMZtMiN62XnjdXr16Ca9pLzp37gw3wUujsWdOICslSWhNUr+ktHyMny9nb4+77k6qY60wqYqgAzC+Rg1ENGokfXOhz368jLRMHt8tGgOAIJcORgqfOJo2bYoKFSoIrWlPnJ2d8cwzzwitabFYcPHALqE1Sf2+X3EDGdnyHoULdnPDfistq4vWp0wZ7G7eHEEuLtLGSMkwYtaqm9LqaxUDgABpcTexd9FM4XW5/P94zz33nPCaF/bvEF6T1Csj24Tvl1+XVt/DYMC6Jk1QU8U3+jb09sb6pk2lXrb4btk1ZOUosx+BveJOgEUUc/oETm75HSc3/4brxw8Kf/bf2dkZXbt2FVrTHrVr1w4ODg4wCdyo5MqhfcJqkfrNWX0Tyelylp/1Oh2WNGyI2p6eUupbUz0vLyxo0AC9//5b7O5yd9xKycdPv8dgeK+yEqprEwNAAZmNRlw8sOvOpP87kq5dkjpe+/bt4WWDdwDbGl9fXzRp0gR79+4VVjP+wmlhtUjdcvLMmLrsmrT642vUUOWy/8P0DArCierV8fmZM1Lqf7PkGl7tGgQnRy5ei8DP4mMY83KxZ+EMjG9eAbP7tcHued9Jn/wB4KmnnpI+hr343//+J7ReTkYa0m9Z51lvsm3LN8cjNjFPSu0XypbFGDs82OuzkBB0LV1aSu0bt3KxctstKbW1iAHgIUz5edi7aCa+bFkFv378BlJjrfsYSvXq1a06nprJuA+AqwAEAEs2xUmp+6SPD+bWry+lttJ0ABY2aIAnJF3WiPhTztdEixgA/sOUn4e9i2fhy9AqWP3RMKTGyLv551FCQkIUGVeNKlWqBF9fX6E14y/KWcIk9biZkIsdh1OE13XQ6bCwQQO46O33x6+HwYDFDRtCL+H8gC0HknErJV94XS2y3+/AIji4auHtif/DoUiJkXfd73G8vLwQEBCg2PhqJPrzdf34QaH1SH2Wb46Xsuf/gPLlUf3OMbz2rI6nJ/qWKSO8rtFkwcqt8cLrahEDAIDczHQsebMflr39sqIT/11c/i+80oKvOf61bC6Wvf0ycjPThdYl9Vj6p/hJxlmvxyca+vv9eY0acJSw0hEh4WujRZoPANdPHMKUDg1w5PcIpVu5h8v/hSdjxeTgqoX49rn6uHrsgPDaZNsuXM/GkTPiw9+wihWtcpSvrajo5oZXg4OF1913IhXX4sSeu6JFmg4Au+d9h+ndnkLC5fNKt/IvDACFFyjpUarEKxfwffensXXGBFjMZiljkO2Rce2/hMGA91Wyza9IH1avDncJGwTtPCL+a6Q1mgwAWSlJmD+4M34bNwKmfDmP+BTHE088oXQLqiP6EsA/mY1G/PH1WMwd8BzysuQeBkO2IfKo+Mnl7SpV4OfkJLyurQtwdsbIypWF15XxNdIazQWApGuXMKVDA5zcLP7kPhGcnZ3RuHFjpdtQHWvcNHlm1ybMeSEM2anJ0sciZe0+miq0ng7AYAlL4WoxRMKZJqK/RlqkqQCQEnMNs/s+g+Qbck/1Ko4mTZrA2dlZ6TZUR+YKwD9dObIfM3qFIi0+xirjkfVdi8vFldgcoTUbeHtLPSzH1pVzdUU9wTubnr2ahfhk21vBVRPNbAWcFh+D2X2fQdL1y0q38kgtW7ZUugVVCrbiu6vYM1GY0aM5hizejJLlK1ltXHo0s9mCPGPxH9vbfkj8Co89bfdbVJ0CA3E0Vey79h2HUvB8qF+x6zgZdNDrxe9ZYOs0EQAykm5hTr82Nnez338FBQUhPDxc6TZUyd/fH56enkhLS7PKeIlXL2JGj+Z4c81+eAeVt8qY9G8pGUZs3JeEg9FpOBidjiNnMmz2tDgGgNsBQPQZAS98fEpIHXdXB9Sv5oHGNT3RqEYJtG/mC093+58e7f5PmJWShDn9whB3PlrpVh5Jp9Nh1qxZ8Pb2VroV1apWrRoOHrTeBj5p8TGY98rzGLYyEs7u9r+xiy1ZF5mIoZPOIEbSPv0iyVj+VqNG3t4IdHZGbK7tPb6XmW1C5LFURB67vUJR1t8Zs8dUR7umYncYtTV2fQ9ATnoqfnixLWJOH1e6lccaPnw4QkNDlW5D1fr162f1MW9GH8PSEf35iKCVpGQYMXBcNLq+d0IVkz/Ad/936QB0UMnn4np8LjqOOo7BE84gLVPOUdC2wK4DwMoPXsP1E4eUbuORPD09MW3aNHz22WdKt6J6/fr1g59f8a8HFtbJzb9hw9cfWH1cLXrpk2gs3qiuw2BaKfA9aatalSypdAuFsmBdDAaNt99zQew2ABxbtxxH1y5Tuo2H0uv1aN++Pfbt24cXX3xR6XbsgrOzMz74QJmJePusSTi4aqEiY2vFz+tj8ce+RKXbKLQyGr77/7/KqHAXxF933MKyzfa59bBd3gOQfisWqz4aqnQb97i5uSE4OBgVKlRAgwYN0LhxYzRs2BAeGjgQxNoGDhyIc+fOYdasWVYfe/VHQ1GpSSh8y1aw+tj27np8Lt7+zrZv4n2Y0gwA96j1czHi23No3dAbAb72tZGTXQaAFWMGIytZmXcKPj4+6NChA1q3bo3g4GAEBwcrsiytZV988QVyc3Mxf/58WCziT3N7mLysTKx8fwiGLPrTamNqxfcrriM1Q53XYgNVOunJUFqle5wkpuZj1qob+HRwRaVbEcruAsCB5fNwaus6q455d9Lv0qULQkND4ejoaNXx6d/0ej2++eYbdO/eHSNGjMC5c+esNvbZ3Zvx98oFaNxjgNXG1IJD0eo8ldHH0REuEk7DUysvR0e4Ojgg22Sbj2s+yqHT6vwefBS7+s5MvnEFv302wmrjeXp6Yty4cTh9+jSmT5+ONm3acPK3IU899RQiIyMxfvx4+Pj4WG3c3z8fhfRbsVYbz95ZLMCRsxlKt1EkfPd/v0CVrgIcPq3O78FHsasAsGrs61Y5v93BwQHh4eE4eVkveQAAIABJREFUdOgQhg8fDicNHvChFk5OThg6dCiOHDmCN9980yrbLGenJuPXT4ZLH0crLt7IVu3yv1qXvGVS630A8cl5uB5ve3sYFIfdBIAbJ4/g9I4/pI/TqFEjREZG4ptvvuG1fRXx8vLCZ599hm3btqFq1arSxzu+YSWuHbfepkT2zGS23n0coul12tte9nHU/DlR8/fig9hNANg++yvpY/To0QPr1q1DSEiI9LFIjpo1a2LHjh3o27ev9LG2zfxS+hhaUKWsK0q4iT9P3hpicsQeKmQP1Po5KenliOBAda5ePIxdBICka5dwfMMKqWOMGTMGP/74I0/qswNubm6YOXMmvv76a+gkvhuJ2vSrzW9BrQZ6vQ71qpVQuo0iibHBbW+VptYA0KC6Or8HH8UuAsDOud/CLOmuUmdnZ8ydOxejR4+WUp+UM2jQIEyePFlaCLBYLFwFEKRBiDr3zEjKy0Mut4m+J81oRJYKnwAA1Ps9+CiqDwBZyYk4sHyetPrffvstunfvLq0+KSs8PFxqCDjye4TNH0GtBsN6lIG7qzovA8Sq9B2vDGp99+/pbsCrXcso3YZwqg8AkT9/j/zsLCm1Bw0apMgBM2Rd4eHheOutt6TUNhuN2LfY+rsS2puKQa6YNKyy0m0UCS8D/D+1BoBvR1RBuQD7u/yr6gBgys/DnoXfS6ndtGlTTJgwQUptsj1jx45FkyZNpNQ+tl7u/SlaMaRrENo0tt5+DqLcyM5WugWbcUOFAaDD0yXxcgd1nGJYWKoOAJcP7UVmUoLwuoGBgfj555+5qY+GGAwGzJs3D76+4s//Trp2iY8ECqDTAUvG1US3VqWUbqVQdiaq7wAjWXap7HPRO8wf8z+uoXQb0qg6AJyL3CKl7rhx4+Dv7y+lNtmuoKAgjB8/Xkpt2U+paEVJL0f8MqEWFn1WE76e6gjoa2O5K+Rd61XyufDzdsSy8bWweFxN+JSwux3z71F3ANizVXjNWrVqoUePHsLrkjr07t0bderUEV73+IaVwmtqWZ9n/XFsSWPMeLcawp8vjXrVPOBosM0NZi5nZSEqLU3pNhR3ODXVZi8BODnq0SCkBAZ1DsKs0dVwfOmT6N5aXStNRaHaaJOTkYZrx/8WXvfjjz+W+mw42TadTocvvvgCzz//vNC6iVcv4kbUYZSp3UBoXS0LLOmEIV2D7v13Xr4ZWbnFf+Ru1bZbeG3imWLX+affY2NR29NTaE21kbESMv/jGujYvGSx67i7ONhsgJRJtQHgwr4dwp/9b9q0Kdq2bSu0JqlPixYt8Mwzz2Dbtm1C6148sIsBQCInRz2cHIu/qBn2pPgbDdfGxuKDatWE11WTdRICQFhjH3h7qHYaU5xqLwGc2yt++f+9994TXpPUacCAAcJrXj9xSHhNEi840EX4I19/JScjTsOPA8bk5OBQSorQmlXKuSKwJA9iKw7VBoDzgq//e3l5oUWLFkJrknq1b98eJUsWf2nxn65HHRZaj+RpUc9baD0LgPlXrwqtqSbzrl6F6GN0RH+NtEiVASArORGxZ08KrdmmTRsYDFxKotscHR3Rq1cvoTVvXTwjbdMqEqt5XS/hNSedO4fk/HzhdW1dYl4evj5/XnhdGV8jrVFlAEiNuyG8Zvv27YXXJHXr0KGD0Hpmkwk3o48JrUlytGog/t1lSn4+vjx7VnhdWzfh7FmkSgg+LSV8jbRGlQEgIyFeaD0HBweEhYUJrUnq16BBA+GrQjdOHhFaj+SoWt4NdaqIP/xl+sWLuK6hnQGvZWdjxqVLwus+WcvT7o7mVYI6A0Ci2ABQp04d+Piob4tRksvV1RW1atUSWjMt7qbQeiRP37biNwPLMZvxyenTwuvaqk9On5ZyGqKMr40WMQAAKFu2rNB6ZD8aNWoktF5WarLQeiRP72cDIGNLkJ+vXcOp9HTxhW3MqfR0/HztmvC6DnoderZhABBBlQEgXfAlgICAAKH1yH4EBwcLrZfNAKAa5QKc0byu+OvMJosFA48cQY6Ed8a2IttkwouHDsFsEX3vP/BMIx8E+PLxPxFUGQBErwCULl1aaD2yH6IvDTEAqEu/dnLeaR5ITsaQo0el1LYF4UeO4HBqqpTafSV9TbSIAQBcAaCHEx0AslKShNYjufq2DYCft5xDhxZdu4ZvJDwep7SJ585h2Q3xT2oBQOmSTlz+F0iVASAz8ZbQegwA9DDCVwDSxO6GRnK5uzrgzV7y7hEafeoUNsWLfUOjpPVxcRgbHS2t/sh+5eDipMppyyap8jNpcBb7+EeOjZ5QRcrLyhK7cY+Tm7vQeiTf0B5l4CVpv3mTxYI+Bw/iXGamlPrWdDojA/0OHpRy3R+4fRT0kC5Bj/9AKjBVBgBPf7HX7GNVckY1WV9MTIzQep4B/AGmNl4eBrzevYy0+in5+eiwbx8uqDgEnMnIQIf9+5FmNEobY3ivsnB3dZBWX4vUGQAE/xAV/UOe7IfocMgAoE5v9S4LNxd5k8+5zEw03rkTW26JvbxpDRvi4tBk1y5clBhgPN0NGNZTXgjTKnUGAMErAAwA9DCivze8GABUyc/bEWNeKi91jOT8fLTftw9TL1yQOo5IX507h05//SVlq99/+jA8mMf+SsAAAF4CoIcTfgnAnwFArd5+oRyqlXeTOobJYsHIqCgMPHJEyg56omSbTHjh0CGMPnVK2jX/u2pXdsdwiTdiapkqA0AJwQHg3LlzQuuR/Tgv+DEtXgJQLydHPaa/U9UqYy24ehWtIiNx3gbvCzidkYEWkZFYev269LF0OmDGu9VgcJCwJSOpMwCIXka9fv06oqKihNYk9btw4YLwAMBLAOr2TCMf9HnWOs+h709ORo2tWzH0+HHE5uZaZcxHuZ6djUFHj6L2tm04lGKdx1lfei4QT9Xhsb+yqDIAiF4BAID169cLr0nq9scffwivyRUA9ZswtDL0euu8IzVaLJh16RIqb96MsdHR0q+1P0hSXh7ePXkSVbdswU9XrsAkecn/LkeDDuNfr2SVsbRKlQHAxcMTjq5ir8UxANB/bdiwQWg9vcEAj5LcxUzNjCYL3p12HmazdSbBu7JMJkw4exaVt2zBN+fPIzEvT/qY8bm5GH/2LCpt2YLJ589b/eyCfKMF702/AJOVP9daotrbKktVqIqb0ceE1Ttx4gSuXbuGcuXKCatJ6pWYmIgDBw4IrVmyfGXo9KrM3ITbk3//j09h1XblHtVLzMvDOydPYvSpU2jm64uOAQHoFBiImiVKCKl/LDUV6+LisDY2FgeSk6H01Lt0UxwAYN5HIXCw0qqLlqg2ANQM6yQ0AADAypUrMXLkSKE1SZ3WrFkDk8kktGbNNh2F1iPrsYXJ/59MFgsiExMRmZiIMadOoZK7OzoGBCC0ZEmUcXVFaWdnBLq4wPkhgTPHbEZMTg5icnJwIycH2xMSsC42Fteys638J3k8hgB5dIDYkPf58WS4eoo/QvO/rp84hKmdxJ7V7u3tjaNHj8LLizedaFl2djbq16+PuLg4oXWHrdiNio2bC635IMbcHIyp7iq0ZvqOUM3uwW5rk39h+Do5obSzM0q7uMBssSAmNxcxOTlIUeBeguLq1y5A0yEgJcOIUm0jhdZU7d/osk80hHdpscv1KSkpmDJlitCapD7ff/+98Mnfw7cUKjR8SmhNkk/Nkz9w+wa+k+np2HLrFrYlJCA6PV2Vkz9weyUg/PPTvCdAINUGAACo3a6L8JqzZ8/GzZs3hdcldbh16xamTZsmvG6NNh15/V9l1D752yOGALFU/ROpdlvxASA3NxcTJkwQXpfUYdKkScjIyBBeV8b3KsnDyd92MQSIo+oAUOnJULh5+wqvGxERgY0bNwqvS7Zt27ZtWLBggfC6jq5uqNbiWeF1SQ5O/raPIUAMVQcAvcEg5c5qs9mMwYMHIzo6Wnhtsk3nzp1DeHi48Dv/AaBa82fh6CL2pjySg5O/ejAEFJ+qAwAgb2k1IyMDffv2RWJiopT6ZDtSUlLQt29fpKamSqlfu21nKXVJLE7+6sMQUDyqDwDVW7YXfjrgXVeuXMFLL72EfJXeNUuPZzQaMXDgQFyQdASrq5cParfrKqU2icPJX70YAopO9QHA0cUVbUd8Kq3+3r170bdvX6SlpUkbg5SRkZGB/v37Y8eOHdLGaDP0favsi0FFx8lf/RgCikb1AQAAnuwVjlKVqkurv3XrVoSFhUl7l0jWd+XKFbRt2xabNm2SNoZ3UHk0HzBcWn0SY/jkc5z87cDSTXF45zv+jC4MuwgAeoMBHUZ/KXWMc+fOISwsDDt37pQ6Dsm3d+9etGnTRvpNnu3f/hwGZxepY1DxbD6QhLm/WW/fD2udImhLrPlnnrHyOnYdsc5RxfbALgIAANRu1xXBDZpJHSMlJQU9evTApEmTkJWVJXUsEi8nJwfffvstunTpIv3mzqAaddGwa3+pY1DxpGeZ8NqXZ602XvfWpXB+VVP0CtPOiZAvtAvAhdVN0bF5SauMZ7EAgyecQVaO+Kd57JHdBAAA6DhmkvQxjEYjJk6ciPr162P+/PkwGo3Sx6TiMZvNWLx4MRo0aIDPP//cKjd1dnh/Enf+s3Gfzb2Eq3E5VhmrW6tSWDyuJsoFOGPJuJrYMLUOKpe130dDq5V3w5/T62LBJzVQ1t8Zv4yvZbUQcPFGNiYsuGKVsdTOrn5CVXyyBWqGdbLKWPHx8Rg1ahSaNWuG3377Tcrz41Q8FosFmzZtQvPmzTF8+HDExMRYZdyqT7dB9dB2VhmLim7T/iSrjNOtVSks+bwmDA7/vxT+7JO+OLq4McYODIazo/38GHZ11uPTwRVxZFEjtG7oc+//Oznq8cv4WujwtHVCgLW+tmqn2tMAHybu3Cl8074OzFaekP38/NC+fXt06NABrVu3hrOzs1XHp9tyc3Oxa9cubNiwARs2bEB8fLxVx9fpdBix9iDK1G5g1XH/iacBPl5mtgm+z0bCLPmu8a6tSmHpfyb//4pJzMPUiGv44debyMhW5xsJT3cDXusWhLf6lIW/j9NDPy4v34xeH5zE+j1yL8E5GnRI2doCTnYUrmScBmh3AQAA1k8ag+2z5F8OeBg3Nze0adMG9erVQ0BAwL9++fn5Qc+l4WIxm81ITExEXFwc4uLiEBsbi7i4OJw4cQKbN29GZmamYr21CH8LnT+eqtj4AANAQew9noqWrx2ROkbXVqWwZFxNOBoKdhNccroRM1Zcx/crbiAxVR17j5TydsSbvcvi9e5l4OVhKNBr8vLN6Pn+SWzYKzcE/DWvIRqElJA6hjUxABSQxWzGvFc6IXr7BkX7IG2p2jwMgxf8Ab2hYD8IZWEAeLyIP+Pw0qfyngLp0tIPSz+vVeDJ/58ys02I+DMOSzfFI/JYCiw29mi7Xq9DaD0v9GsXgD5tA+DqXPjvC2uEgOUTaqFrq1LS6lubjABgP3+j/0Gn1+OF6REIqFpT6VZII/wqVsVLM5YrPvlTwdSu5C6tdnEmfwBwd3XAoM5B2DazHi6sboYvh1ZCnSoegrssvPrVS+Cr4ZVx8dem2Px9PQzsVLpIkz9w+56A5V/Wwv+aybsnQObX2F7Y5QrAXYlXLuC7zk8iK4U3hJA8LiW88Oaa/fCvHKJ0KwC4AlAQRpMFPm12IyfPLLRu51A/RHxR9Mn/Uc5dzcKOwymIPJaK3UdTcC0uV/gY/xQc6IIW9bzQvJ43WjXwlvLUQm6+GT3HnMQf+8SuBJRwc0Di5hbQ2dG2CzJWAOz67UrJ4Mp4aeYK/PBSO5j5uB5JoHdwQP/vl9nM5E8FY3DQ4YkqHvj7lLgtvmVO/gBQtbwbqpZ3w+AuQQCAK7E52HIgGa9NPCN0nJ8+DEHrhj4oFyD/RmZnRz1WTKyFHmOisHGfuDdq9aqVsKvJXxb7ifQPUeWpZ9Dl02lKt0F2quMHXyOkZXul26Ai6N8+QFit51vInfwfJDjQBd2fEX+Nu1eYv1Um/7ucHfVYObE22jfzFVZT5NfWntl9AACAp/q/jqf6v650G2RnGvcciNBXRirdBhXR693LoHldr2LXeb6FH5aNt+7kb2/uhoB2TYsfAto09kH483JOiLU3mggAANDl02lo2O1FpdsgO1GvY2/0mDBb6TaoGHQ64McPQop8IxsAdOLkL4yzox6rJhUvBHi4OmDOGHkHw9kbzQQAvcGAvt8uRMcPvuYWrVRkOp0O7d/5Av2/XwYHx4dveELqUKWcK2aOrl6kEPBSh0As+6Lgz/nT490NAf3aFX4J393VAXPer47g0jyAq6A0NxO2GvIOXpm3Di4lir/0R9ri7O6BAT/8irA3xirdCgnUv30AjixqjND6BXt6qUwpZ/w2+Qn8NDbErnaasxXOjnr8/EkNrJ5UG0F+BbsXoU1jHxxb3FhTBy2JoMnv3pBW/8Oba/bDr2JVpVshlfAtVxHDV+9DrWc7K90KSVC5rCu2fF8PM96thia1PO9bEdDrdage7IZhPcvg2JLGeO4p6+xpr2WdWvjh2NLGGNazDKqVd7vvWGE3Fwc0re2JH96vjo3f1eU7/yKw68cAH8W/cgjeWvMXFr3RG2d3b1a6HbJhlZu2wsuzVsLNhz/07ZlOBwzpGoQhXYNgMlsQfSkLJy5koFyAC+pV84CHq4PSLWqOt4cBU0fefqOWnmXC0bPpuHErD3WquKN6sBsc9Lz8UhyaDQAA4Orlg0EL/sDa8W9j97zvlG6HbNBT/V9Hl0+ncYc/jXHQ61C7sjtqV+ZucraihJsDWtSzjU3m7IUmLwH8k97BAZ0/norXIrahXJ1GSrdDNiKoZj0MWbQJ3b6YycmfiOyS5gPAXVWatcabvx1A/+kRKFm+ktLtkEK8g8qj77cLMXLdIVRr0VbpdoiIpGEA+AedTod6nfrgva3R6PzxVLj7+indElmJq6c3Or7/FcZsP4OG3V7ko6JEZPf4U+4BHByd0CL8Lby/6wKeGfo+HF3EH4JBtsHB0Qmhr4zE+7suoNWr78LgzDuJiUgbeHHzEVw8PPHcexPw9EvDsH/pHET9uQYxp08o3RYJEFClBmo92xlNX3gVvmUrKN0OEZHVMQAUgFdgGbQbNQ7tRo1D4tWLOLn5N0RtWoPLh/bAbDIp3R4VgE6vR3CDZqj9bGfUatsZpSpWU7olIiJFMQAUUsnylRD6ykiEvjISmUkJOLVtHaI2rcHZyM3Iz85Suj36B4OzC6q1eBa1n+2MmmGd4FGSu4QREd3FAFAM7r5+aNxjABr3GID8nGzcunQWaXE3kRZ3E6l3/pkW////nZEQxxUDQfQODvAo6Q/PgCB4BgTByz/o3r97BgTBKyAIpSpWg6Orm9KtEhHZJAYAQRxdXBFUoy6CatR96MeYTSZkpSbBwhBQLDoHB7h5+ULvwJ3ZiIiKigHAivQODvDwLaV0G0RkJ9yc9XA06JBvtIip5+IAJ55uqBl8DJCISKWcHPWoVUncdsX1q3vcd+gO2S8GACIiFWsQUkJYrUY1xNUi28cAQESkYg2riwwAnsJqke1jACAiUrHnQ/3g6+lY7DqlSzqhfTNfAR2RWjAAEBGpWGBJJ3z3dtVi15k5ujq8PXhfuJYwABARqVyfZ/3RrVXRnzDq3z4AHZuXFNgRqQEDABGRHZg5uhraNPYp9Ov+16wkpowq/goCqQ8DABGRHSjp5Yg/ptbF9+9Ug7vr4zfJ8vIwYO7YEPz+zRNc+tcoftWJiOyETge82i0IbZv6YMbKGzh8OgNHz6YjPev27qNeHgbUr+aBhjVK4I2eZVHW31nhjklJDABERHamYpArJr9ZBQBgNltw/no2HPQ6VCrjCh33+aE7GACIiOyYXq9DtfI8FIvux3sAiIiINIgBgIiISIMYAIiIiDSIAYCIiEiDGACIiIg0iAGAiIhIgxgAiIiINIgBgIiISIMYAIiIiDSIAYCIiEiDGACIiIg0iAGAiIhIgxgAiIiINIgBgIiISIMYAIiIiDSIAYCIiEiDGACIiIg0iAGAiIhIgxgAiIiINIgBgIiISIMYAIiIiDSIAYCIiEiDGACIiIg0iAGAiIhIgxgAiIiINIgBgIiISIMYAIiIiDSIAYCIiEiDGACIiIg0yCC6oDEvF8bcHNFliaiAjHm5wmvm5pmF1ySigpPxd1AHwCK8KhEREdk0XgIgIiLSIAYAIiIiDWIAICIi0iAGACIiIg1iACAiItIgBgAiIiINYgAgIiLSIAYAIiIiDWIAICIi0iAGACIiIg1iACAiItIgBgAiIiINYgAgIiLSIAYAIiIiDWIAICIi0iAGACIiIg1iACAiItIgBgAiIiINYgAgIiLSIIPogmfOnIGXl5foskRUQLm5uQgODhZac8eOHXBychJak4gKLjExEZ06dRJaU3gAcHZ2hrOzs+iyRKQgJycnBgAiBcn4+8dLAERERBrEAEBERKRBDABEREQaxABARESkQQwAREREGsQAQEREpEEMAERERBrEAEBERKRBDABEREQaxABARESkQQwAREREGsQAQEREpEEMAERERBrEAEBERKRBDABEREQaxABARESkQQwAREREGsQAQEREpEEMAERERBrEAEBERKRBDABEREQaxABARESkQQwAREREGsQAQEREpEEMAERERBrEAEBERKRBDABEREQaxABARESkQQwAREREGsQAQEREpEEMAERERBrEAEBERKRBDABEREQaZFC6ASqa2NhYnD9/Hn5+fqhevTp0Op3SLT3U2bNnERcXh8qVK6N06dI23SsRkVYwAKiE2WzGokWLMG/ePJw/fx5ZWVn3fs/X1xfNmjVD69atMWDAADg4OCjY6e1eFy5ciG3btmHfvn1ISEi493uurq6oXLkyBgwYYBO9EhFplQ6ARWTBy5cvw8vLS2RJzTt8+DDeffddHD58+LEf27RpU/z0008ICgqyQmf3i4uLw+DBg7F79+7Hfmzt2rXx1VdfoVmzZlboTDtyc3MRGBgotObevXvh5OQktCYRFVxiYiLatWsntCbvAbBxM2fORFhYWIEmfwDYv38/WrRogc2bN0vu7H7bt29HixYtCjT5A0BUVBSee+45TJo0SXJnRET0XwwANuzAgQP45JNPYLEUbpEmKSkJffr0wa+//iqps/tt2LABPXv2xK1btwr92kmTJmH79u0SuiIioodhALBRKSkpeOWVV2A0Gov0erPZjNdeew07d+4U3Nn99u/fj/DwcJhMpiK93mKx4LXXXitSeCAioqJhALBRH3zwAa5fv16sGnl5eejfvz+OHTsmqKv7RUdHo0+fPsjNzS1Wnfj4eIwZM0ZQV0RE9DgMADbIYrFg06ZNQmplZGSgZ8+euHjxopB6/3Tt2jV069YNqampQupt2rSpyCseRERUOAwANuj06dNISkoSVu/WrVvo1q0b4uPjhdVMTExE9+7dERsbK6xmZmYmjhw5IqweEd1mMplgNpuVboNsDPcBsEF79uwRXvPKlSvo3r071q9fD09Pz2LVysrKQu/evXHu3DlB3f2/yMhING7cWHhdIi0xmUzYunUrNmzYgCtXruDmzZvQ6/UoXbo0KlSogI4dO6JVq1bQ6/keUMsYAGzQ1atXpdSNiopC3759sXr1ajg7OxepRn5+Pl566SUcOnRIcHe3XblyRUpdIq3YtGkTvvvuu/tW/EwmE65evYqrV69i165dCAwMxMiRI9GmTRuFOiWlMf7ZoODgYGm19+7di0GDBhXpjn2LxYJhw4Zh69atEjq7rUKFCtJqE9kzk8mEb7/9FmPHji3Q5b7Y2FiMHj0a06ZN4+UBjWIAsEEVK1aUWn/dunV4++23C/26Dz/8ECtWrJDQ0f+rUqWK1PpE9uqrr77C0qVLC/26hQsXYurUqRI6IlvHAGCDKlWqJH2Mn3/+GePHjy/wx0+dOhUzZ86U2NFtlStXlj4Gkb3Ztm0bVq1aVeTXL126VMq9R2TbGABsUHBwsFVuhJs8eTJ+/PHHx37c0qVL8dlnn0nvp06dOqhevbr0cYjsSUZGRqHC/MN89tlnyM7OFtARqQUDgA3S6XSYPHmyVU7KGzNmDFavXv3Q39+0aRPeeust6X3odDp8/fXXvCuZqJAWLVokZC+OpKQkRERECOiI1II/bW1UnTp1MHDgQOnjmM1mvP7669ixY8d9v3fgwAEMGDDAKpvz9OrVC08++aT0cYjsSXJystBJe9GiRUhLSxNWj2wbA4AN+/DDD1G+fHnp49zdMvifm/CcOXMGffr0QU5OjvTx/f39MW7cOOnjENmb+fPnIysrS1i99PR0LFq0SFg9sm0MADbMy8sLq1atgp+fn/SxMjMz0atXL1y4cAE3btxAt27dkJycLH1cT09PrFq1Cv7+/tLHIrIn8fHxWLlypfC6y5YtE7oTKdkuBgAbV6VKFfzyyy9wd3eXPlZCQgK6deuGbt264ebNm9LHc3Z2xtKlS1G7dm3pYxHZm7lz5yIvL0943ezsbMybN094XbI9DAAq0KBBAyxcuBCOjo7Sx7p69SrOnj0rfRy9Xo8ff/wRTz/9tPSxiOzNtWvX8Ntvv0mrv3r1aqHnfJBtYgBQiWeeeQYzZ86ETqdTuhUhJk+ejE6dOindBpEqzZkzp0i7eRZUXl4efvjhB2n17UliYiJ27dqFDRs24NKlS6raVZFnAahIjx49EB8fj7FjxyrdSrGMGTPGKk84ENmjCxcu4M8//5Q+zrp16zBgwACr3IisNgcOHMDy5ctx6tSp+7ZddnNzQ40aNRAaGoq+ffva9KPNttsZPdDQoUOt8ly+LOHh4Rg9erTSbRCp1syZM63yLtNsNmP27NnSx1ETs9mMOXPm4I033sCOHTseeOZCVlYWDh06hClTpuCNN96w6RsqGQBU6NNPP0Xfvn2VbqPQOnfujK+//lrpNohU6+TJk9i5c6fVxtu8ebNV7gnl83dBAAAgAElEQVRSg/T0dAwbNgw//vhjgQPYgQMH0K9fP0RFRUnurmgYAFRq2rRpaNu2rdJtFFiLFi0wZ84cm14OI7J1M2bMsOp4FosFs2bNsuqYtuqHH37A33//XejXJSQk4OOPP7bKhmqFxZ/GKmUwGLBgwQI0atRI6VYe64knnsCSJUvg7OysdCtEqnXw4EEcOHDA6uPu3r0bx48ft/q4tuTq1avFOgn16tWrWL58ucCOxGAAUDFXV1csX74c1apVU7qVh6pQoQJWrlyJEiVKKN0KkapZ4zTOh7H2yoOt+e6774r9Dn7u3Lk2t80yA4DK+fj4YPXq1QgKClK6lfuUKlWKu/wRCaD0u/BDhw4psvpgC3Jzc7F79+5i10lLS8P+/fsFdCQOA4AdKFOmDFatWgVvb2+lW7nHw8MDK1asQKVKlZRuhUjVbOU6vFZXAa5cuSLsqYvLly8LqSMKA4CdCAkJwbJly+Di4qJ0K3BycsLixYtRt25dpVshUr0dO3bYxJ34J0+exN69e5Vuw+ouXbpkk7VEYACwI02aNMH8+fPh4OCgWA96vR6zZ89Gy5YtFeuByJ7Y0r78c+fOVboFq7t27ZpN1hKBAcDOtG/fHlOnTlVs/IkTJ6Jr166KjU9kT/bu3Yvo6Gil27jn+PHjOHjwoNJtWFWpUqVsspYIDAB2qH///vj444+tPu4777yDwYMHW31cIntli++4f/rpJ6VbsKqKFSvaZC0RGADs1MiRI/Hqq69abbyXX35Z9WcUENmSgwcP2uTz93///bdN9iVLhQoVbLKWCAwAduzLL79Et27dpI/ToUMHfPPNN9LHIdISW36nbcu9iebp6SlkrxUHBwfUr19fQEfiMADYMZ1Oh1mzZqFVq1bSxmjWrBl++uknRW88JLI3x48fL9K2s9ayZ88enDlzRuk2rGbEiBHFrtG9e3eUK1dOQDfiMADYOScnJyxatEjKI3k1a9ZEREQEt/glEkwN77DV0KMoTz75JJo3b17k13t4eGDIkCECOxKDAUADPDw8EBERIbzu4sWL4eXlJbwukZadOXMGe/bsUbqNx9q+fTsuXryodBtWM2rUKJQsWbLQr9Pr9Rg1apRNbdR2FwOARvj6+qqiJpHWqeWdtcViwfz585Vuw2rKly+PiIgINGnSpMCv8ff3x5w5c/D8889L7KzoGABUwGQyITc3V+k2hMnNzYXJZFK6DSKbc/HiRWzfvl14XQeDI3QSjuLetGmTzW1uI5Ovry+mT5+OoUOHPnI1wNXVFWFhYYiIiLC5G//+yaB0A3S/hIQEbNq0CUePHsXRo0cRFRUFo9GIkJAQ1K9fH/Xq1UObNm0QHBysdKsFcuXKFWzduvXenyc6OhoGgwG1a9dGvXr1UK9ePbRr1w5+fn5Kt0qkqPnz58NisQiv26jHy8hOS8HxDSuF1jWbzViwYAE++ugjoXVtmV6vR3h4OMLDwxEfH49Tp07h1KlTyMjIQEhICGrVqoWKFStCLyFwiaYDIPS77fLly7wuXAyRkZEYNGgQ4uLiHvlx7u7umDJlCnr27Fmgurm5uQgMDBTR4j0F+VqvWLECI0eORGZm5iM/LiAgAHPnzi3WjTZ0m4yv9d69e+Hk5CS0Jv3btWvX0L17d2EHz9yld3DA6G1nkJuZjm+fE/9u1GAwYM2aNcK/5+jfEhMT0a5dO6E1bT+iaITZbMbkyZPRpUuXx07+AJCZmYkhQ4ZgxIgRNnl5IDc3FyNGjMCQIUMeO/kDQFxcHLp06YLJkycL/wFIpAYLFiyQ8r1fr1MflAyujKCa9VCzTUfh9Y1GIxYuXCi8LsnHAGAjZs6cifHjxxf62vjPP/+Md999V1JXRffee+/h559/LtRrTCYTxo8fj5kzZ0rqisg2xcbGYv369cLr6nQ6tBn2wb3/Dhv+ofAxAGDNmjVISEiQUpvkYQCwAUlJSZg8eXKRX79kyRKb2prz5MmTWLx4cZFfP3nyZCQlJQnsiMi2LVy4EEajUXjd2u26IqBqzXv/Xb5eE1RtHiZ8nLy8vGL9nSdlaPYmQJPJhKNHjyIyMhIXL15EhQoVULlyZVSpUgXVq1e36s52EydORGpqapFfbzab8f7770t5B1EUH374YbGWMlNTUzFx4kR89dVXArsqGLPZjDNnzuDChQs4f/48Ll++jODgYDRv3hz169eHwaDZvzIkSUJCAtasWSOldtgb95/PETb8Q5yL3CJ8rFWrVmHAgAE2+bw7PZjmfpolJSVhzJgx+OOPP5CRkfHAj6lZsya++uorPP3009L7yczMFPIs7d69e3Hw4EE0atRIQFdFFxUVhR07dhS7zvz58/HJJ5/A3d29+E0V0IEDB/Duu+8+dDXF3d0d7dq1w8SJE23uWE9Sr8WLFyMvL0943ZBW/0OZ2g3u+/+Vm7RExcbNcenvSKHjZWdnY+nSpRg6dKjQuiSPpi4BREZGonnz5lixYsVDJ38AOHXqFDp27IhXXnkFMTExUns6ffq0sKU/Wzg3PCoqSkgdo9GI06dPC6n1OPHx8XjttdfQvn37R15KyczMxOrVq9G8eXMhIYcoJSUFq1atklL7Qe/+7/2epHsBli9f/sifrWRbNBMApk6dis6dOxdqQl+9ejVCQ0Nx5MgRaX2JnOTOnj0rrFZRifzzWCMAREVFoUWLFvjll18K/Px1fHw8unXrhkmTJknujuzd0qVLkZ2dLbxu5aatUKHRw1cwq4e2Q7k64lcLMzIy8MsvvwivS3JoIgAcOnQI48aNK9J16YSEBHTq1EnK7lyA2EnOFk7nErkKITsA7NmzBx06dEB8fHyhX2uxWDBx4kTs27dPQmekBRkZGVi+fLmU2o9693/vYyStAixduhRZWVlSatui69evY/Pmzfj1118RHR2N/Px8pVsqMLu/B8BisWD06NHF2l0rMzMTvXv3xuzZs9GtWzeB3UHoTWW2sFGLyD+PzBvu1q5di8GDBxd7D4X33nsPO3bs4HHIVGi//PKLlOXygt7pXzPseZQOeQIxp08IHT81NRWrVq3Ciy++KLSuLTl9+jRmzJiBqKgopKen/+v3HB0dUaVKFfTo0QOdO3dWqMOCsfsVgCVLluDQoUPFrpOfn49BgwZhzpw5Arr6fzVq1BBWKyQkRFitoqpWrZqwWiI/N/80f/58DBgwQMgGSlFRUViwYEHxmyJNycrKwtKlS6XULsi7f+D+PQJEknVjo9KMRiN++OEHvPzyy9i3b999kz9we66Ijo7G559/jjfffBO3bt1SoNOCsfsAUNjNaB7FYrFgzJgxGDdunLCaIie5mjVrPv6DJKtevbqwWjICwKRJkzBq1CihO64xAFBhrVq1qliP/j5MUI26qBnWqcAfX7dDL5SqKC6035WYmCjt0UalpKen4+WXX8YPP/xQ4A3b9u7di169euHw4cOSuysauw8A58+fF15zypQpGD58uJAT7apVqwZXV1cBXQFPPPGEkDrFUadOHSF1XF1dha4mmM1mvP3225g4caKwmndduHBBygEuZJ9kbppT2Hf0Or0e/9fenYdFVfb/A38PIJuyKosgmgkuRCK4kSaaGoIr4JIo7v5cM82s57EU8lHTkjAf/bqm5EJCBSoC4pbgrimGC6KmYRopq4ICg8D5/YH6uKDAzH2fc2bm87ourrqSed+fUeN85px76Tl9LpdaNm/ezGVzI6ksW7ZMpXlWRUVFmDdvnixXR2h1A5CXl4d79+5xyd62bRuCg4NRWlqqVo6RkRFmzJihdj0BAQFwcXFRO0ddrq6u6Nevn9o5M2bMgJGREYOKqs4lGD9+PDZt2sQk70UlJSXcl4sS7ZGUlIS8vDzmuTZvtkLbvkPq/Lr2/sGwbvIG83ru3r2LAwfYbzgkhZSUFCQmJqr8+uzsbHz77bcMK2JDqxuAGzducM1PSkqCv7+/2k3GzJkzYWdnp/LrjYyMEBoaqlYNLC1cuFCtCYl2dnaYOXMmk1qKioowdOhQ7Nq1i0neq1y/fp1rPtEeUVFRXHJ7TZ8LhQpH0OoZGOC9qf/iUBGwfft2LrliKi4uxuLFi9XO2b17N06ePMmgIna0ugEQ43jKU6dOwc/PT61PgKampmpdwKdOnYpmzZqp/HrWmjdvrtZuYKGhoTA1NVW7juzsbPTr1w9HjhxRO6sm6jRwRHecPXuWy34d1k3egOegkSq/vuPQcTC3c2BYUZVLly7hwgW2qwzEdvHiRWZnkxw+fJhJDita3QA4OTmhadOm3MfJyMiAj48Prl27pnJGUFAQNmzYgAYNGtT6NQYGBggNDUVISIjK4/ISEhKC0NDQOi3la9CgATZs2ICgoCC1x79x4wb69Okjyg8fGxsbpvMViPbi9Yn4van/gp4ay2YNDI3w3mQ+p4pq+l0ATdvcrC60ugEAgG7duokyzu3bt+Hr64szZ86onDFkyBAkJyfXajKfo6MjEhISMGvWLCgUCpXH5EWhUGDWrFlISEiAo6Njjd//9ttvIzk5GUOG1P0Z5ovS0tLg6+uLzMxMtbNq45133hFlHKLZsrKyuHwCNGtkh45Dx6md4xU0CaaW1gwqet6vv/6q0mZbcsFyc7MrV64wXYGkLq3fCMjHxweRkZGijJWfn49BgwZhy5Yt6NWrl0oZLVq0wMGDB3Hu3DmkpqYiNTUVv//+O0pKSuDh4QFPT094eHigY8eOTG6T89apUyecPn0av/3229P3dO7cOZiYmKBdu3bw9PR8+p7q1aun9ngpKSkIDg4WdcZt797sj1cl2ic6OprLD/8uo6fDwFD9CbP1TEzhNWIyfl29hEFV/1NeXo5ffvlFYw8JUufO7ouUSiVu3bolm0e2CgBM1y9lZmbCwsKCZaTaRo0ahfj4eNHGMzAwwP/93/9h2LBhoo1ZE6VSyXxOhNz+rHfs2IEpU6aIugHJe++9h5iYGFndheHxZ338+HFZ7DSpqUpKSuDn58e8MTUwMsa8E3+hgTWb0ynv3/kbX73bHBXlbLeztbS0RGJiokb+HRowYADTVT4//vijSo8M8/Ly0KdPH2Z1ADrwCAAAVq5cWavb0KyUl5djypQpWLVqlWhj6roNGzZg4sSJol78bW1tsXbtWlld/Ik8xcfHc7kr1T4gmNnFHwAs7B3h3p/9B5d79+4hKSmJeS5Rj040AJaWltiwYQPXveVfJAgC5s+fj5CQENokhrPFixfjs88+E/XZmr6+PtatWwdbW1vRxiSaSRAEbkv/uo2fpRGZgOZPBtRGOtEAAFUTtaKiokR/br5y5UpMmzZNq3bEkouKigrMmjULYWFhoo5rbGyMrVu3okePHqKOSzTTiRMncPPmTea5Lbv5wL7lW8xzndp2QPOO7zLPvXbtGpNzWQg7OtMAAECvXr2wa9cuWFuzn+n6OlFRURgxYgSXc791lVKpxJgxY5ie9VAblpaW2LFjB/z8/EQdl2guXp/+u/+/2VxyAcB7wsdccukugLzoVAMAAB06dEBSUhKcnJxEHXf//v0YOHAgCgoKRB1XG92/fx8BAQFISEgQddzGjRsjMTERXl5eoo5LNFdmZiZOnDjBPNfOxRUtu/kwz33irfcHwdqpOfPcw4cPIysri3kuUY3WLwOsjouLC/bt24fAwECmazxrcubMGfj6+iIyMhI2Nuwm7tQGi6NvX1RYWMg8syb5+fkIDg5Genq6qOO6uLggNjYWTZo0EXVcotmio6O5zAHyHs93/w89fX28O3YG4hayvctQWVmJ6OhofPwxnzsMpG50sgEAqrYJ3rNnD4KCgrh06K9y9epVdOzYUbTxeGJ18p/cdejQAdHR0aI/OiKarbi4mMvy4/rWjdA+cBTz3Bd1+mAC9oaHQvnw5TPv1bFr1y5MmzaN2WFfRHU69wjgWRYWFtixYwf69u0rdSlEpnr37o24uDi6+JM627dvH5d5P12Cp8LAyJh57ouMG5ij0wcTmOc+ePAABw8eZJ5L6k6nGwCg6iS9LVu2YPTo0VKXQmRm+PDh2L59O0xMTKQuhWiguLg45pn69QzRZZR4O+p1G/eRSicM1mT37t3MM0nd6XwDAFSt6V6xYgXmzJkjdSlEJj766COsXr1a1L0jiPbIzMzE+fPnmed6DAyCmQ3/U06fsHZqDjcff+a5Z86cocmAMkANwDO++OILLFu2DHocOl6iGRQKBRYtWoQFCxbQDn9EZTw+/QOA90TxJ895c9gYSBAEugsgA3Sle8HEiROxceNGjdyzmqinXr16WLduHaZPny51KUSDVVRUcFmi6tylJxzauDPPrUnzTt3Q5O32zHN3794tq5PxdBE1ANXw9/fHzz//DDMzM6lLISIxNTXF9u3bMXToUKlLIRru+PHjyMvLY57La3Meqca+c+eOWsenE/VRA/AK3t7eiI+Pp73edUDDhg0RFxen8hHOhDyLx+1/m+Yt0aZnP+a5teXefxjM7RyY5+7atYt5Jqk9agBeo23btti7dy+aN2e/IxaRBycnJyQlJaF9e/a3OInuKSgowJEjR5jndhs/U9I5KfoG9dB1NPtHY4cOHUJREdt9BkjtUQNQgzfeeAN79+6Fu7v4z94IX66urti3bx+cnZ2lLoVoicTEROYHfxnVb4AOg8cwzVSFV9Ak6BvUY5pZVlZGxwRLiBqAWlAqlSguLpa6DMJYaWkpSktLpS6DaBEet//f9h0MQ9P6zHPrqr51Iy6PIWg1gHSoAahBRkYGfHx8cO3aNalLIYzduHEDffr0wYULF6QuhWiB9PR0XL9+nXluhyHSf/p/gkct6enp+OOPP5jnkppRA/Aap06dgp+fH/755x+pSyGcZGdno1+/flye2xLdwmNCm6VDU7Tw6sE8V1VtevZDfetGzHN57ZtAXo8agFdISkqCv78/7t27J3UphLOioiIMHTqUZiQTlZWXl2Pfvn3MczsMHi2rDan0DerBY9AI5rl79uyhPQEkQA1ANSIjIxEcHEzPh3WIUqnE+PHjsXHjRqlLIRooNTWVy2z2DoHyO6OkI4cJiQUFBfQoTgLUALzgu+++w4cffoiKigqpSyEiq6ysxJw5c/DVV19JXQrRMEePHmWe2czzHTRq7sI8V12Obp5o3Ppt5rn0GE581AA8JggCPv/8cyxYsEDqUojEli1bhlmzZlETSGqNx8VLTpP/XsRjWSI1AOKjBgDAo0ePMGnSJKxZs0bqUohMbN68GWPGjIFSqZS6FCJzN2/exK1bt5hmGhgZo13/D5hmsuTpPxJ6jE/KvH79Op0QKDKdbwCKi4sxfPhw/PLLL1KXQmQmISEBAQEBuH//vtSlEBk7fPgw88y33h8IE3NL5rmsmNnYo5V3H+a5PB6lkFfT6QYgLy8PAwYMwK+//ip1KUSmTpw4gb59++LOnTtSl0Jkisvtfxns/FcTegyg+djew9Egt27dQmBgoOgbULz11luIioqCjY2NqOMqlUo0a9aMaeaVK1dgYWHBNLMm+fn5CAoKQlpammhjpqenw8fHBzExMXBxkd+kLCKdoqIi5n8XeX26Zu2t9wfCxMIKJfcLmGWePXsWJSUlMDExYZZJXk0nG4D09HQMHjxY9E91Xbp0wfbt22Fubi7quLwYGRnByMhI1DEbN26M+Ph4jBo1CsnJyaKNe+vWLfj5+SE6OpoODiJPnThxgvlkUU//kdDT12eayYOBoRE8BgzH8W3s5k6VlZXh1KlT6NGjB7NM8mo69whAqlu6/fv3R2xsrNZc/KXUoEEDREdHIzAwUNRx8/LyMHDgQBw8eFDUcYl88bn9L7+1/6/SYehY5pn0GEA8OtUAJCYmSjKpa9y4cdi8ebPon5a1maGhIb7//ntMnjxZ1HGLi4sRFBSEn376SdRxifxUVlbi2LFjTDMdXNuhceu2TDN5aureCbYtWjPNPHr0KARBYJpJqqczDUBKSgpGjx4t+rKuzz77DOHh4dDT05nfatEoFAosXboUISEhoo776NEjTJkyBXv27BF1XCIvaWlpKCwsZJrpMWA40zwxtGNcc15eHi5fvsw0k1RPJ65KOTk5mDx5sqgbu+jp6eHbb7/F3LlzRRtTV3388cdYuXIl9EV8bioIAj788EM6KEqHnT17lnlmqx6+zDN5a82h5jNnzjDPJC/T+gZAEARMnToVd+/eFW1MIyMjREREYPz48aKNqeuCg4Oxbds2GBsbizZmfn4+Jk2aRIeY6KiMjAymeWaN7DTq9v8TTm07wsTCimkm699bUj2tbwBiYmJEnbRlZmaGX375BQMHDmSWWVFRoVU70imVSi53Y3x9fbFz505YWoq3gcrRo0fx448/ijYekY8rV64wzWvp7SOrk/9qS6Gnh5bv9maayfr3llRP65cBHjhwQLSxbG1tERMTAzc3N7Vy7t27hwMHDiA1NRWpqak4f/48ysvL4erqCk9PT3h4eKBXr15wcHBgVDlfWVlZOHjwIM6dO4fU1FSkp6fDwMAA7u7u8PDwgKenJ3r37s3kwt25c2fs2bMHgwcPFm1b0YMHDyI4OFiUsYg8FBYWMn/807KbD9M8MbXs5oO0hJ+Z5d26dQvFxcUwNTVllklepvUNAOtZuq/SokULxMTEqL3ZzsmTJzFhwoRqL15paWlIS0tDREQEzMzMsGLFCgQEBKg1Hm87duzAzJkzXzoq9dGjRzh58iROnjwJAHBwcMDGjRvh5eWl9pitW7fGvn37EBgYiKtXr6qdVxOx/o4R+WB9i1qhUKCVt+Y2AK26s924qLKyElevXkW7du2Y5pLnafUjgMzMTNy+fZv7OB4eHkhKSlLr4l9ZWYnw8HD079+/Vp9ci4qKMH78eMyePVuWjweUSiVmz56N8ePH1+qc9KysLPTv3x/h4eFMnqk7OjoiKSkJHTp0UDurJjk5OXTLUsf89ddfTPMsHZqiQUNbpplismzsBLNGdkwzWR+wRF6m1Q1Abm4u9zHee+897N69G40aNVIrZ/Xq1Vi4cGGdn41HRETg008/VWtsHj777DNERETU6TUVFRVYuHAhVq9ezaQGKysrxMXFwceH/yernJwc7mMQ+bh37x7TvIZN32SaJwVrxu+BDuHiT6sbgBYtWnDNHzx4MKKjo1G/fn21cvLz8xEWFqby6yMjI3H+/Hm1amDp0qVL2LZtm8qvDwsLQ35+PpNaTExMEBkZiaCgICZ5r+Ls7Mw1n8hLQQG7/e8B9hdPKbBuYljvsUBeptUNgJWVFays2C5PeWLKlCnYsGED6tWrp3bW0qVL1ep2KysrZbXfwLx589S6jX///n0sXbqUWT0GBgZYvXo1Zs6cySzzWaamprC3t+eSTeSJeQPg1JxpnhRYvwfWd1nIy7S6AQD4fDILDQ3FkiVLmCzZefjwYZ1vlVfn+PHjstg84+LFi0wO6YmIiMDDhw/VL+gZX375JRYvXsx8qRV9+tc9rOfd1LdW7xGiHNS3YvseysrKmOaRl2l9AzBhwgRmWQYGBli1ahVmzZrFLDMjIwPl5eVMsuSwfebFixeZ5JSXl3PZDGTatGlYv349kzs3T9CGT7qnYcOGTPMe5Ii3URkvRbls34O1tTXTPPIyrW8APvjgAyZLy4yNjbFt2zaMHDmSQVX/w/IiJ8aSt5qwfD+8dgMbMmQIoqKi1J67AQCenp4YNWoUg6qIJrG1ZTtjv/CuOHtW8MT6PdjY2DDNIy/T+gYAAJYtW6bWPvFWVlbYtWsX+vRhu9YVYHuRk8NSNJZ3IXhuB9qzZ0/ExcWptXpDoVBg2bJldNCTDmJ9cbqfrQUNAOP3QA0Afzrxk8vNzQ3ffPMNDA0N6/xaBwcH7NmzB506deJQWdVjBVZY3tZWFcv3wzKrOp6entizZw+aNm1a59fWq1cPixcvhqenJ4fKiNyxvjgVZWv+oVKFjN+DukurSc10ogEAqp7T7t+/Hy4uLrX6foVCgZEjR+LIkSNo1aoVt7ratGnDLKtly5bMsuRQA8vfm1dxdnZGSkoKxo4dW+vJgW+++SaSkpIwdepUztURuWL9CCA38w9UinhaKWsVj8qQf+tPppl0B4A/nWkAAKBt27ZISUnBhAkTYGFh8crva926NRISErBq1SruE1FYXuR4NipS1CBGAwAAlpaWWL58Ofbu3fvacxzMzc0xZswYHD58mD756zjWF6eSwnv487cjTDPFdO34rygrZrtqhxoA/rT+LIAXmZiYICwsDMuWLcP169eRmpqK33//HdbW1nBzc4ObmxuaNGkiWj0tW7aEiYkJSkpK1M5q21b6o0RZ1WBiYiL6HY2OHTviyJEjyMrKwsWLF3HhwgXk5ubC3d0d7du3h7Ozs0ae1kbYs7CwgKGhIdOlahf37UQLrx7M8sR0ae9Opnnm5uYqPbIldaNzDcATCoUCzs7OcHZ2xrBhwySrw8jICDNmzMA333yjVk6/fv3g6urKqCrVubq6ol+/fkhISFArZ8aMGTAyMmJUVd04ODjAwcFBlC2EieaysbHB33//zSzv0r5dGBTyHbM8sQiCgEsH4phm0vN/cejUIwC5mjlzJuzsVD9Iw9DQEAsXLmRYkXoWLlyoVvduZ2fHbdc+QlhR9+TPF+XfzkTW5TSmmWK4lXaa+QRA1r+3pHrUAMiAqakpQkNDVX79tGnT0Ly5fLYSbd68OaZNm6by60NDQ+kccCJ73t7ezDNT1qt+JohUkjnU3K1bN+aZ5GXUAMhEUFAQ1q1bV6cLn76+PubPn4+QkBCOlakmJCQE8+fPr9P+C6ampli3bh33g3sIYcHb25v5nJDUnZH4+9I5ppk83Tx3EucTf2GaqaenRw2ASKgBkJFhw4YhOTm5VrPf7e3tERcXh9mzZ8tyYppCocDs2bMRFxdXq4Ny2rRpg+TkZEnnYxBSF7a2tsxXqgiCgPiv5He896vsXjyHeWbbtm25HeJGnqezkwDlysXFBYcOHcKpU6eQmpqKc9yCzqgAABMJSURBVOfO4dy5cygtLUW7du3g6ekJT09PeHl5wdzcXOpya9SlSxecOnUKJ0+eRGpq6tNVF8bGxvDw8ICHhwc8PT3RuXNnySb9EaKqHj16ID09nWnmtWMHkZGShNbdfZnmsnZx305knjnGPLd79+7MM0n1qAGQISMjI3h7e3N5xigFc3Nz+Pj40Kx6onW6d++O1atXM8+N/WIqZsb9JttTAoty7mBH6Awu2T169OCSS15GjwB0RE5OjkZkEqJJWrRoAUdHR+a5+bczsWXqEFSUP2Kera7yMiV+mByI+//cZp795ptvwsnJiXkuqR41ADqgsLAQw4cPZ547cuRIFBQUMM8lRJPwumV9/VQKdoZ+xCVbHTGfT8HN1BNcsun2v7ioAdBySqUSQUFBuHTpEvPsq1evYtiwYUx2MSREU/Xq1Ytb9onItTj6w0pu+XV1aO03+O2XH7jl9+zZk1s2eRk1AFqssrISEydOxPHjx7mNcebMGYwZMwbl5eXcxiBEztzd3dGhQwdu+Tu//AgJX/8bQmUltzFqUllRgV3/mYWEpf/iNkaXLl1EO/+DVKEGQIvNmTMH8fHx3MfZv38/ZsyYAUEQuI9FiBx99NFHXJfjHlrzNSIm+UP58AG3MV6l5H4Bvh/rhyObVnAbQ09PDzNm8JlUSF6NGgAttWTJEkRERIg2XlRUlFq7GRKiyVxdXfH+++9zHSP9wG6sDHwHOTeucB3nWVmX07DCvzOuHtnPdZy+ffvW+qh2sVlaWso6Tx3UAGihTZs2qX24kCpWrlyJVatWiT4uIXIwbdo0GBjwXVl958pFLPNxQ+z86XiQl81tnMK7WfjpXxOxvJ8ncv+8xm0coOoskylTpnAdQx0sH0tYW1vD1taWWZ66qAHQMnFxcfj0U+l2EgsJCcFPP/0k2fiESKVJkyYYPHgw93Eqy8txfOtqLPFugf0r/oOy4ofMspUPi5D07Xws6eGC09EbRZl3MHz48FrtFiqV1q1byzKLBdoISIscPXoUkyZNQqWEk4UEQcD06dPRsGFDrrOjCZGjiRMnYvfu3SguLuY+lvLhA+xdHoqUDd+idQ8/vOUzCG3e6wtjM4s65ZTcL8DlQ4m4uG8nrqQkiTrPwNzcHGPHjhVtPFWwvAMgt0mO1ABoiYsXL2LEiBFQKpVSl4Ly8nKMHj0au3bt4jo7mhC5sbKywpgxY7BmzRrRxix9UIjf46Pxe3w09A3qocU7PdC0XWeY2znA3LYxzO0cYGHrAAECCu9mVX1l/4PCu1m4ee4krp9KQaVEq3jGjRsn+y3NW7VqBXd3d6SlqXdUs4mJCQYOHMioKjYUAJhO3c7MzISFRd06UKKemzdvwsfHB9nZ/J4JqsLa2hpJSUmyndyjrZRKJfNbqsePH4ehoSHTTG1VWlqK0aNH48aNG1KXImstW7bEDz/8oBF/r27duoWgoCCUlpaqnPHvf/8bQ4YMUfn1eXl56NOnj8qvrw7NAdBwubm5GDx4sOwu/gCQn5+PwMBA/PPPP1KXQohojI2NsXz5cvog9BrW1tZYvny5Rlz8AcDJyQkffaT6roydOnUSZX5IXVEDoMEePnyIYcOG4fr161KX8kq3b99GYGAg7t27J3UphIjG0dER33zzDfdVAZrI0NAQYWFhsLOzk7qUOhk6dCgmTJgAfX39Or3Oy8sLixYtkuWx7dQAaKhHjx5h1KhROHfunNSl1CgjIwPDhw9X6/YZIZqmffv2+Oyzz6QuQ3bmzp2Ltm3bSl1GnSkUCkydOhURERFo3rx5jd9vamqKzz//HKtWrYK1tbUIFdYdtacaSBAETJ06FYcOHZK6lFo7deoUxo0bh23bttW5gyZEUwUGBuKPP/6gpbGPBQcHY8CAAVKXoRZXV1dERkZi9+7duHDhAi5fvow///wTlZWVsLW1RZs2beDq6go/Pz84ODhIXe5r0SRADTR37lysXbtW6jJUEhwcjJUr5XO4iTaiSYDyUlFRgRkzZuD06dNSlyKpLl264LvvvoOenvbdeC4tLUVJSQmsrKy4jUGTAAm+++47jb34A8C2bdvwn//8R+oyCBGNvr4+li5dqtPn3Ddv3hxLlizRyos/UDXxk+fFnxft/NPQUpGRkViwYIHUZaht+fLlWLdundRlECIac3NzfP/993Bzc5O6FNF5eHhg/fr1qF+/vtSlkBdQA6Ah9u7di1mzZkldBjNz585FbGys1GUQIpqGDRti/fr18PPzk7oU0fj7+2PNmjUa+elYF1ADoAFOnz6NsWPHolyE3bpcXFzg7u7OfRxBEDBlyhSNmshIiLoMDQ2xcOFCfPjhh7JcFsaKnp4ePvnkE8ybN4+WQsoYNQAyd+XKFdGW0DVu3BixsbH4+eefa7XMRV2atJSREJbGjh2LsLAwmJqaSl0Kc2ZmZvjvf/+LoKAgqUshNaAGQMae7KRXUFDAfSxLS0vExsaiSZMmsLGxQWxsrCjHVj7ZzIh2CyS6pnv37ti0aRMaN24sdSnMNGvWDJs3b4aXl5fUpZBaoAZAxhYsWICsrCzu4xgbGyMqKuq5oyrfeOMN/PzzzzAzM+M+fm5uLubNm8d9HELkxtnZGVu2bIGvr69GPxLQ09PDoEGD8MMPP6Bp06ZSl0NqiRoAmTpz5gy2bt3KfRx9fX1ERESgc+fOL/1a27ZtsW3bNlHWf8fGxuLIkSPcxyFEbqysrLBo0SJs3boVnTp1krqcOvP29kZUVBTmz58vygcGwg41ADJUWVmJTz75BILAdI+maq1YsQK+vr6v/HVvb2+sW7dOlPW7n376qSgTHQmRo9atW2P16tVYtWoVWrZsKXU5NXJzc8P69esRHh6ON998U+pyiApoeqYM/fnnnzh//jz3cUJDQzFy5Mgav8/f3x+5ubn49NNPudZz5coVXL16Fa6urlzHIUTOvLy80LlzZ+zZswdr1qyR3fyYpk2bYvr06ejVq5fUpRA1UQMgQ5mZmdzHmDp1ap32FZg4cSLu3r2LsLAwjlVVNT/UABBdp1Ao0LdvX/Tu3RuxsbHYu3cvLl68KMpdwero6enB3d0dfn5+GDRoEJ3noSWoAZChGzducM0fMmQIFi9eXOfXffHFF8jOzsaWLVs4VFWF93snRJMYGhpi+PDhGD58OPLy8nD48GGkpKTg9OnTKCsr4zq2kZERvLy80L17d3Tr1o0289FC1ADI0F9//cUtu2fPnli9erXKM47Dw8ORm5uLxMRExpVV4fneCdFkDRs2REBAAAICAlBSUoITJ04gJSUFR48exf3795mMYWVlhW7duqF79+7w8vKCkZERk1wiT9QAyBCvCTWenp7YunUr6tWrp3KGvr4+Nm3ahICAAJw4cYJhdVVatGjBPJMQbWNiYoKePXuiZ8+eqKysxN9//42cnBzk5uYiJyfnua/c3Fzk5uYCAGxsbJ5+NWrU6KV/Ojo6au2BPeRl1ADIUNeuXZlnOjs746effmKy85iRkRG2b98OPz8/XL58mUF1/9OlSxemeYRoOz09PTg5Oen0aYNENdTqyVDLli3RqFEjZnn29vaIjY1Fw4YNmWVaWFggNjaW6Q8dMzMznTwtjRBCpEANgEyxOjHMwsICMTExXD4d2NvbIyYmBtbW1kzyfH196fYjIYSIhH7aytSiRYvQrFkztTKe3KrnuazOxcUF0dHRaj9acHR0xNdff82oKkIIITWhBkCmzM3NsWnTJpUn7D2ZrPfOO+8wruxlHTp0wJYtW1Q+9lNfXx/ff/89LTMihBARUQMgY56envjqq6/qvOmGnZ0dYmJi0LdvX06VvaxXr16Ij4+v80Egenp6WLBgAZ0eRgghIqMGQOYmTpyI5OTkWl8ge/XqhSNHjqB79+6cK3tZ586dcfToUQwbNqxW39+uXTvs378f06dP51wZIYSQFykAMN1bMjMzExYWFiwjyWPR0dHYuHEj/vjjDxQUFDz9702aNEHXrl3Ru3dvDB48WBbHiiYkJCAxMRFnz57FtWvXUFlZCQCwtLSEm5sbAgICMHbsWJr0x4FSqYS9vT3TzOPHj4tyKiQhpHp5eXno06cP00xqADRUQUEBrl+/jkaNGuGNN96QupzXevDgAdLT0+Hg4IAmTZpIXY7WowaAEO3DowGgjYA0lJWVFTp06CB1GbXSoEEDjTznnBBCtBndfyWEEEJ0EDUAhBBCiA6iBoAQQgjRQdQAEEIIITqIGgBCCCFEB+kBqGAZWFZWxjKOEEII0Xnl5eWsIyv0ADxgmXj37l2WcYQQQojOy8vLYx35QA9AEcvEO3fusIwjhBBCdF5ubi7ryCLmDUBWVhbLOEIIIUTn8WoAmD4CoDsAhBBCCFscGoAHegCYpv7zzz8s4wghhBCdx6EByNUDcIVlYlpaGss4QgghROdlZGSwjrzCvAE4d+4czQMghBBCGMnOzkZ6ejrr2Ct6AJi3FYmJiawjCSGEEJ2UnJzMIzaDSwMQHx/POpIQQgjRSdwaAEEQ7gD4i2XqsWPHcO/ePZaRhBBCiM4pLCzE2bNnWcf+JQjCnSdnAeximVxeXo6dO3eyjCSEEEJ0zoEDB1BRwXTHfuDxNf9JA8D8ah0WFgalUsk6lhBCCNEJZWVl2LhxI4/oncD/GoDDAApYpv/9999Yu3Yty0hCCCFEZ0RFRfE4X6cAVdf8qgZAEIRyAMxn7i1fvpzmAhBCCCF1VFhYiIiICB7R8Y+v+U/vAACM5wEAwP379xEeHs46lhBCCNFqERERKCpielTPE0+v9c82AEkASlmPtH79ely4cIF1LCGEEKKVrl69iujoaB7Rpai61gN4pgEQBOEhgAOsR1MqlRgxYgRycnJYRxNCCCFaJT8/H7Nnz0ZZWRmP+AOPr/UAnr8DAHBYDQAAt2/fRnBwMK83RAghhGi8R48eYc6cOTxP1X3uGv9iA7ADQCGPUU+fPo3Zs2fziCaEEEI03pIlS3D+/Hle8YWousY/9VwDIAhCPoCveY0eGRmJsLAwXvGEEEKIRtq4cSPi4uJ4DvH142v8UwpBEJ77DoVCYQrgGgAHXlWMHDkS4eHhMDQ05DUEITpLqVTC3t6eaebx48fp/1dCOHj06BGWLFnC++KfBcBFEITiZ//ji48A8PgbvuRZSWRkJAYMGEATAwkhhOis/Px8TJ48mffFHwC+fPHiD1TTADy2CcBlntWcPn0aPXv2pCWChBBCdM7Vq1cxatQons/8n7iMqmv6S6ptAARBqADwOc+KgKrVAe+//z5CQkJox0BCCCFar7CwECtWrMDYsWN5bPNbnbmPr+kveWkOwHO/qFAcBdCVV1XPsrCwwMcff4wpU6bAyMhIjCEJ0Uo0B4AQ+SkrK0NUVBTPHf6qc0wQhHdf9Ys1NQBdARzlUdWrODo6Ys6cOfD394elpaWYQxOiFagBIEQ+CgsLceDAAWzcuFGsT/zPelcQhGOv+sXXNgAAoFAofgQQxLqqmhgYGKBr167o378/+vbtCwcHbosSCNEq1AAQIq3s7GwkJycjOTkZZ8+eRUVFtXfgedsuCMKI131DbRqA+gCOAXBnWFideXh4wN3dHXZ2drCzs4O9vf3Tf69Xr56UpREiK0qlEm3btmWauW/fPmoACHlGWVkZcnNzkZubi+zsbOTk5CAnJwcZGRlIT0+Xurw0AF2f3fa3OjU2AACgUCiaAvgNgC2b2gghhBDCQTaAjoIg/FXTN75qGeBzHgcFAqDN/AkhhBB5KgMQWJuLP1DLBgAAHk8kmKJqVYQQQgjhasrrJv29qNYNAAAIghABILzOJRFCCCGEp/DH1+haq9UcgOdeoFDoA9gNwK9OLySEEEIID3sADHjVhj+vUucGAAAUCoUFqvYHcKvziwkhhBDCykVUrfe/X9cX1ukRwBOPB3oXVV0HIYQQQsS3Bype/AEVGwDgaRMwADQngBBCCBFbOKpu+6t08QdUfATwUohCMQ7AWgC0UwghhBDCTxmqZvvXacJfdZg0AMDTcwNiQZsFEUIIITxko2qdf62X+r0OswYAeLpjYBwk3jaYEEII0TJpAAbWdpOf2lB5DkB1HhfWFcB2lrmEEEKIDtuOqr39mV38AcYNAAAIgvDw8QlE76LqECFCCCGE1N0xVM3yH1HTwT6qYN4APCEIwjFBEN4FEADgMq9xCCGEEC1zGUCAIAjvsnreXx1uDcATgiDsBPA2gEkAsniPRwghhGioLFRdK99+fO3kiukkwBoHUyhMAcwC8C8A5qINTAghhMhXIYCvAXwnCEKxWIOK2gA8HVShsEbVowF/AL0BGIteBCGEECKdUgAHAOwEsEMQhHyxC5CkAXiuAIWiPgBfAIMA9AdgJWlBhBBCCB8FAOIB7AKQxGNiX11I3gA8S6FQGADwRtWdgUEAmkpbESGEEKKWv1B1wd8J4LAgCOUS1/OUrBqAFykUCnsArR9/tXr81QhAAwBmj78aANCXqkZCCCE6qQLAAwBFj78eAMgFcOXxVwaADEEQ7khWYQ3+P1HPik++YUFyAAAAAElFTkSuQmCC;" parent="87" vertex="1">
                    <mxGeometry x="5" width="110" height="110" as="geometry"/>
                </mxCell>
                <mxCell id="36" value="" style="shape=image;verticalLabelPosition=bottom;labelBackgroundColor=default;verticalAlign=top;aspect=fixed;imageAspect=0;image=data:image/png,iVBORw0KGgoAAAANSUhEUgAAAgAAAAIACAMAAADDpiTIAAADAFBMVEVMaXGenp6Xl5eZmZmNjY2hoaGMjIyCg4SMjIyYmJR6f4OSkpKkpKSrq6uUlJSpqamVlZV7f4KPj4+bm5ugoJ+Pj4+QkJCZmZlMaXFISkysrKyvr6+WlpaJiYmlpaWPj4+Xl5dhcoSQkJCdnZ3/1mqwsLC0tLQzbp2lpaUxapugoKBtg5Y+e6v/2kznzWb/6XL/1Dqfn59CgLL83FdIibxAfq+rq6uOkpW1tbVEg7REgrX82EpHiLr/10avr686dqdBgrNHiLs7eKr91UQwaZn+1T7/42AwaZf31lE3cqRHibtGh7r/2EVCgbQ6dqc/fa1Gh7r91kNBgbP/53P/3lTx1WP/1Tz+1UBGh7o2caL/3E45daf91T//3E//5Wn/10L93lv/6G7/1Tw1b6BGiLo6dqj/6XT/4mL92UpIir0zb6D+1T89e6392EtEhLb/5WZIibxLjcDCv7A1cKFWkLf/5mw/f7H/6XE6dqj/1kD/5242caL/4FkvaJn/1Tv/5Wj/52xZkbxMaXFMaXH500T/5Wf/5GT/3VP/20340UD/3VLkxU//6XP/523/4V3/5Wb/3VDhwVb/42L/20r/6XL/1TowaJk6dqc4dKVCgbNAfrFEg7VGh7k8eKk+eq02cKH/4V7/31j/42L/42T/4Vw8eqv/3VI0bp8+fK3/20z/2042cqNIibv/5Wj/3VT/2Uj/31b/2UZEhbc8eKv/31r/10L/5Wr/527/10D/3VBAfq8ybJ3/4WA6dqk+fK9AfK84cqP/53D/1Tz/52z/5Wb/10RGhbf/1T7/20pKi73/42ZCgbH/2Uowapn/42A6eKkybJv/2URIib1Cg7VKi786dKcyapswapv/21BCg7NKjb80bp00cKE+eqv/4Vr/5WxIh7s0cJ9Ii73/3Vb/1z44cqU4dKdMjcBGhbn/53L/31T+0zz80j350UBGh7v/6XD/31z91D/40EL/1UAzbZ1EhbU2cqFCfrFAgbH60T3/3U7/52r91UL/0zz/4WL910RMybsBAAAAlHRSTlMAGxMVCiAMBAUCCBIkKQ0mGgoIHh4QDxgAAistGA4iEhAGFhoGMDKBJWgIE4FADUVpGCUdhDQGHDSAglStQCz0D5hIemfrv4EwrPR1P/GnPuK0YYA3FPXMVL8nlZVIyqps5cLfvXOCmonLqaHhXsfb1fg1WWJ5GvbK2FuH5Prc+qc8AADk1tT58tf0Rvr2+PXvSPnxn1o2MAAAAAlwSFlzAAALEwAACxMBAJqcGAAAIABJREFUeNrtfXtwlUWatyJjOJSjCaipswMDieg6oCgJFx1wIDA4KAMCAwiIcvUKKHxqVLzy1o77uZvdmf3mhHNyIyADCRBgobhYKao4sMXhC4EKNRUotqgsofgjpNCvQNiDVhn3q+5+L939dr9vv5fznvdg95HV4b7p3+95nn769+vnNkWun/S6TX4JJADkkgCQSwJALgkAuSQA5JIAkEsCQC4JALkkAOSSAJBLAkAuCQC5JADkkgCQSwJALgkAuSQA5JIAkEsCQC4JALkkAOSSAJBLAkAuCQC5JADkkgCQSwJALgkAuSQA5JIAkEsCQC4JALkkAOSSAJBLAkAuCQC5JADkkgCQSwJALgkAuSQA5JIAkEsCQC4JALkkAOSSAJBLAkAuCYCMrL7lJesmvjNr6q/Lxi1f/ubqN1fPmDFj2rRpNTU1Nf89bdq0GStXr3zzzTffnF5W9uTUWfMmjioplwC4BVakfNS8WSPLlq9+tjb1/1K1qdrLqVSqJlVTU5OqqqlJpVL/XYNWFfhUVVXVVN1svdna2vpda3XrtJXLp//65VnPlUyQAMi9VTJvatnyGZ1NnZ2dTZ21l2tT2Nq7N1VDLrD/rRABrfqqBlCoar7Z3HwYQOHleaMmSADkwCoaNW/kuNefbQKrs6m2qbbzMtj/y6nLcO9Te0EEQB+c/QABVfCDdr+1urW5urm6Ga7DzY3Nzc2NzSvfn/7k27ccDm4dAAwdNbVsdUtLC9x7ddV21tZehpHfCAA1DP5XVVH8b61ubm5tbtYQcPjw4cbG5pvNjc2Hm1c+88jEcgmAkIX8d8pWtzShvUcfsPtNqc4U4H9tSoUAj/8g/rfqCID8v6nt/2EYARoPNx5uhKujubm5o2PlI89JAIRklc8rm9HSjphPsR/yP4UFAFP61/gPIYDxv7pZX4cB/dXdhwjo6Oho7OhoXPnCRAmArK91I1e3tHe1APbjEQDtf5MY/xEGbqoRQM3/rc1qCQAjgIqADY0d4NOxBXwaGzvGT59XIAGQtTXhnXHPtre3gNWk818PAFr+v0zk/70m/gPyt1Zx+a9GAHVtgPyHCACro6Nj/CMTJACyw/1x7V1rusDu/43NfxT/af6r/xD8rzIqADL/N9P5H/JfjQAddVvqttR11OU4BG7LUfKv7oKbr66mJkYFUFtL8j9VsxfbfoQBYwnwv1HlfwfiP9j/urq6LbkNgVwEwISRa1r07W+y5r/eA8JzP8X/mtaqmxT/zflfqwC24PxHEKhrG/+yBEBwVf/INV1q6qfzf5Mp/2MRALE/ReR/nf5VGP/xE0AzfgIg8r/Kf22tnCUBEAz7y7q6ulrI/Wfxv5Pk/96UKfpj/G+tuanxv5XF/8P0CYDkf11bXbwu/ky5BEDm1zszAPux/bfM/3gHYG8N1QOA1P9PS/4THYCODXgEwPnfVtfWFq+rG/+2BECmG37Lu7q6sP3n1v+dtSr/Lxv8ByfAFCv/owrA4P9NBv8bzfzfUofzvy4er6ubPkECIIMrMm9NFxX/8QDQ2YTzv9aU/2uoItDI/1UC+b9xA34CMPG/LQ7XyuckADK3/yD7w/jfLpr/L5MdQHP+r0L8vwkVANWs/E90ANQTAJP/CAKJR6ISAJnZ/gnLu9q72tvbyfzfwua/wA2AwX+tArDiP90BwJbBf7jmF0gAZKT6X63xv4WqAETyP6sHoPK/tRXxH+b/6maa/4fpDqCa/7dQ+R9DwAQJgIztf3tXSwsrAlD534b/RgTANCDW/MdOAOT5v47kfzx+Jv5+uQSA36vgdbD/XS3mEwCmAKjl3wCYbwDJ3ddPAEwFAH4DsIXsAND8T4DPsgkRCQB/1zhG/m8x5X8tAjjgP1sBwMv/Hab8X0fxHyIg/v4ECQB/2z+Q/+3mDqA5/6MTgNoC3Ms7ARD8/87Mf07+37IF7wDUsfkfTyQS8/tKAPh4AChZw+R/C81/VACkanH+76XP/wz+t1Zb8r+Rx39T/o+j7Y8n4s9IAPgIgNfp/G/TAdDz/17eHSAWAUj+YwqAwxwFANkBaIvT/I8nEsl44hEJAD8TAJ//phsAkv97GQig+W+tAGjk3QDADgB1AEhoK5l8TgLAp9X72TV0BGjC479xAtQ8ANb8N9d/RAXA5f+WLeb8z+J/PBlPJhKJ8cMkAPxJAFMZAcDMf/UCgOZ/jQj/qwn+8/M/WQHgzR+EgDhM/2D3k4nkjvkSAL6sPDb/W1j8T2EnQLsbAMIDZD4BaPxn3gDU6fm/zYj+8cQZyH4NAYlfSQD4EQDmrbG6AUBrednUeROnlo17lvQAWtwA4Pm/Wiz/b7HL/ygCJJLon2QyN5JA6CPA69b8b5pRNnFoJBJBvbd1v15t5wHkdwCB/6+R9ADo9T+tAYL8r4tT/Af1P4gA4JNOpKdLAHhfJdb8bxo5QSH6rtF3pmn83yvA/1aqAMACQIeFBrCtjub/mTg8AsD4D/gPQkD6OQkAz2tqlxX/l5crprZ775GXMQ+As/zP9gDp/K/DbwDaCP7DBhDM/0kYAZLpRDo5PyoB4DkDWCkARrJ+RTQ679m9Jg+APf/JDuAGq/xfZ87/MP1r/Af0TyR3JNMTJQA8rgmEBpDyAMzjXbqNmpHieQD0CEDyn/YAsPi/hdIAGdFfjQDa7sMgkAaf+RIAHte8droDbASAWdxL18ioaVwPAMn/6mZdBEJpgC3yPy0AOHNGvQJAuw/TfyKZBus5CQBva2QXVwNcZnl4vCzAfxsPoAj/1Q7gGbD92vkfngEA/9Pp9BsSAN7W8q4WtgeoZbn1LyxjS4CraP5zPAAdlh4AMgKc0TNAUsv/6SQKAOn0MAkAT+vZLp4HYJS16mbCtJQI/x16ACkNcJzK/1oFAE4AYPfr0/UvSwB4WeVdhAYU8wCNsz0/uuc/YQGw579aAej5H1WAaYSAZRIAXta6dp4CoMROdleghgArBQDLA7BBwANE3QAg7mMISCdU/qfr0yVRCQDXK/oOrwP4ur3ssozbAfjOmv+NjvN/3Ij+MANo/K/PgRwQ7ggwsp3jAZhq/2snsjWA1h5ghgfAlP/rTPnfuAGA9b/B//r69BsyAnhY4zgewKYS+187dBrlAWxt9c0DiOX/hFYDouhP8L++vv78eAkA76dAkwdoRp7ILxb1ABy29gAQNwB0/X8Gq/7RHSDO//r6+oujJADcr9UcD8BqkQKiDA8AXAWAWw8gQMCZhJb+4Q2gmf9g/VYCwP2a0c72ACwX+cW/rmLV/9WsNwBs+N/G8wAh/uv5P0nm//qL4PNhVALA9VrD8QCME4kAs8wawO9E+d9hx/943Mj/SVUChPHfiAAX58sI4H6Z+Y8iQJkIq2b57QFsi7P4b6oAsPwPPsskAFyvCRwPYJNQCpjK0IDf9M0DaNT/phsAg/8QARIAngDA9ACLFIHKr6n8b1QAFP9tPABi+T+t3gDUU/vfcLFcAsDtKmj5G8sDWFv7rFATwdoDZO0BJE2AZg+AqgHS7oCxDiCW/wECLp4fJQHgdvVleICQB1CgEaSsdO0BZPDfnP+RB0C/AUizTgD1DRcbLj4nAeAeADwPoH0rOFpSw7gBcOcBYngANQWgdgOA3QAT/G9oaHhbAsD9KYDnARSoAp+0PgHgHoAOpgeA9ADR/MfqP1UBkEzWUycAwP/zDb+SAHC9GB5A1QNsX1mtpvP/TX88gCr/KQ1oks3/iw0NFyUAXK8i/hsAZXa/dl5rq6AHECoANlh7AE0eIDr/J9M76A5AQz3gv4wAXgDA43+qNmVXBs6g5wBWCyoA7D0AcZ39CT3/J6kbAI3/52UE8FwDdBIRQH0DoLPM+kJwVisWAcweACr/W2mA23AP0BmD/3gFmNQ7gGk8/4P9P39eAsBrBOjsZMwBrJ1leQSYZuUBsvYA1ll6ABKGBzBJdwAZ/D9/XkYATzUAxX/8FUCLBsuwlSkq/9+0vgHgeoDNHsAzpAcwkWTyv17dfxkBvJ0CGK8AqnOAamunccuACW/WWHsAD4spAOpoBcAZXQFsaID4/G9oOH9eRgCvKcCU//VXQGqf5XgvS1bWsDyANnMA2RrANsoDeMZ0/jM6QDj/6zX+ywjgOQLw5wCmmA3BedNqWB5A1glgg1cPYDKhOoDSHP5LAHiLAFavAAL752pTo73kzdb/FNEAc14B5HoAzxgeQKwDsIN7A6DxXwLAWwSwmQNYkxpH5IHnylgaYEdzAB14AJMJkwII8P8izn8JAE8AEJgDmJpR9tyo8gKlvOS5J2eA+Q9oDpA/HsA6hgcIzwBm/jegE4AeAW5IAHhIAdQcEPYcwP/E5gCrIiAxD8AGZ/zXNEA4/ykNsJH/jQBwQwLASw1gNQdobw1vDqC1B5AxB3AL8xVgkwfQOP9x+I91ANDuywjgLQLw5wCmWK+AttY44P8GXgewjfkKoCEB5PG/Xs//RgC4ISOARwBgc4A6Kf6nxF4BvynmAbTzAMRJBbAF/7H8f+P8DQkAjxGANQeQOQcEbr/RAnDiAbD2AMb18z/TA5S25L8EgCcAiM0BqzK9A/6dkAdwi4UH0Mx/wgOcoDXAHP7LCOA9AnDngKUYrwBhHoDqanceQNYcIMwEqN0AsDoARAcQ8V8CwIcIkCLmANVYzgGq0j0AbuYAcfkft+Z/vakDqPH/tASApwjA47/9HKBmn+YAkfzXPIBJkweQ7gCq/L9xWgLAYwRgzgFkdAAEPIC2c4Ac8597A6DxX0YALwAw3wCo+T/laQ7gBi7/mR4A0yMALA8QfQOg8V9GAI8RgDUHLFVjNQdQjwDVzjyA/DlASUwDhBwA1vlfqwBOywjgNQKY5wDR6d/jHMAtlvzXXwHX5wCgAMDzAJxvMPH/tIwAXiKAlzmA1Q49gEwPgKkDSCsA+fxHFYAEgLcIgPMfzQEiIcCZA9Ts1xwg6gaQ8QYAlv8p/t8A/JcA8AQAkTmANW49gKz832b2ANIeAJ4H8Dx+AtT4f+OsBIAHAKgeANs5gFWZ8wBq+T+pe0Bs8/95nP+nz0oAeIgAYjcADjyADucAqvxPJo0OsNkDeJFWABj8P31aRgBPEeCy8zmA/BNAhxsPIOYB2JGw8wAQHcDTMgJ4BwCiv/UcwCoO/5vNc8A2iM4BJDyAhgcoYeEBJDqAN3T+n5IRwAMA8AOAyzmAfA+wzRxAkwcowVAAmfM/WQCcPnv2lASAlwiA539sEByX/67mAMVZc4DijCkASaYHkHkDgPh/9vQpmQJ8iACWcwB98ACwbwCScVwBkODyn3kDoPJfRgA/AMDp/zmdA+R0DiB2/k8wPUCkB9Cc/0EFICOAHxFA9wAIzAG0mQNm6wE4w/QA6WPArPlPnADOwgAgI0Co13O8V4CSxCsgO7gaYDv+ywgQcgCwPYCqB1jnf4LvAeDyH1UAMgKEHACcOYDxJOkBTFp4gBrM/NdOAKdkCgh9CmDNATLeAdP4nzR5AC/SHkDWCUBGgFyIAJw5oP7wXwIg7ABgzAGlPcDaHWC9jQeI5j9aEgAhBwClAU6w5gAlKf4zPAAc/ksA5FAEMPivR3+zB+iiYQHg8//0WX3/JQByBQDaHBB7DyDPA0TzH0BgvQRAzkQAswfQGARM3gBwPEAs/p9aLwGQEwBgeoCSXvkvI0DuRAC8/0ffAFhpgK35f2q9jADkmlCybt68d6ZOHTly5MgntY/H9Qj4uFvTzfxXFUCkB6De3gNoKACME8D6U+tP4bNjS1/5g8B6d/HatY9NueUAMOqdsuUznkXToJvgO/D6NIjazqbO2qbLwAmoucAv13A1gBYKgObGw808D+AWQgFcZ+UBFPAA8BQAJP9PrV+/HgNA5LFu2xXrjsVisYpYrGLJ06+sHX6LAGDdyNe7Wtrbu9rhJMBOuO/qO9BNrFdA91q+AaC/ASM6B5DlAYjH4/b5X/UA1Ft7ABj8P6vxnwCAIgYA9VNREYt1v/SH2bkOgKHzyp5t6WpvoeYAI+4D5utzQEgPoC3/SQ+AlzmA+CtgRg+YOweM7QFk858CQMx2GQgA/10Rq4j98ZXS3AVAZF3ZmvYuffubiEmgIADUNqWauB7glLUHEGqAmR7ADQ48gKQHSOc/pQDgegAZCgAj/5sAIM5/DAWx2EuPRXISABNGzjA238R/lPxrTfyHHoBUjYAHkD8HyKkHIJHA5sAkVQywNIAk/00KABP/nUUAMwC6u2Pw20uP5R4AysvWdIH9x6M/OQm4qVPlP/QAkh4AUgHGfgWk2s85gLgCCEQApx5Anf9ncf47iQDs/e9G3448XZpbACgv61rT1dXO439nZxMs//A5QLgHKCXgAXDnATZ7AFABYNwBJNKJpHMPIM1/5xGAj4AjR450d7+3NocA0Hck2P2uFlH+W7wCJOgBbBb2AJoVAET+Vx0A7FcAG5gdgNOnufx3EAE4AIDbf+TIkYPdBz+bE8kNAETemdHV3tXebsH/zqbaJp3/1q+AcjzAvs0BRPe/6iNA6AZghwMPwGmTAgDnP9kJfKzbOf+PqPt/8OCRI0tKcwIAJa93dXH4T04CbUo1pYgTQMrOA+h9DhDTA2hMgVRfgUvy5wDyPIBs/tMpwFH+N+gP9h+sJVPCD4DoO7D2g/xvZ/FfHQLQVMuaA+TGA9hsOQfQeg5QPK56gLBXQBLi/Mc8gGz+UxEg1u2A/jGC/yAEXDjyL4+FHQATxkH2k/z/m87/ToL/6AyYEvAAtjI8QHwPYIe4ByhBzAFNsD2AAh0Akv/8CBATpn9M4/9Bdf8vgI/PCPAdAOtmdHWpAaCFrACM/h96BNx4B5ycA5TivALc6vccoDP4JPCkGw/gjRs2+d9cBKrdHSH+a9WfFv8PXrhw4eCFTx8LMwBQ+BfM/7W1nalUJ5X/vXsAG7eIzwFjeQCTnDlAHP6fBvn/NDv/MyNAzC4A4On/IM5/uA7+x9rQAiAysovJfyz/Y3PAOlOdKfAUPGMOkNkDWJVRD6DhAU6ndzj1AJIBgN5/Uw1gDgHcsz9W/en7f+DCgX+ZElIA9F3exeB/C4v/nbUw/6c6jTlge1OM/i+L/62W/N/QITAH1MkcMOv8f5pzA2AZAWLWAYCT/bX9P3BgyZxQAmD08i6b/E/NAaT5v5f3Cqgw/7kKgDYLD6DdHDBrD+Bp9g3Ael4foNsUBJjHP5r/6joA14WnIyEEQBGT/39j8x9MAUBzAGqx/I/1gK3zP38O0BbmK+BCc0CS4nOAeB4AM/85ESDGCwAoAhxh8v8A4j9AwCvR0AFg9DiV/10W/MfnADbBEoDI/3Y3gGJzwDoE+K/OATIcICT/0y48gGz+s2sAPARY9f5I+qu7f+DAzp0HpoQOAOM0/sP9b7fM/wb/Hc4Bq2blf5sbgDb+DQDxBkCS0gCL8f+UDf+5ESDGDgDa6e8gq/pDuw8+O/8YCRkApnL538LkfyfoAqf0GkDkBsB6DtgG568AJ6g3AJgeAI4H8LQg/7k1AFD7sAKAdfZH/AcIeDdcAFiH7X8Xtf8M/sM5QPoJwMz/GvE5gIwOoGD+JzSAbP6LegDPuogAsRgeAHT+m3s/NP/hOvGn0kiIAFC+hsN/IwKQc4Brm1LYCYA5B5DSALqdA1jHmQNoKAAt5wA1OPAArbePAJTWx6b3d8HM/536+ixMEWC1lv+7WrpMJwAz/2traf6LKQBa2QoA5hww8hVA1hxQhx7A8zwPEPMGQKAGiHWbdD/s/T9gVH8a/8HnsdAAQG0AmhUAphsAbQ5gJ4v/NnMAb1YL8t92DuAZrQNs5QEQfAXwLLcDaFsDiGZ/vPpX9x+utyJhAcA6nf/tXaYOICP/X4ZzgGsdegDczAGsY/NffQUsgWmAk2mhOYDnneV/mwgg3vvD2K/t/4kTi8MBgOjQGVz+t9D870T8N9X/KR/nANnPAdTbf5oG2GoOoKgHcL2HCIAJv3jVv3n/T7w1JBwRoMz6BqCTigBAAVRbaz8HqJVxAmi2nQNUZ+8BQB1gPP8nza+AO1EAWPFfIALAUoCb/S+Ysj9cm09s3rx5bSgAsE6c/6oHAPT/amvxV4BTth4giv+HxfjP6gDou294gMU9gDYeAHcRwEz/g9zsr/N/8+bNm32oArwDIIKdAOgOYBPO/07MA1hrMwfI5AGl5wD5NgcwKTAHmJwDyPMAuowAOP8te38m/m/evPnFSNYBEH1H53+7Xf7XPUC1RgW4134OKFUAeJgDlMArAH0OYNrZHEBn/LePAPzq/wC7+jf2/8TT2Y8AE9Zw+c84AQh5gNkegGrWHCArDzDvFWCtAYTzP+1gDuBZoRsAsT4As/rn9f5M+//j5s0LItkGQJmmALDyAJD8dz4HyKQA8GEOYEKbArLDfg6IkAdQCACM+C+Y/XcS2R/u/5ebN7+a7QhQvoab/1ua6BMA0wPoqAPYTHgANzA9gOw5QIQH0LgDZnYA3XkAHUYA7Ob/oEXvl67+Nqv8/xF8vvzy/8zJLgAiI7X8b89/ygMI87+rOUCNgh4AxhwgNAmQeAVMfA6QjQdwvbO7AEL5cZDb++XRf/OPX/4I1rvZBYBWAVjnf4z/LA9ApjyAWA8Iz/+cOUD1onOAnPGfqwl01vvbSWd/tP+HfnwpuwCYapP/m8j8f5n0AO4VmgPqTgHAngNozAFKgikQjuYAnRbwAIifAlz1/jYb/FfXoUMLsgmAojVrhDwAXP4LeACIOYAePIDmOQAJjgfAZg6glQdAMAK46v1h1Z/O/0OHDr0bzSIA3lkj4AE08r/ZA5SqsZ8D1NysHwFxDfAGZx5A/QYQmwOUdjAHyC3/2RGAT3+b3h/OfrD9hza+lc0IsLxLVAPslv+u5gC2seYAnqHngOxg3AA0OHgFaL3bCMDS/Qj3/iD7Df4fOrRxSvYAUN5l8QZAE30DYMn/Gp4HyAcPIPQAYJPAyTlAIgqAG84UAHYRQEz3x+z94dkfrY3vZg8AU13xP1gPIJb/8VdAEnwP4HmhOSCi/Ge8DxBz0PvbiZ/9Cf5r+7/x8+wBYAatAfybKP9TXP4LzgEkLAD2HkBVBYjfAKoaIP88gGIRwGC/be9nJ6v6+xGL/nD/N24szRYA1nUJeoBI/u/VPEA2HoBmaw+AlQKgzt4DuCNpMQewQfwVQKcR4MgRB7o/OvtvJrL/oY1g/w9dXZwlAESmUgowVgeQw3/bV8C+s+Z/I88DWMf2AMYZcwCTLucAGjcAp0TW+rexr9naIw51f4zen8F+uP8bNz6drQiwvIvgP18DbDgAvXqAD7M9AKb8X2c1B0x9B9CzB1AgApxav/6UGQBOdH8E/xH7cf5v3Ljx6r8OyQ4ARq+h+N/C9gCCN0AuU/mfugJw5gFstPYAMuYAUvw3zQFz5QE8JRABAAKew75m77ru/f1oqv7VdXXjxhezA4B1QgoAjf+XyQ5ASsADyFQANDr3AJ4hFQCoBZS0vAHgzwEx8r9ACIA/cxT2NftDt2Pdn7n3h9iv8X/j1auvZgcAI8VuAGoZrwCmmAGAqwDgeQBYCgDqBKDPAU0SCiAvcwC1/I+214b/p9avL8HkU6946/0dOmTi/9WrV/d9nh0ALBfyACD+YxpAAQ9gdav1GwC0B8jSA2iaA5j04AHE8r9tHaD9BPxr9mrMrvd3gsX/LxnVP2I/QkBpVgCwxtoDVMvlv38ewC2W+T8e1/I/qv80D6CpA+jcA0hgwIL+p9Z/vAz/mj1tS39W9UfzfyPO/6tXr25clQ0AjOqy4D9bA1jD1QB78QASrwC3MW4AiBOAQw8g7xVAuxhg/Ogb+G3dkm7nuj/E/0Pk6Q/x/6+Q/1f3vZoNAEwV8QDSCgARD2B1tbv8z/IAml4BNM8BuehwDpBW/1mHAOMHf4d9zYYfca7741b/+tq36fNsAGDcmi4BD6CjOUDfsTyAQh6ANp4HkHgHNC3uAeB4gJkR4JRVACCGhs0+Yqn7Yur+fsT5v9HY/7/q/N+3b9+cLABghrUHCOV/0xwgPz2A1BygNrYHAHsDJpH2ZQ4QCwU8/hOHAGWt9f6L9f4I/u+D6+rY4AFQ3tVF8V/IAyB4A+DUA8jJ//QbIIxXwF14AO1iAPEjy/AS4BV3uj9G9U/s/z4PRYBbAETmObsB2Cs0B+Q7awWAxQ1AnOEB1FvA+itgKABYzQG19wByIMCk/6n1698gDwEOen/87G/a/3/8PPgIUNbF8wAS/Lf1ALRyTgCHvc4B0l8Bw/r/ibSTOUBsD6BNDKC/G78JGPLeQXe6P6z3d1Xf/336/m/a9I/DAwfA6yIeQIr/jucAHhbM/2YNMGoBofoPewfC8xwgKxQw20Tl+GWwS90fs/rX9n/Tvk2bNl19NGgAFK0R8gBeFvYAfWfyAIrNAbTwAOIeYNT/2cHyAJznzAFie4BsggD9XfMVogRwqfsznf2p/d+0aXEkYACsc+YBDHwOkJH/E/obAEnbOYDnrRUAdlmA8cP4IVB5ybXubyO7+t+Hdn/TpquLgo4AU8E9QBPnFRCOBzAlPgew2Wn+Z3mAsDcAksxXQNj5/4aFB/CUw8/HBXgbyJnu7xCr+tPO/ldV9qsIuPRRwACIlAl7AF3OATpsOQfIfg4g4QHcYbwCKOABvOEi/3M+xBlgrVXr30b3R/T+9lH833Rp06bhAUeAGV3mOYB2HsCUDf9vWt8AcPlfR/Hf9Apwgu8BbHBwA7DeOQAmRslDoEvdH3H6o7L/pkvgc+nFYAEwlKsA6GR4AGtMLlAb/ru/AUAeYNoD5MgDyJkD5IL/5E1g6UF+74+f/Q/xsj/G/0uXLv3XpGABsE7QA5ji1f9+zgFsY84BxN8ASHM8QA3nHcwBcg6A9RPxr9m7Bz3o/szVn8F/uBaNDhQAU/keIOYcQEEPIKsAcOEBNDzA5CugXuYAeg4Akbe86P441f8mdfsv7fso2AhQ1i72ClCN5zlA4nMAeR6ANESYN9O1AAAgAElEQVSA1zmAp9xUAPiXbDbKAG51f6zsb/B/16VLwwMFwOoWJx5AtgIwMx5A1hygtKgC4AZHAeBq+8kmkPL0BWfZn9/7I7M/3P9du3Y9GigALD2AtSYFeCqTHsA2mv8MDzB3DqDtHJD17j8lRAA4csGb7o/Ff23/AQIWR4MDQKTEiv+X+XMAa0TmADa78wDG8TmAOP93mOeANfA8AMYB4Ky3/E9JgRTlaaven4Duj1v9If7v2rQiyAgwr4Wf/2t98QBCCJAnAPYrwBT/tVdA7eeAOZkD6OazbBhOydkXLnjU/e2jen+bMPaD9XmAAIhMbRHh/14BD6CNB9jhHECtA8ifA8hUAFi/AuQOAB+PogKAR90fL/tr+7/1n4KMAOO4HqBO3hywKkv+W3kAHMwBJKaAqCeAtA8eQM8J4LGDB3Za9P6EdH8G/y+Z+L9119atpQEC4HUxD2DG5gC1WcwBIt8AMJ0AHHsAXaHgY/IEMGTJAc+6P8bhX2M/3P+tLwYIgGdbuPn/svAcIO8eQOs5QFoFIPwKoI/8X1ZAfL1eOeFa97ePW/3tIvi/devi4ABQzuL/ZaYHiHkDkAkPQJzwAOsOUMYrQPYewLNe8//H5UTJVPqpD7o/mv0Y/+Ha/mpwAFj3NzsPoL0HyIL/lnOALOcAJhKO5oDxPcBnPZ0APx6lRMkekB+6P3b1v1Xl/7mtMyNBASA6zw8PoK0HeIOzOUBmD6DXOYBuGwCEEBToAA74ovsj+b+L5P/Wrec+Ci4CjORpgEn+p/z1ANrMASQ6AGnPHkAPFcBvya/Wgk9BB8AH3R/e+yGyP+D/uXPnggNAGWMOkHP+t/o8B5B5AnDvAXQbAT6m+D/8rQMnrF/7FdT9sap/fZ07d+5caWAAWN5i5QEWmQPYqvG/2j7/C8wBOmOaA0TV/w7mABH538X+T6S+WJ/5pvuje38k/8+dezQoAERWU3MAaQ9AsHMAzxjnP00DnObNAXMwB8hVCbh+2Sjqi7XYN93fJdP+Y+wHa1VgEeBZ3zyA1Y48gHZzgBhvADiZA+RD/n+jgPpSPfapj7o/bvaHa/ukSEAAKLKbA+RwDqATD6CAAoDtAXbqAXR1/P8t/aWa8idW78+l7s/U+yP4v33bq0FFgJImeg6IHf8hBPgnAAsPgFD+1zxgmALIiQfwhiMPoIUGvJz+Si1Ywr75c6n722XF/+3bZwYFgHV2HkCROSC+zAE8g/V/tSFA2iDgzHkAOdl/YpSWZMx5S8//fuj+zNU/sf///nxQAJjXRHuAHNwAMOcAHXYwB8ikACA0gDwPoHkO3HmGAsC9Bvjj3xWYvk7DPz/gr+6P7P0Z+78d7P/27R8FBYBZTQT/LzufA8j3AHY49ADiHUBU/yUFPEBmBYD9GyCWn98NM3+Z5ny+04Xuzzb7m6v/7Wht2xZUETi1ybEHsErIA+hkDuAZZv7nzAG7yPUAax5ATx6AN8qjZkHenLcOOOj92ev+zGf/rSr7VQRs2z4nIACM5HgA3c4BFPUAMOYAandA+AnA8xzAU87E/78dyPoilb5lq/vb6FT3x6K/xv/t27ZtmxIQAMo6m5zNAeTz36EHsM70CgjJ/wT5CrjbOYAOhH+/G8X+Gi1YkgndHy/7b98GPtseDQoATbVsD+BergfQwgPQ6Ir/cU3/S/GfqQCw9wC60AB/vOyFt4fxvkRr/+Rc9+ei90fwf/v2sQEBYBzXA1jj3gOoVQCO5gAZHcBl85+ZPv2FD//+kb//e/hNeP0OfByv304st/gCDf/sU6bnj9n7u2riv03vD6v+DP7DtSoYAOSNY88BpDwAVY7nAFl6ANs4HsD4smc+fBvEYW/zE51KIqz+uClvZUz3x6r+t6vbv+3k4oAiwPJOWw9glf8ewDaGB3D89F+VDIko4VrvZlD3Z87+Bv9PbpsUDAAiyx15AEU9AJQCwN4DNP7DEiV8a/bnGdT9Ub0/nP7bTp48+VpAEeB12gMk7AHk8p/hAbD2AMbnv60o0WjYtn/4q58ecKv72ySg+2PwX9v/bSdPLgwGANHXBTyAjucAWXsAqTlA418oV8K41i75dKeN7m+juO7PovdHVX+Q/ye3BwQAZXXKPAcw5XkOoI0HCOf/h6Hc/iGL38q87o/q/RnsB2tFYCmA8Qqg/Q2gwBzADgEFwPgXyiMh3P457y7ZuTPzuj9m9lf3f3tgADB5gGzmAFULeQA7hDyA00PJ/tmv/ilTur+tbP5vM/F/98lFAQHgzcu2HoAqUwdYbA6gnQfw/VEh3P3hiz8/cOAEz/Prr+7PdPhXdx/s/7bAANBZ60IB0MpWAAjMAdL5P/5Xo0NX9y9Y/NmfLhwITPdnzv46/3fvnhkQAJYHNwcI53/dMxPCtfeRBWtfXQKf/fCk+3PR+9u2zcT/3bt3BxYBlruaA1gtzH+OB/ARJRzF35zSBVNmr333s88v7DxwAHvvx1/d31a27o9Z/e+G/N+9OygAjKM8APZvALj0AOH8Hz/R4m805bF3P3vppSVL3uv2ax2hx3xjc74vXPiPCwcO7ASOzwN+v/d3yar6o/l/Euf/7t3bgjoFlNU68ABV8+YAiXkANQS8z2v7Rma/+9J7FbFYRUVFrDvWHfO8iP23nfN74kSmdH9buTf/20z8h2vP7oAAEFUBgOJ/jfNXAC34v4XtAaybz0n/j332XqyiojuGdr4bffzjv8Cc3xOB6v5Y1b++gmoFKyPF+W9MAnY2B7COzP/Tmdm/9A9LKror9J3v1gDgMQAcMe2/+JxfN7q/S450fyT7jf3fs3vPntciwUSAqcL5n/YAOZoDaDR/XmBu/2cV3Yj76tbHDAS4535M3/+DR/yY87uRe/i32H8r3R9v//fs2bM7qNvAWZ06/1M1Qq8ACXgAtzBfAYTrZQaw57wKcz7Oe/zjkv0Y/+nsLzzn98fM6v5Y2R/xf8+eoPQA8wwPIP0OtMgNgNgcEKP+Z+3/HypiFeyt9xYCYrzo72TOb3C9P5z/e/bsCUgSpjx32VID5MoDyJ8D+Aij9FsCYr/V/rtif0yr/w6yqn/+nF837/251v1pvb/dWPWv7v+esdFgAFCieYDsPcCtXAuAqAfInP/nfAZyf7dlAIi5SP5Y+Udnfz/n/HrT/W1jVn9gHdtz7MWAIsCElFsPoM0cEPIGANX/5ou3JTEb9ruIAXD/Y6bs7+OcX790f+zsD/f/2OyAAKAENgew7hnTn724QmT3nQeBmHb6P2g6/Hua83vVZ90fo/qH+w9WaVAAmGHtAayy8wAJzAFCGFg5jM5qn4nvv0P+i/b+PL335133R/b+EP+PQf4fO6YEBIDoct/nALLnACWo2//IkJcqhLffUQiIdYv3/nby5nx60v1tFdP9Eb2/PQT/90wOCgDKOIdzAEU8gFsYHsCX6fLvpVjMCQAc1P9078dZ9g9Q93fSVP0j9h87tv+DwADwZIqnAGj1PgdIP/+ZCoDSJQ73XygIxLDmPy/7H+Bn/4B1f+bsr/L/2LE9gT0Ro8wSzv/cOYBWc4BUBIyfQHaA5iypqHC6/3bcj7Grf37vz43ub5+fuj9T9afx/9j+FYEBYCI7/4t5gETnANb9ilLe/bGi23EAiNmRP2bsv33vL6D3/hz0/jT2Hzu2f//+SYEBoCTlcQ7gBoE5gO9TqvuXKmK23R9HIaAbu/p33fsLXPdH9v707QcAGBsYACL/be8B9DwHkDwBjP4sFou5CAAx6wgQc9772+yv7m+rM90fZ//B+mpKYABQVle5nAMo4gFEIeAFsgOwOOaK//wYQPHfvvcXEt3fHlP1r+7//v1DggPAuEx5AI1FztxYUOGO/vBTgehO/Evr/rMP/wK9vyzp/pjVH1zHXLUBXALg1354ALdYeQA/JAuAP9pvv0WLUKv48X9hvV/h3l8YdH/67lP7f31/cBNDFGUWtwNoPQdsg5gCIB4fT7y+M/oVodsfy0IAVfxa4W9x9g+37o+Z/eH+718YYAQYZcf/m7YeAGsPIBkAZgvVf3gw4IADx4NN9Reg7u+cE90fzv/9GP+vX18VIAAKfJ4DSHkA4uMJEfDol4QKQCLmd8cYMMB/E+e6v81h0P2ZDv9o/8GaEiAAlNVVFgpAyzlAW0TmAJEB4N1YrNtRBOi2yglY9eda9/dl8Lq/Pdzq7zrk//UflCABMI7jAbjpzxwgwgUyp6LbIgJUCNUAVGPAu+4vg+/9Cfb+9u8n+P/V84EC4EltCADG/+94HmDLOYCsOWDk3FXLCjDGjADW1WDMo+4v4+/9Wen+iN4f4v9XAADHFwYKgImZnAOUmEXcAbzH2vcKR9uO/eTuHNf90fy/rq1VgQKg3KQA+I7nAbSZA9RmngMyvoisACwrPsc9YcHenxvPbxC6P5z9qPqH/L9+vDRQACjTnM4B5M8BNc0BJITAQ5bYVXzOLgZc6/5+9Ff3d86l7s9c/YP9P359shIsAJa31pj2n/YAuJ0DSBjB13roAZvzfw7o/k5a6/6I7H9d5//xRQED4EnL/O9oDpBpDjCRAV6K+bb73NY/t/pz9N7fPr/e+7M+/NPRH/D/+PGvHg8YAPNoDWAz9xUgqzlgrFeAiTNAqQsVkGX1d9Bvz2+wuj8T/4/D/T9+fErAACg3ewCbPXoAVQSQUtA/+BUAYu51fz/6q/s750H3Z87+6v67LQFcA0CZ1lrlwQNIzAFqI+cAjsKVAEsq/OA+9+bPXP0FqPvb7kL3h/f+sP0/uiJwAIzja4Ad8N88BygxHtcBlDrc/woeCjzo/r4Mk+6Prv7V/T++KnAAvFzjwgPIfAWQmgM43+oMUGHnCWbzPzO6v78Gofs7xu/9Gfw/3jM8aABERnE9gM3OPYA6As4kEngXIPJZzMGlP6c74K33ly3dn232x/h/9OjzSuARIDJN0AO4wdEcoDMJogZcEnMZ+yti/Ju/g+yzf1C6v+1edH9g/7/Cs38P4P/R14IHQHSc1RzAw67mAJ4BEWAiXgI4cYKyQkW3uO7vhL+6v13iur+Twro/jP8Y/Y8e7ZkdPACUl/3zAGKTwBMJXA36WExYBmh183fEKvvnlO4Psf86nv2P9hztcX0I9AKAUX55AI05QGCNt78IYouAnGR/f3V/m/zV/Qn2/jT69xzt6VmRDQAo025aewA22HkA9RPAGWMOWGIZ/ke8GnMoAqL4n5neX1C6P5ve33HE/qM9RyvHZgUA4+zmgG0Q9AAZ+T+RIB1hL3mJAN083d8Bf3V/mwLU/RH7j9jf03P06+FZAcCsm1YewA0WCgDuHMBEIvF+kbs+oHfd3+asv/e3x0nvT+V/5dHKykVKNgAQLbGZA7jB0RxAdf/JPtAS8ZugDOj+st/722/R+9P4X1npJQN4iQDKyiom/zlzgGzmAKr7n3gmD/sT3nN77+tZ9/dlKHV/TP5Xzh2eJQCMa/VrDqDO/0SceBakwq0dOPy6v5Piuj9m7w/yvxLwv9LDGcAbAGY137SeAyJ8AxA3EEA8DNjtiv8xX3R/h0Ko+9Oi/3GV/YD/lZUvRrMEgL6tYnOArDxAJP8TyQQRARxd+VH8v/V0fyb+ozU5mq0IoCw/fNPRHDDWHEA1/8fR9ieJCDBE7MpPtPd3AT/7B6/72+ZN96ed/bXsr8b/ysqFStYAMMupB8ic/+Mw+sf1AJDEI8Box1aAbue6v9C992fb+zva03NUo39lT+WU7AFgwk2+B1BkDmCcyv/WEcDmSlhU97fTre5vX9Z1f1jvTwdA5QdK9gCgjPPoAYxjuw8RkExO59YAtgVB0Lq/LPX+jOwPAkDPpGwC4G3xOUBtQvwni8Ah9loQY2RMN6P6d6L7+zGcuj/z2b/naCW2vp6TTQDkTXM4B8jkAaD4n+TXAN3WHeCfgO4PP/vrAWCRkk0AKC9Y5X87D6DG/7jB/x3J6c4igLDub2eI3/uz1P0dZ/T+sPVUdgEwqtnaA2inAIhjJ4Ckmwjg3vMb2vf+rHt/5Dr6SSS7AFDebxX0AHH4H8fz/47kjuQb+O8uEAE42d+17m9jwLq/Y2zd11eWvT9jeSwBPQMgMqvaxRxArQdsbL8aAHaQEWCISARw8t6fG93fPn91f7vFdX/HycO/mf+VlXPnZBkAStHKm4QG2IEHEPI/nown1QiwI5lOpokIYF8DEL0ff3R/G0Oq+zOz33MX0A8AKE8Sr8A68QDAM4C+/5D/6bSLU8At9t4fL/sz+F/ZU5p9AExoFp4D2EZ4AFD+B/uf1PK/0whgqfvK2ff+bHt/xpoZzT4A8h5x6QGE+R/yH0WAHckdO9JpbhHInBTKf+/vVtP9VTLXU0r2AaCUT+N6ACwVAFr+h/xPJ5OQ/+n0G7wiMCZU/TvT/X3Jyf4h1P2x1tJoGACgvMz0AFjcAMAMQPE/AflPRQDLU4D5xQ9/dX/7/O397fao+2OtF5VQAKBopcAcQHP+VyvApFoBIv7Xp0VqAF88v2F970/l/1Fb/lc+Hw0HAJR5wnOAdA8AjP9qAwDwP52A/KciwGgLF8gt+94fW/eXqQDgCwCU+c2mGwCOB5j0AGgdQIP/IhHA2ayPnHvvj87+3P33owLwBwCR8sPCHiDtBgB+S6odgDSAAFj1ZBHIiQBC7/3tvKV0f4wWwJUFSmgigPJIo5AHEOM/yP5xNf8n0sl0Au2/fQSw6f3Z6/6+zJrub48L3d9RLgIWKiECgLLSEf/xGyC4/0m1Aqivt48Ajnp/bnR/+0Kn+2OtycNDBYAS1QfM9gC2Web/JMb/+nrrCHDr6/6OWvf+9LVKCRUAlFmiHkAs/6tXgCADqPy3jwACur+dt5ruj1UBzFRCBgBleqPdHKC41gEE2T+Ooj95AgAI4EcAx+/9nciV9/7sdH+MBDAndAAY+r6tBzB+hvSAoACQ1k8A9TQAFDP/f4K6P1YAGKuEDgBK+UqrOYDGDYDR/9MyQNrgv0UEyJDu72oY3vs7Ltb79/sE4C8AlJLx1h5AzQOm3QDou6/lfxMARmdD97cpm+/92Wd/2AMeEkoAKKM6Omw8ANruo+yfSKNbQIz/F+tZl0GsF1/4ur8TodP9Weq+jPf+7M/+agFQqoQTAMrE8dw5QGT+T7Dzv6kGIKa9cA7/9rq/H/3V/Z0LWPdnKgB+r4QVAMpz4zssPIBIAaBXAGkYAUj+syKAzZxf17q/qzmi+6OV4GOV8AJAGTWe5wFE+i81/2smANQBwPhff5GZAn4q7/3Z87/nyuNKmAGgjFqpeQDs+Q87gPXY/tMRQImxbv5c6v4O5cB7f/bx37sRIMMAUCY8Y87/cXP+Ry1gE/8vMiPAT1r3R/B/7iol7ABQIi9TLlAW/2H/X8v/aY39F+sbKABY9v4cv/fnRve31UXvz0/dH+kD+b0SfgAoSsl8pgcIUwCCCJBm8f9iA9kJ1JJ/hnp/bnR/2/3V/R0V53/l0gVKTgBAUSautOM/iAA76PzfcJGOAEc86/4OZU33d8wP3R9O/8fzlFwBQFR5eaWBAMwCrBYA6QQj/9dfvNhARYAjGZj1cTW07/1ZZv+emaURJWcAALTCs5bVYR5AUgGY0M9/aZL/DQQAhmT1vb+twen+7Pm/dHaG9iljAFAiytvzEQLilAIggSmAKP43nDdFgPDo/rb7q/sT7v31XFn6Ysa2KXMAgDeEH65E/McUAEniBEDw/3zDeVMEENf9bfam+7uUNd2fzfpg0pwMblFmARCNFpX86oX3kQbU8ACkufwnI8AQi9a/gO7vkL+6v+2B6/4qK+cufXxBRncowwCA9WAkqpS8/fL0+e8vWzYe9wAR/GdGAOUnqvubO/mTL5bOXDhp1VNDwBcwtwFAlgXO1pDM9/6eVn7i67Yw/+WGuNH9OXvvTwIg9ADIqO5vlwRA2AGQYd2fBEDIASD+2q8r3Z+MACEHQMbf+5MACDUAXOj+Donr/i5durRVAiD8AMio7k8CIAciQAZ1f+ckAMIOAEe9P+e6PwmAkAMgw7o/GQFCDoCM6/4kAEL9txPo/Xl57ffSrn3PP+psPfXoUw7X70slAFxHAG+6P0vPL9L9XPqvf8+47u9xCQCPAHD+3p8b3d85f3V/hvBHAsATADKm+9vlVve3x6HuTwLACwAsdH8/hkX3Z+P5lQDwAABHur+N4dT9SQC4B8AtofuTAPAIAH91f7vceX496P4kALxGgMy+93fOX8/vcdN7fxIAngDgx3t/l7L23h/w/EgAeANAJt772+rivb89u23pz37vTwLAAwB8eu/vkov3/k769d6fBIB7AAjo/jaG/r0/CQDPAHCl+9sU2Jxfm/f+JAC8AiDH3/uTAPAEgMy898fv/Z101vsTeO9PAsBbBPC197fLee9vj5v3/nCrpwSABwAI6f7+Gu73/iQA3APglnjvTwLASwSw1/1dDft7fxIAXiNAjr/3JwHgCQB83d9V2/f+dlm997c9qPf+JAC8AUD8vb9N/ur+9jjQ/Vm99ycB4AEA2dL9+TnnVwLAPQA8vfe3K9D3/viv/UoAuF/+6P62+q/7++D5ycLv/UkAuF8h1P3t/+C1F6HXZ/iUx2fOhWd/m/f+JAC8RIDAdH+7xXp/r5FGr7Ef2L/3KQHgoQbwqffnRvfHyP77V5h9fo9PtnvrXwLAAwBCpfuby3yyefhSm7e+JQDcA0BA97dJXPe33cuc3+vHPuG82htZKAGQsSIww7o/J72/D/hvdk+SAMhUBMiK7o/V+zs218rmP1MCIGMA2GjV+3Oj+9vmSvf3g+W8riFfyFNAxiKA0Ht/fur+WJ7f/TYD26fICJAZAGRG9+e89zfXbmjHoisSABkBQDg8v1/ZDmwtlQDIxPJR97fNk+7PfmrPInkXkIGVSd3fbnHd31cz7f+qY4Ma9/2TAsC/HvJvzu82D7o/gT2cc4UTAnrGSgC4Xh+FQ/d3XeSpv6Wc/a98UQLA9fpc9L0/a92Xo97ffrPub67I33Uh506oZ7YEgAcA2Lb+BXR/2zzq/q5/IvJ3ncSrAhdIALheT/9rKN77Wyoy724sTxMgn4p1v14Lx3t/M0X+rk/1sEuAyYoEgOu1Nhzv/T0fFYoAnLnfUQkA12tKFt/7wzx/IiSOPs4BwEIZATysAHV/Fqr/40KngCu52AgMOQCiTzvP/h51f8z3/kQK+ZmcGnCKBICH9e4mr7q/k3689zfJ/m865Ar7FBDyGjDsAJgdjvf+lgrUgOw+UM8KCQBvzeC/+vLe324X7/3hnl/7s/yKSnYEGCsB4KkIeDVA3R/3vb+eytfs/qKlnDZQz3AJAE9rwb5NLnp/2/x476/HeO+vZ26pbQBgAyDsGSD0AFCeDkz3Z/nen81pfsEVzlXgbAkAj2vsvjC899dT+ZRVQ2/IF5wA8HxUAsDr+tyn3p+39/565lr0AqKLKjkXAasUCQDPISCzur/rYu/99VR+YukMYgeATxQJAM+r6OlAdH/46c/83ldPZU/PB7xC8DXe/veMlQDwYT367xnV/X0l9t5fT2UP2x0aAQeAnly8CMwVACiLhF77zfR7fz2VlZMZFzsLlvK2P+xisNwBwPCP/Nb9uXrvDxD9A8oiOGfFFS7/w34RnDsAUGZfyrjujznrwwyAyp5PFr44RCP/pKVXKvmPw3wwRALArzVpk++6P8vsz9vUHhUESxe+tuj5uZU9V3p6+ACYokgA+HYlMDPzc36P2r33hyGgR/tvfgAQuUKWABAvAz4/l5H3/ug5v9bvfRkIMJDA++mLFAkAP1fpnzM957fHlv4MAPD2/+jSIRIAPheC/7TLz/f+OHN+K+0AILg+maNIAPiOAEvd30mvuj8B+ouunk8WKBIAGUCAK93fMSdzfv1ZH8xRJAAygYA/i77350j3Z/XWvyv+Lx2uSABkZC34yAfdH539fef/ilz6kuYWAJThT/vU+7su1vtzw/9JigRABtfCrTY3v97m/Hpec8cqEgAZXWP/nDHdn/d1JYfK/1wFgFI6c6tL3R+t+/E9+1cuHKJIAGR8DVn8v/3U/fmX/Se/mHtfzFwEgKKULjrnqPdnqfvza81dOFyRAAhqvfiBQO/Hoe7P4+GvNDe/kjkKACWy+M9OdX+Z7P3NnBJVJAACLgUe/4tH3Z9Pvb+enudn5+xXMYcBoESGT/qLs/f+BHR/LtbzYxVFAiBLncFJf/FZ9+eY/ot+n9NfwRwHAIDAP/xff3V/zir/BTn+9ct5ACjKkLFL/dX9ia6jn0wanvNfvVsAAOA1uYV/Oab1/vZ71/0JFv6rboUv3a0BAEXJe3HR/1i893ft+rVr145fu3bl2hUnq5Lz8lvP3Jmrht8aX7hbBQBKRBk+dsVfVPb/cOwHsP8/XPvh2nX1c+3ata+NzxWxD7F6rvQgPMxddMvs/i0EAEWJRqPK71/74H9++J8fsHXth2v6+vra18T6nvo3c5FI+HryilXDI4oSlQAI0c5HohGwwL/zoqWPz/zLNRUF3/xw7YdvwOca+Hx/7Zuvv0ef7y2+mT46DibPfHxKXl5eNIL9iRIA2SW9tg95eXl5fYr69CkCq+8/v7b0mx/UD7G+h59v4DfWQj/2/ffwm7YALr6fvGjS7/v2LRgNfv8+fYr65OXlRSLanx+VAAg+5yMWRiN5eXmji8DGjy7qV9Svb9++Q/v2K+hb0PufX5v57bdgU39Qvzle32ufL1asmlIwsKBv3wLwu/ft16+oXxFAQp+i0SgeoOgjARA07xHri4rAzvfr23doQb9+/QoKCnrfCdfAgQOnrFq4dO63337z7Tffwn+wBb+DWEwQfLv0tbFzCgYOHDgQ/aa9CwrAn9K3L8QBQkERiAY5GwtyDAA670cbew8536+gd0HvAn3rB9498O677x42bNiwCVPGTlr0xbfO1z/MXPj4v4HfYdh99999993gd1RRcCf4s/r1KwA4QNFAzQnRHKwLcmxDB9kAAArxSURBVAgAWL5Hew+ZiFh/p771YOfvv3/w4Pvuu+++QYMGDy4eVgw2ccrYSSu+mCy081/MXDhp1T/3B7+ueBD4LQYNAr/Z/YPvh0DQo8GdejQAKACVAQQBQoEEQIaYD6I+zPf9NN5rW6/u/P1g4wcPGjyoF/j06tXrjl7FYJWPGVZefNeUfxv7+KSFK2Z+QcWEL76YuWLhpMfH/tuU/sOGjSkfMwz+mmLwq+HvA4AwaPB9gyEOUDQYCDPCnTAWDO3b1xwJJAD8232YXiOA+X1Q1O9bAIjf24j4YO9Vzg+C+96r1x13gD28AyzwHwMG5BePAau8HP5TXF5cnq9+GzOmXP3uMWPy8/MHDCgsLES/tPgO9HuA3xDgYPBgEA4Gw2iAVwZqNBoNIkFOYSD8ANC5r+Z8WO1B5ve+806U6+HeA9YPgqy/oxfYN7B9hcWFxQMGjBhQmF9YWJj/QP4D+QAB/cf0z7+d+vQH3zsG7X9+/gOFIwoL80cMGDFgQHFhcaGGAz0egGigxYKBWl0AIwHMBvB8kCMYCDkA9HofcR/QrEDP+SrzYcxXeQ/IjjhfWDhgwAC07w88AHf1drjGjLlXXf3xhb5nzL1jxqCfdjuAwQP5DxQWFhaOGABCQjGKJBoKUCwgIkFvVBL0gxDIlThwW7hjfxRVfXq9r2d9mPNhxlfzvc77wuJClfOA8bfn3w62FGxwf/T5mfH5mfoN+/RXf9a9Y+4Fv24MiA4QB/koGqCsoKFAjQR36ycEPQ7AEyLoEoT9XHBbuNkfNWp+mGMx7t8PuA9qM4z5kPcjCgsLAesR4QHTEdt/hq1fshb+E1BUALgZo4WDB1AwKCxEVQUqCwbBMwIeB1A9gMJAkXosCHF/4Lbwsl8/7xehmr/f0ILeet4nuV8MWImYr/Ee7r3KeGLT7wIfuB7WP3fBb/BHcCzAmGCgAMSCEfmFA0YUFxaPAFUBEQcgBtQugXYu0KNAJLRR4Lbwsh+r/PoO7devX+/eauxHVR+q+Xr16qVyH1IfpHtAfMh7nfXqzoN9Vtc95vXwPeiHVCzgOOiPUABLA5gPQFFQrMcBvR7Qa0JTFAgvAsIJAPQV08/8Ru7H2K9WfYj7hYj7+Trz+6vMVzkPeP7wPQ/fcw/6vz9HH2PB/41QgD4QBygeqLGgP8LAGB0D6ulArQn1agCPAqg3EOoTwW2h5X8kL0+r/PUzP8z9BvtR5gdH/BHwlKdxX2U+xnu4t/fcg+/5z/8OX/A7EBaweKDFAi0SgECg5gKIOfTHgy4BiAL3oSiAIACOBENRZwDmgWhIEXBbyPkPzv3auU+t/I3cb2I/nvUx5sPdN3b9N/DzC3LB74NI0HCARQIjDoDzgVoPGFFArwW0PAD2v3fBULoSCCMCbssN/hvH/sGgD6dG/2JU+UH254+B+39vfyPya9zXmA83/zfajj9ILu27f6PFAwCCh2HSeBjFAb0egNVA/gNGLVBcTCDgbiIGhBwBt4We/zD/a9W/mf8DRuTD6D/m9jE4+8H+PwzjuLH7GuvBfj/0IPq/6KN/jx4NVAzocYCIAkYeyAd5wKgE6BhgrgMkAETPf1j9b8r/Kv9R7Y/4fzva//7k/t/zsFrr6dxX+f6Qup4AS/1vPBb8RgsD9/wcRQEMAbBraMQA0BcoRjFgkI4APQYUgLvCMJ8FQhoBIqPz+vRR7/z66b0/VP8P1s/+d2j5/3Y1/1P7//A9D2v7j9j/oMZ7devxBSDw0IMP/UINA1omuOfnphjQ34gBVB0AK8H7B+unwd7GaTCsOSB0AECNs7y8IiTvw7p/xvkftf7Q6R8d/lH5f69e/avpX93/nxP8N6j/xBNP/C/4j44Adgyg6wB0GEBnAa0jgBqDeA5AVQACgIwALmsALAIYHQC9839HYTGMAA9oEYCo/2H1r0cALAE8xAoAT2BpAK8DwP7fw44A+VgE0LuCZDegX7++Q4tkBHBdA/SzrwH0DgCqAbAjAOr5MEIACwMPkfzXAwA6QuIBAPUFxwAAgCqQeQ6QNYCfXQCjBhh4v3YD0As7BRSOoE8BVP9HPwJSx78nHnziCfDtoQefgGeAh0zbz+K/2gsYY5wCRmCngMFkBpCnAF/7AOj2X7/7N6qAfKMKIOtAVAeY2wAPspbaCDA6AfcQ+R87A+j8H2HwvxfeBzDdCMg+gA9VgBEDBpExAHUCiJMAFgW07r/eDfjN3+ndoF88+Au9BfQLvReIVf+I/UQfaAw8AcAzIN0FGEzcCMEzgOwEuqsCuDGAqgPgWXDAAP0ekOoG/FK9AaRvAv6OtfSbIRj179FuA35p7P69Wif4gXz9AKDdBVB9QIz/QB2E/l+SdwEe6gC8G6jfBsFuwAgyCmAdQQ0EprtA/E6IuBOEvQPws+4y7gN/RtR+6vlfjf5U/U/Uf+HvA4dcDwBjQJ+i0fhZQK8EBpmigHonkI9kQNqtAKEGuEvXAjys5oafq/v9sFoxPqxdAt6Fi4SguACd/YFSkLoJ1K4CTZoQVP+FWxsYVkWQ7gACFTRRCehRQO0I9NK1gAPUOJBP6oHwWKCqgR7mfO66S9cE/ZLSBEElQL7OfYYWQLsDwM7/o0OvBwmxJpCqBOgooGYC/USA2gKFUAmMdMC4IvBn/a3lgAxdoFkVCDTG8P6vWOv+4zoA4xIQJf8i/PgfXmVwmFXBrCig6gLVviC8GxysxgHYHR6BdKGEJvjeMZomuL+hB2YtXRt8r6EENOuCMTUg5D5Z+Rt6wD5hj/6hBwARBdCZEFMHGXHgvkFwGZHAUAdrrgDCE6Bpv42lqsZVe8C9yBigaoEh7w1NuMp8e2NAkfQF+IQB3RvQB+kD0ZmA4Q4gfEHFmC+oEMUDeFJEUUGzf+BrDGI7qvMeyAc1ZSHHGzSIcAQY3O+nusbVlwNywSucA95A1W9LxYF+Bb17G/6gu5EfGNUEg0hnYHExyt1qTIArH/rEECq0/8rXfxBYgYAXqFB3FmruwEGaO/B+NesPNHzCQzHuq+f+HHCK54Y7OKLHAa0eQO9B6G8CaB5BhjcYKcfu0Bxj6FMIYgPEhPptAPw+9BmhukLRKU/3hVL+YG3vDeWPvvu59E5A7rwPoNYDmk8QRYKh9OsAd2s+YRANQDzQvMKwSkRhASJCR0Wx7gHWfkzbdXXfAefh76h6gilXcIHGfM0PGM0R7ucaALBzQVR7F0h/H6Rfb/KlAHRGQN0CWB+oFYIeGRhrUK9e+s9Au44Yf9/g+7WdV18F0N8IGYq9FIO9F5RLX9LceyPIeC1AfSWmiPVCkP5aCAwJKhbQgrEcxgdsDVJRov+swfeDBX/9QOxVEOqVoCL9ZZBINJJTzM9dACjWb4RBHGjxoDf+ZpD20RBBfe5X6zr8o57ujHeBIOtBjw/uPfVOWE5+KXN5YIT2WhiAQV6RVhmgVwQQEkBI0E4LxBrIWuafVgD4Dn8jUOPDw0eRynr1bbAc5f0tAQCjT0C+FmlEBPXdQOAsgJsII4PxuRP7kD8Cfi441Q8F7wLC+l7L9JDzeZFcfx3wFgKAGQcoIgBNofpyKEIDXH31NZT4wBcgtYV+qhrlAd37oNOdkelvjVdibykAUB0DAgujYZ3QB0NEEeTzaOKDvq9I+5kq1+m3gW8Bzt/aAKB7yNqKRvX/nWe1Ilpsjxpcj9xyu/6TAAATD+QH32H681P5uvxkACCXBIBcEgBySQDIJQEglwSAXBIAckkAyCUB8FNf/x8hJ5LkBKnZDgAAAABJRU5ErkJggg==;" parent="87" vertex="1">
                    <mxGeometry x="235" width="110" height="110" as="geometry"/>
                </mxCell>
                <mxCell id="37" value="" style="shape=image;verticalLabelPosition=bottom;labelBackgroundColor=default;verticalAlign=top;aspect=fixed;imageAspect=0;image=data:image/png,iVBORw0KGgoAAAANSUhEUgAAAgAAAAIACAYAAAD0eNT6AAAABHNCSVQICAgIfAhkiAAAAAlwSFlzAAAOxAAADsQBlSsOGwAAABl0RVh0U29mdHdhcmUAd3d3Lmlua3NjYXBlLm9yZ5vuPBoAACAASURBVHic7d1nfFVVvsbx56T3QkjoHRJ6BxELSFewI2LDrled0RlnHEevjjN31KvjjGMfx4ING47YkQ5Kkd6kJaEEkBASCJLez30RnMsgJdnl7HPO/n0/H14oWWv/CeTsZ6+19loeAVInSedJGiQp/eh/x0lKkuRxsC4Axh2WVCbpiKTso7+2SloiKcvBuuAn+HB3rzaSrpd0nepv+gDcI1fSPEkfSpojqcbZcuAEAoD7pEt6QNI1ksIdrgWA8/IlvSPpGUk/OFwLfIgA4B4xkh6WdK+kCIdrAeB/qlQfBB6TtMvhWuADoU4XAJ/oLmmupEvF3zmAEwuV1F/SbaofHVwupgaCGiMAwe9aSa9KinK6EAABZbvqpwpXOl0I7MHTYHD7taSXxVw/gMZrIukG1b9JsNzZUmAHRgCC1y8lPed0EQCCwnRJUyRVOl0IrEMACE5XSPpAUojThQAIGvMlXSapyOlCYA0CQPBJl7RaUrzThQAIOqsljVH9JkMIcDwhBpcwSe+Lmz8AewxU/RtFyU4XAvMIAMHll6p/jQcA7DJA0gJJKU4XAnOYAggeKZJ2SkpwuhAArrBG0mgxHRCwGAEIHneLmz8A32EkIMAxAhAcoiTtU/17uwDgS4wEBKgwpwuAJS6WBTf/kJAQjRk9RuePO199+vRRatNURUSc/NiAsLAwxSew3hDwN9XV1SosLNSibxbprl/cZfflBqh+YSAhIMAQAILDNWY76Nq1q5564il17drVinoAOCg8PFzNmjVT2zZtfXVJQkAAYg1A4AuXNNxMB2cNPUvT35/OzR+AGT+FAF4RDBAEgMA3QCbe++/QoYOef/Z5RUdHW1gSAJciBAQQAkDg62um8R8e+oPi45nHB2AZ3g4IEASAwJdhtGG3bt109llnW1kLAEj1DyazxUiAXyMABL42RhuOHjnayjoA4FhMB/g5AkDgMzx+n56ebmUdAHA8pgP8GAEg8MUabZjShJ9JALZjOsBPEQACn+HdHENC+esH4BOMBPgh7gAAgJ9JTEhUaGiolV0yEuBnCAAAgJ9Jz0jX03992uoQwEiAHyEAAABO6ILzL7AjBPSVNE+EAMcRAAAAJ0UICF4EAADAKRECghMBAABwWoSA4EMAAAA0CCEguBAAAAANRggIHgQAAECjEAKCAwEAANBohIDARwAAABhCCAhsBAAAgGGEgMBFAAAAmEIICEwEAACAaYSAwEMAAABYghAQWAgAAADLEAICBwEAAGApQkBgIAAAACxHCPB/BAAAgC0IAf6NAAAAsA0hwH8RAAAAtiIE+CcCAADAdoQA/0MAAAD4BCHAvxAAAAA+QwjwHwQAAIBPEQL8AwEAAOBzhADnEQAAAI4gBDiLAAAAcAwhwDkEAACAowgBziAAAAAcRwjwPQIAAMAv2BgC5ooQ8DMEAACA37ApBPQTIeBnCAAAAL9CCPANAgAAwO8QAuxHAAAA+CVCgL0IAAAAv0UIsA8BAADg1wgB9iAAAAD8HiHAegQAAEBAIARYiwAAAAgYhADrEAAAAAHlgvMv0N+e+hshwCQCAAAg4Iy/YDwhwCQCAAAgIBECzCEAAAACFiHAOAIAACCgEQKMIQAAAAIeIaDxCAAAgKBACGgcAgAAIGgQAhqOAAAACCqEgIYhAAAAgg4h4PQIAACAoEQIODUCAAAgaBECTo4AAAAIaoSAEyMAAACCHiHg5wgAAABXIAT8JwIAAMA1CAH/jwAAAHAVQkA9AgAAwHUIAQQAAIBLuT0EEAAAAK7l5hBAAAAAuJpbQwABAADgem4MAQQAAADkvhBAAAAA4Cg3hQACAAAAx3BLCCAAAABwHDeEAAIAAAAnEOwhgAAAAMBJBHMIIAAAAHAKwRoCCAAAAJxGMIYAAgAABCmPx2O4rbfOa2ElwWH8BeP15P8+aUcImC0p2cpOG4IAAABBKioqynDbwz8etrCS4HHxRRfbMRIwQNJ8+XgkgAAAAEEqLi7OcNvc3FxVV1dbWE3wCJaRAAIAAASptLQ0w23Ly8u1YuUKC6sJLhdfdLEdIWCA6tcE+CQEEAAAIEglJCSYCgFvv/O2hdUEHxtDwGxJ8VZ2eiIEAAAIYt26djPcduGihVr0zSLriglCNoWAQZJmSIqwstPjEQAAIIgNHTrUVPvf3PcbZW/Ptqia4GRTCBgl6S1Jxl/lOA0CAAAEsXPOOcdU+6KiIk2+erIWLFxgUUXByaYQMFnSPVZ2eCwCAAAEsYEDBqptm7am+igqKtLtd9yum265SQsWLlBFRYVF1QUXm0LAk5IGWtnhT8Ls6BQA4B9CQkJ0xRVX6G9P/810X4uXLNbiJYsVERGh1NRUJSf5fO+agBAVFaXS0lKruouQNE1SH0mVVnUq2Ti3AJ9ZKsnQJN+H73+o/v36G75wWFiY4hNsX6gKwKT8/Hz1H9ifJ/fA9t+SHreyQ6YAACDIpaWl6eqrrna6DJjz35LMzeUchwAAAC5w32/vU1JSktNlwLgYSQ9Y2SEBAABcIDU1VQ8+8KDTZcCcGyS1sKozAgAAuMSNN9yoUaNGOV0GjIuSdLdVnREAAMAlPB6PXnzhRbVp3cbpUmDcFEmWvGdIAAAAF0lpkqIZH89Q06ZNnS4FxrSUNNyKjggAAOAyHTp00AfvfaCUJj49fh7WmWxFJwQAAHChvn376ssvvjS9SyAcMdKKTggAAOBSXbp00aKFi3ThhAudLgWN00FSO7OdEAAAwMUSEhI09fWpevqvTys5ma19A8hZZjsgAACAy3k8Hk2ZMkXLly3X7bfdrujoaKdLwul1M9sBAQAAIElKSUnRY48+pnVr1un39/9eHTt2dLoknFwXsx1wGFDg4zAgALbZuHGjFi9ZrCVLlyhzW6Z+2PeD6urqnC4L0mpJg8x0wHHAAICT6t27t3r37q277rxLklRZWan8gnyVlJSoqrLK4eoCW1Z2lu648w6jzU0f7EAAAAA0WGRkJDsJWiS5ialFl6aHX1kDAACAA5okNzHTPM7s9QkAAAA4IDw83Exz0+cBEAAAAHAhAgAAAC5EAAAAwIUIAAAAuBABAAAAFyIAAADgQgQAAABciAAAAIALEQAAAHAhAgAAAC5EAAAAwIUIAAAAuBABAAAAFyIAAADgQgQAAABciAAAAIALEQAAAHAhAgAAAC5EAAAAwIUIAAAAuBABAAAAFwpzugDAFw4VHtK6teuUlZ2l3bt368cjP6qstExlZWVOlwa4VmRUpGKiY5SUlKTWrVurc+fO6tOnj9q0buN0aa5AAEDQ2r59uz6c/qHmzJmjLVu3yOv1Ol0SgAZo166dRo4YqUmTJmnggIFOlxO0CAAIOvMXzNezzz2rZcuWOV0KAAN2796tqW9M1dQ3piojI0P33H2PLrv0MoWFccuyEmsAEDQ2bd6k8RPG68rJV3LzB4JEZmam7rzrTg09e6gWLFzgdDlBhQCAgFdTU6NHH3tUo0aP0oqVK5wuB4ANdu7cqUlXTtJt/3WbiouLnS4nKBAAENAOHDigiy+5WM88+4xqamqcLgeAzWbMmKERo0Zo0+ZNTpcS8AgACFi79+zWhIsm8NQPuMyuXbs0fsJ4LVy00OlSAhoBAAFp165dOv+C87Vr1y6nSwHggNLSUl1z7TX6dvG3TpcSsAgACDj5+fmaOGmi8vPznS4FgIOqqqo05fop2rBhg9OlBCQCAAJKXV2dbr/jdu3evdvpUgD4gZKSEk25YYoKDxc6XUrAIQAgoPzlqb9o8eLFTpcBwI/s27dPd99zt9NlBBwCAALGtsxteva5Z50uA4AfmjVrlj7/4nOnywgoBAAEjPt/f7+qq6udLgOAn3ro4YdUXl7udBkBgwCAgLBkyRItXbrU6TIA+LHc3Fy9/c7bTpcRMAgACAgM/QNoiBdefIGRwgbiZAX4vT1792jRN4ss6SsqNkI9hnVWpwFtlNwsXlHxkZb065TvPt6glZ8b2xHtzMv6aPDFPS2uCI2RsyFXnz1tbDOb9r1b6uLfnGdxRb5VXV6tH/OLtWdznjYuyFZRQYnpPvfv36/58+dr3LhxFlQY3AgA8HsfffSR6aN8Q8NCNPqWMzX2tqGKDvCb/rGyVxh/HTK1XbK6De1gYTVorNqqWsNt45rEBNXfX21NnRa/v0afP/ONyooqTPU1/aPpBIAGIADA782dO9dU+5iEKN3+wkRlnNnemoIAWC40LETDrxukbmd30gu3fqCC3cbf61+4aKFqamo4Pvg0WAMAv1ZSUqING43v8hUS6tFNT1/CzR8IEM06NNGv3rpa8U1iDPdRXFys9RvWW1hVcCIAwK9t3LjR1IKekTecoZ7DOltYEQC7pbRK0sQHRpvqY82aNRZVE7wIAPBr2dnZhtuGR4Vp3B1nWVgNAF8ZfFFPNe+YYrj99u3bLawmOBEA4NdyducYbtttaAfFJkZbVwwAn/GEeDTg/O6G2+fk5FhXTJAiAMCvFRUXGW7bsV9rCysB4Gsd+xv/GT5SdMTCSoITAQB+rbS01HDbxLR4CysB4GtJJn6GS0rM7ykQ7AgA8Gu1Ncbfkw6P5BUgIJCFRxn/Ga6pqbGwkuBEAAAAwIUIAAAAuBABAAAAFyIAAADgQgQAAABciAAAAIALEQAAAHAhAgAAAC5EAAAAwIUIAAAAuBABAAAAFyIAAADgQgQAAABciAAAAIALEQAAAHAhAgAAAC5EAAAAwIUIAAAAuBABAAAAFyIAAADgQgQAAABciAAAAIALEQAAAHChMKcLAOyyZPo6ZS7PcboMW+VszDXcduP8LB3eX2RhNWisw/uPGG67LzNf7z4808Jq/E95cYXTJQQ1AgCC1rZlu7Rt2S6ny/BbORtzTQUIOOvw/iIt/mCt02UggDEFAACACxEAAABwIQIAAAAuRAAAAMCFCAAAALgQAQAAABciAAAA4EIEAAAAXIgAAACACxEAAABwIQIAAAAuRAAAAMCFCAAAALgQpwEiaPW5tL+ad2vhdBm22v5NpnYs3W6obZ9R6eo5rLPFFaExcrMLtPDtVYbatkxP1XnXDbK4Iv9SXFimz/++yOkyghYBAEGr3aD26jamh9Nl2Kr4QJHhANCuV0udM7m/xRWhMTYt2m44ADRpmRj0f3/5OYUEABsxBQAAgAsRAAAAcCECAAAALkQAAADAhQgAAAC4EAEAAAAXIgAAAOBCBAAAAFyIAAAAgAsRAAAAcCECAAAALkQAAADAhQgAAAC4EAEAAAAXIgAAAOBCBAAAAFyIAAAAgAsRAAAAcCECAAAALkQAAADAhQgAAAC4EAEAAAAXIgAAAOBCBAAAAFyIAAAAgAsRAAAAcCECAAAALkQAAADAhQgAAAC4EAEAAAAXIgAAAOBCYU4XANhl6+zNys/Mc7oMW+1dt8dw2y2Ld6qytMrCatBYB/ceNtw2b8chffLUAgur8T9lRRVOlxDUCAAIWtnfZCr7G6er8F/bV+/R9tXGAwScdXDvYc1+ZZnTZSCAMQUAAIALEQAAAHAhAgAAAC5EAAAAwIUIAAAAuBABAAAAFyIAAADgQgQAAABciAAAAIALEQAAAHAhAgAAAC5EAAAAwIUIAAAAuBCnASJodR/XU6ldmjldhq1ylu/Q7lU5htp2GNJRbQd1sLYgNErh7kP6/vP1hto265CioRP7WFyRfyk5XKa5ry13uoygRQBA0Op8brq6jenhdBm2qi6rMhwAWvdrqyHXD7W2IDTKjqXbDQeA1HbJGntbcP/95ecUEgBsxBQAAAAuRAAAAMCFCAAAALgQAQAAABciAAAA4EIEAAAAXIgAAACACxEAAl+J0YZxcXFW1mGL2NhYw20j4yItrMQ/hcdEGG4bGRv83x8AJ0cACHy7jTQKCQlRi+YtrK7Fcq1btzbcNrFFkoWV+KfEFonG27YM/u8PgJMjAAS+WUYa9e/XX/Hx8VbXYrmRI0YaapfQIlEpHZpaXI3/aT+4g0JCG/9jHBoRqrYD21tfEICAQQAIfF9Iym5soxtvuNGGUqzXr18/nXXWWY1uN/iaITZU43+ik2LUY3zvRrfrc0l/RZiYPgAQ+AgAga9a0h2SahraYNTIURo9arR9FVns8cceV0xMTIO/vmWvVup7+QAbK/Ivw+46T/FpDR/NSWyZpLNvH2ZjRQACAQEgOMyXdJOkqtN94dChQ/XXv/xVHo/H/qos0qN7D735xpsNmrJo1rWFLvvrJIWGh/qgMv8QmxKnic9c1aAQkNAiUROfmazoxGgfVAbAnxEAgsc7koZK+uZEv5mUlKT7f3e/pr461dTKeqeMOG+E5s2Zp7Fjx54wvETEROjMm87WNa9dr9gU/3+7wWpp6c10/Tu3qPdFfU+4JiAkLER9L+uvG965RU07pjpQIQB/w3HAwWWNpOGSOkka1q9vv3PHXzD++s6dO2vwoMEKDw93tjqTOnXqpHffeVe5ublasnSJMndn6fuaLUpunax2gzsoPCqw/3xmxabE6fw/XKjh94xSzoqdOrL/iDye+iH/9oM7KiohyukSAfgRAkBw2iFpx/T3p/8gj653uhirtWzZUpOumKRD1YWauv8dp8vxO9GJ0eo2pofTZQDwc0wBAADgQgQAAABciAAAAIALEQAAAHAhAgAAAC5EAAAAwIUIAAAAuBABAAAAFyIAAADgQgQAAABciAAAAIALEQAAAHAhAgAAAC5EAAAAwIUIAAAAuFCY0wUcJ05ShqR2kmIlRTtbTmC79fZbu48cNdK2/kNDQhUVFWVb/6dTUluq9UfWOnZ9BIbIuEhFREeoSbsUJbZKUkhocDz3FOYe0eIPgvvff3FhmdMlBDWnA0C0pAmSRksaLqmLo9UEmUXfLtKibxc5XQbgN0LCQtSie0u1Hdhenc9JV8terZwuybDcrAK9+/BMp8tAAHMqAHSR9BtJkyUlOlQDAJepq6nTvo0/aN/GH/Td1CVq0i5FfS7tr76X9VdETITT5QE+5euxsNaS3pW0VdLt4uYPwEGFuw9p4TNz9fKFz2nF28tUV1PndEmAz/gqAHgk/Vr1N/6rJYX66LoAcFrlR8q16Ln5euPqV7Rv4w9OlwP4hC8CQFNJX0l6WvWL/ADALx3cWaD3bn1Ly99aJnmdrgawl90BoIOkZZLOt/k6AGCJuto6ffP8fH3x8CdMCSCo2RkAuqn+5s/KfgABZ8usTfr43g9VW13rdCmALewKAK0lfS2puU39A4Dtdi7brs8e+FjeOuYDEHzsCADRkmaqfjMfAAho2YsytfjlRU6XAVjOjgDwnKReNvQLAI5Y/uZS7fpuh9NlAJayOgCMkXSLxX0CgKO8dV7N/NPnqiypdLoUwDJWBoAoSS9a2B8A+I2SgyVa9tq3TpcBWMbKAHCLpM4W9gcAfmX1BytVlHfE6TIAS1gVAMIl3WdRXwDgl+pq6rRy2nKnywAsYdVhQBdKamtRX0pqnaymHVMVmxInj+fkXxceIkU5fZ4hAL9VU1WrIwUl2rX+B5UXWzN///3n6zXsFyMUHhVuSX9GJbdIUM9hwT3oWl5codVfbXG6jKBl1e1ziukePFL3MT015MazlNo5rUFNEiKklGjezwVwajXVtdr8zQ59/swi7cvMN9VXVVmVshdlqvu4nhZVZ0yrjDRd8+cLHK3Bbvk5hQQAG1kxBRAjk1v9RsZF6opnr9KFj13a4Js/ADRUWHio+oxK139/dqtG3XSG6f4yF2y1oCrAWVaMAJwlyfBB2mERYZr0wjVq2bOVBaUAwMmFhHo08YHRCo8K19cvLTHcz57Vu+Wt88oTcoo5SsDPWTECcLaZxiN+PZqbPwCfuuieYcoY0t5w+4qich3cVWBdQYADrAgA3Yw2bNIuRX0u629BCQDQcJ4Qjy7//ShTfRzaddCiagBnWBEA0o027Dm+t0JC7T6RGAB+rm2P5mrTrZnh9of3FFpYDeB7Vtx9U4w2bD+kowWXBwBjup1l/DOo7McyCysBfM+KABBvtGFi80QLLg8AxjRpZfwzqKq0ysJKAN+zIgBEGm0YEWe4KQCYFpMQZbhtTVWNhZUAvscEPAAALkQAAADAhQgAAAC4EAEAAAAXIgAAAOBCBAAAAFyIAAAAgAsRAAAAcCECAAAALkQAAADAhQgAAAC4EAEAAAAXIgAAAOBCBAAAAFyIAAAAgAsRAAAAcCECAAAALkQAAADAhQgAAAC4EAEAAAAXIgAAAOBCYU4XgBOrLK/WgZ2HdGjfj6ooqVJlWf2v8qIKhUeHKyw8VFGxEYprEqvk5vFq0jJRiWnx8nicrtx3yosrVbDnsAp2F6roYKmqKqpVWVql2po6xSRGKSouUrEJUWraNllp7ZooJjHK6ZJPq6aqVjvW7tWezXkqL6pQYrN4dejdUm17tnC6tEbx1nn1w7YDys0qkDxScosEte/VUhHR4U6XBuAoAoAfqCqv1o61e5W5fLd2b8xV3q5DOry/qNH9RMVGqFXXZmrdtZk69W+trme2V0JqnA0VO+PArkJlrchR9so9ylq5Wz8eKG5U+4SmserQt5U69mutjCHt1a5nC3lC/CMxeb3SondWadbLS3WkoORnv9+qa5omPThGGWe2931xjVBX69W3763WnNeXq3Dfkf/4vcjocJ15eR9NuPtcxSXHOFQhgJ8QABxSVFCilV9s1oZ5mdq1YZ9qqmpN91lRWqUda/Zqx5q9+ubd1fJ4pJbpaeo9Ml2DxvdQy/RUCyr3reLCMq36YpO+m7FRe7fkmeqr6GCpNszL0oZ5WZLqA0HP4V00+MIeyhjS3rEwUFNdq1d++bE2zs866dfs25avZ66fpkt/N1JjbjnTh9U1XEVJpf5xx0fKXJ5zwt+vLK/WommrtW5Opu565Uq17dHctwUGmSP5JVrz9Vany7DVicIwrEMA8KGa6lqtn71Nyz/7XlsW71RdbZ2t1/N6pX2Z+dqXma+vX1qilumpOuuKfhp6eR9Fx0faem2zDucV6avnF+u7GRtUW2PP96noYKmW/Wu9lv1rvZJbJOicyf017JoBik2MtuV6J/PuQ1+d8ub/E69XmvHkfCU3T9CgCT18UFnDeeu8evmuf5305n+sI/nFev6m9/TAjJvVpFWi/cUFqb1b8vTq3R87XQYCGAHAB6rKq7Vk+jrNfW25Duc1fmjfKrlZBfrosTn64plFGnJZH4299Uwlt0hwrJ4TqSip1MyXlmjhO6tUXVHjs+se3l+kz/++SLP/uUznTO6nkTeeoeTm9n9vslbs1nczNjaqzft//Fq9zuuiqNgIm6pqvCXT12nbsl0N/vriwjK9/6dZuuuVK22sCsCpEABsVFNVq/lvrtC8qStUfKjU6XL+raK0SoveWaUlH67VsKsHaNwdZyu+ifNzsjkbc/X6rz9RwZ7DjtVQWValeVNXaNE7q3Xm5X100a+H2/q9Wfj2qka3KTtSoaUfrdfIGwbbUFHjeb3S3NeXN7rdpkXZOrDrkJp1SLGhKgCnw2uANtmyZKf+Z/w/9clTC/zq5n+s+oCyUg+PfFEL3l6lulqvY7XMee07PXXlm47e/I9VU12rxR+s1SOjXzr6vbF+GsLrrf93YsSKz763uBrjcjbsU35OYaPbeb3S9wu321ARgIYgAFisqKBEr979sZ678T1DH4pOqCip1PQ/z9aTV0zVD9sO+PTaXq/00WNzNOPJ+bbN9ZtRVlSh6X+erccufs30IsTjFR8sUWVZlaG2ezbt14Fd/vHva+0s4wvRDuw6ZGElABqDAGChrUt36tGLXg3Ylbm7v9+vv0x689+r5O3m9UrvP/K15r+50ifXM2NfZr6enPiGZr28VN46a0ZKPKHmfvxWf7XZkjrM8HqlNSYCgFXfSwCNRwCwQF2tV5//fZGeu+l9FR30z+H+hqoqr9Zrv5qhPZv2236tL5/9Rt++v8b261ilprpWn/5tof5xx3RLXtuMS44x9cbBqi82ma7BrJwN+372vn9jpLROsrAaAI1BADCpsqxKz9/8vma+tCRonmaqK2v03iNfy2vjH+f7hdma+Y8l9l3ARhsXZOu1X88w3Y/HI3U5o63h9nk7D2nvVt9O2RzPzPC/JHUa0NqiSgA0FgHAhOLCMv39umnautTYQi5/lrMxVzvX/WBL34W5R/TGfZ8FdGBaPyfTkoV4Ay8w9z6/k6MAZof/45vEqPOANhZWBKAxCAAGFe47or9Ofks5G3OdLsU2Ww2uUD+dj5+Yp7IjFbb07UtzXv3OdB+9R3RRZIzx9/lXfbnZ1pGaU8nZaG74v/+4bgoxuQ4CgHH89BlwpKBET183LehXMB8y8eF+MjvW7DU9bOwv9mXm6+Bec68tRkSHq/eILobbH95fZNtIzemsNbnYtf/53SyqBIARBIBGqiip1Au3fGD6gz8QhIRavzf+jKcWOPbEaof9O8yHwEEX9jTVftWXvn8bwOuV1s7aZrh9fJMYdRlkfP0DAPPYCbARqitr9OJtH1r+PvjJREaHq1nHFKV1SFFccowio8MVnRCl6opqVVfU6MjBEh3OLVJudoFKDpdZfv2mFq/Qzs0q0I41ey3tMyTUo9ZdmymtfRMlN09QWGSYwiJCVfZjuX7ML9GezXk6uKfQttBRZ8HeBT3O7aTYpGiV/lhuqP2arzZr0n+P9ulw+u7vc3Vo34+G2/cby/A/4DQCQCN88KdZyl61x7b+wyJC1f2cTuo2tIMyzmyvFp1T5WngQ/jhvCJlr9yjLUt2auOCLEvm2HsO72y6j2Mt/dd6S/oJCQ1R7xFdNOTS3uo6tMNp98QvL67Unk37tWFeptZ8vdXSE8aatDR/XkBoWIj6jemqJdPXGWpfXFimzOU56nZWR9O1NNSar7eYaj+A4X/AcQSABlr5+SYt/ciaG9jxWnVN07lXDdDA8d0Nvxee3DxBgy/qqcEX9VRNda02f7NDi6at1rZlOw09/XYb2kFtB0oy4QAAIABJREFUult3XKu3zquVFqya7zq0gyb/Yayad2ra4DbR8ZHKOLO9Ms5sr4kPjlHWihzNf3OlNi3KNjUyEJsUrZbpacY7OMagCT0MBwBJWvXFZp8GgHWzMw23jUuOUZfBDP+bFdc0Tq37Bvf3saqsSjuXsV20XQgADXBg1yG9+/BMy/tt37ulLrjrHPU6r0uDn/QbIiw8VH1GpavPqHTt25avz55Z1KDjZn8SkxClyX8cZ11Bqn9nvbjQ3DTFyBvP0MTfj5InxPg3KyTUo65DO6jr0A7KzSrQVy98a3jnxrMn9VNomDXD2OlntFNSs3j9eKDYUPu1s7fpqj+dr/BI+3+kczbmmloD029sV4b/LdAso7kufuJyp8uw1eE9hXrlMgKAXfgpPI26Wq9ev/dTw3u2n0hsUrSue3yC7v/XTeo9wtqb//FadU3TnS9P0r3vXqfmHU9/6lp8kxjd+c8rLT+hbdeGfabaD5rQQxMfGG3q5n+8lumpuvW5y/Wb96aoZXpqo9qmtErS+XeebVktnhCP+o8zPixeUVKpzd/usKyeUzG7+p/hf8A/EABO49v3Vlu6LW6v4Z31pzl36Kwr+tp64z9e+uB2euiL2zTxgdGKT4n92e+HhoXozMv66MHPblHngdZvzrJrvfEAEJsYrcl/HGfb96vLoLZ68JNbNPrmIQ0KGImpcfrFa5NPu/agsQZNMLcpkK/OBlg3x/jq/7jkGKWf0c7CagAYxRTAKRQVlOjzZ76xpK+QUI8u+e0Ijb75TJ/e+I8VFhGqUTedoRHXD9bOdT+oYE+hqsqr1aRlojoPbKvo+Ejbrn04r8hw2yGX9Ta1Z35DhEWE6vLfj1KfUema9tBM5e04+LOv8XikPqMzNPkP45TULN7yGjr0baXUdk1UsNvYKX8bF2SrsqzK1MZCp7P7+/2mjmxm+B/wHwSAU/j4L/NVVmR+NX14ZJhufvpS9R2TYUFV5oWEetR5YBtbnvRPpvSwsVfcpPoFib7SeWBbPfL1fylreY6yVu5W0cFSeTwepbVvot4juiitfRNbrz/g/G6a9fJSQ22ryqu1YX6WBpvcV+BUzK7+Z/MfwH8QAE4ib8dBrfzc/D7rEdHhuuuVK5UxpL35ogJY6RHjASC5hflX7RrD49G/3xrwtUETehgOAFL92wB2BoB1s80N/2cw/A/4DcbiTmLWP5eZPqwmNCxEtz13uetv/pLMrZYPop0DT6dVRlqjFyQea8viHYY3FDqdPZvMDf/3HZPB8D/gR/hpPIGDP/xoydP/NX++wPLNdAJVjIk5/Jzvg/fApRMZNN74YsDamjpTT+mnYvR1yZ+w+h/wLwSAE5j/xgrV1Zrb4nXoxL4aOrGvRRUFvtjEKMNtV3xqfgOhQDLowh6mForadTbAWhPBIjYpmpEwwM8QAI5TU11r+um/eaemmvyHsRZVFBwas3Pf8bJW7nZVCGjaJlnterU03D5r5W7DGwqdzJ7NeYbfTpCkfmNY/Q/4G34ij/P9wmxTc6gej3TVH8cpIjrcwqoCX4c+rUy1f/uBL/TdjA2m12UECjN7AnjrvJYfubyW1f9A0CEAHMfsk+bgi3sx1HkC7fsYf6KV6ue237r/Cz086iXNfW25JYcd+bOBE3qYOo551RfWTgOsMXH0L8P/gH8iAByjorRKmxYZ33c6NCxEF/1qmIUVBY/k5glq39tcCJCkg3sP6+Mn5+l3Q/+uN+77TD9sO2BBdf4nMTVOnQcaP+hl14Z9pobsj7V3i7nh/76jMyw7MwGAdfipPEb2qj2qqa413H7wRb2U0irJwoqCy5BLe1vWV01VrVZ8+r0evfBVPX3NO1o7a6tqa8wt3PQ3prcGnmnNNACr/4HgRAA4RtbyHFPtR910hjWFBKlBE3rYsjYia+VuvfLLj/XAOc9qxl/m68Aua558nTbg/O4KCw813H6FBccvSzK1niAmMUrpDP8DfokAcIxt3+UYbtu2Zwu1yrDmbPhgFZsUrZE32heSig6Was6r3+mRMS/p8Utf1+IP1qqyvNq269ktJjFK3c4yvg1y3o6Dys0qMFXD3i15ys8xt/rfTIgBYB8CwFEVJZWm5pOHXNLLwmqC19jbhp7wNEKr7dm0X+8+PFO/P+sZvfvwTO3dkmf7Ne0wyOS2vqtMnhDI8D8QvAgAR+XtPGTqFbNe7PjXIFGxEbr8/pE+u155caUWf7BWj138mp64fKoWf7BWFaVVPru+WX1GZyjSxLTJqi82y2vizUkzuwoy/A/4NwLAUQd2HjLcNrlFglLb2XtKXDAZcmlvSxcENlTOxly9+/BM3X/m3/X2A18qZ6P/bzEcGR1uajvpg3sPa7fBrZT3bj2gA7uM/1z0Hc3wP+DPCABHmfmg62LidS23uuqP49SqqzNrJirLq7XsX+v1xOVT9fglr2nJh+tUXVnjSC0NMWiCyWmAL4ztbGl28x+G/wH/RgA4Kt/Ee87NOxvf5tatImMi9Ku3rjV18p0V9mzO07SHvtKDw57X7FeWqbrC/4JAz+GdFZNg/CyF1V9tUV1t4+cBTA3/J0Q5cpwygIYjABxVetj49r/NO6ZYWIl7xDeJ0a/eutYv3p4oPlSqT55aoD+MfklrZpp78rVaWESo+ozKMNz+SEGJslftblSbH7YdUJ6JabG+ozMY/gf8HAHgqIoy4wvDklskWFiJuyQ0jdX9H93oyJqAEzmcV6RX75mhv0+ZpoN7Dztdzr8NutDcpkCNPSHQ7Op/9v4H/B8B4KiKkkrDbaNiIy2sxH0iosN1w18u0pQnLlRccozT5UiSMr/L0aMXveY3pxB2PbODEpoaf31y7aytjdrlcp2ZzX8SotR1qPH9CwD4BgHgKDOvhkXFRlhYiXsNvbyPHl1wlyY9NMYv3qqoKKnUG/d9pmkPfeX4NsMhoR71H2f8qbrsSIW2LtnZoK/dty3f1PB/n1EM/8MaNdXG1+SEhYVZWElwIgAc5fEYP3nNa+ZFa/yHqLhIjbh+sP5nzh2669XJ6n52R5n4q7HEkg/X6YWb31d5sfFRIisMHO+baYA1rP6HnyjJLzbcNi4uzsJKghMB4CgzT/GVZYG73ay/8oR41Gt4Z939xtV6ZNYdGnbNQEXGODfSsnXZLj1/8/uObiLUaUAbU4dNbZib2aCtkdeaXP3f1cT2xcCxcjftM9w2IZ61WadDADgq0kQAMLN+AKfXvGOKrvrjOD259J76/QMcemtg57of9OKtH6imyviJkWZ4POaerivLq7VpYfYpv2ZfZr7ydhw0fI0+o9IZ/oc1vFLmAuNhtG079mc5HQLAUWYW8hXmHrGwEpxMVFykhl0zUA9/eZse/ORmnTO5vy2nC55K9qo9mvbQVz695rHsfhtgrenV/91NtQd+sm3eFhVkGz+fpUvnLhZWE5wIAEfFJkcbbmtmwRSMaduzha758wV6/Jtf6vL7R/l0L4bln2zUkg/X+ex6x2rTvblamNh4atM321VWVHHS319jcvV/N1b/wwIlBcVa8Pc5pvro16+fRdUELwLAUc3aG191vn+7uSNXYVxccoxG3zJEf5x9x79HBXzxVsZHj81xbJ+AARcYf8quqarV+rmZJ/y93KwCU8P/vUemKyyC4X+YU5R3RNN/+Z6KTSwAjImJUf9+/S2sKjgRAI5qZuIJMnvlHlMnrsEaP40KPLnsV5ryxIXqPLCNbdeqLK/WR4/Pta3/UznjInNnA6w+yTQAq//hJG+dV5u+3KC3pryugu35pvoaPmy4IiJ4Pft0eFHyqOYdjAeAIwUlOrDrEFsC+4nImAgNvbyPhl7eRwd2HdLSj9bru483qLiwzNLrbJiXpR1r9qrTAPuCxomktmuitj2aa8/mPEPtt323S0UHS3+2sdBaE8P/UXGRbP7jY5Ullcrbut/pMkypqahW0YEiHdi2X1kLM/XjPmtG1a644gpL+gl2BICjmnVMUUiox9ChKZK0cUGWmnc80+KqYFazDim67HcjddGvhmvNzC2a89p32pdp7uniWF//Y4l+8dpVlvXXUAMn9DAcAOpqvVo7a6uGXzvw3/8vN7tA+7ebW/0fHsnHiS/9sGGv3rruNafL8DupqakaO2as02UEBKYAjoqMiVDbHi0Mt18+Y6OF1cBqYRGhOuOSXnro81t141MXW3Z+w+bFO1Vg4iRJowaN7yFPiPEdko5/G8Ds6v8BrP6Hn7jrzrsY/m8gAsAxMoa0N9w2N7tAezYF9nCcG3hCPDrjkl56ZObtOmey+UVC3jqvVny+yYLKGie5RYI69W9tuP3OtXt1aN+P//5vM/P/UXGR6sbmP/ADaWlpuvGGG50uI2AQAI6RfkY7U+3nvr7cokpgt6i4SF3z5ws06aExprca3nCSVfV2GzTB+J4AXq+0Zmb9U3/ezkMM/yMo/OmPf1JsrPFDs9yGAHCMzoPamvogW/P1Fh3Y5fvhYBg34vrBmvzIOFN9/LDtgEqPlFtUUcP1P7+7QkKN/wiv+qJ+5GL1V407Kvh4DP/DH5w3/DxNvHyi02UEFALAMSKjw9V7ZLrh9nW1Xn36twUWVgRfGHbNQA25tLfh9l6vtGu98T3LjYpvEmNq5f3erQe0f/tBU/P/UbERDP/DcampqXrxhRdNHermRgSA45xxcS9T7dfN3qZNi7ZbVA185bLfjVR4lPHRn/wcZ0Z+zEwDSNKXz3+r3GzjG1n1HsnwP5wVFRWlt958S2lpzpwREsj4yT1Oj3M7KT4lVsWHSg338cH/zNZDA9soKs74+QLwrYSmseo7KqPBR+Ye79A+Z86D6DcmQ+89EqbqCmPnpq+ZaW7zn4EmdiUMdO2i2mhS2qWm+liZtlL/0vsWVeQ+YWFhev3V1zV40GCnSwlIBIDjhIaFaMglvUwt6Du497CmPfSVbnnmMgsrg9069G1lOAA4dSJkVFykepzbSevn+H4hYlRshLqd3dHn1/UXsaExahdl7sS5ita+XzsSLKKjo/X6q69rzJgxTpcSsAgAJzDihsFa+M4qU8e+rv5qizr2a60R1/t3Mi0uLNOeTftVmHtE0XGRatuzhdJMnItwMgd2HdLS6eu1fc1eFR0sVWRMuFp0SdWAcd3UZ1SGQkKdn7uLjDH+7nB1pbEncCsMmtDTkQDA8L95Xbp0UWpqqgoKOE+kMVq2bKmpr0/VwAEDT//FOCl+ek8guXmChlza2/SJbx89PleJafF+uUd6fk6hZjw1XxvnZ6uutu4/fq9tj+aa8MtzTS2I/ElNVa0+fnKeFk1bLW/df+6yuC8zX6u/3KzWXZvpxqcuVquuzs7hmdkq2NfHEh+r94guioqL9PkoBKv/zQsJCdHVV12tZ5971ulSAsaYMWP0/HPPK6UJW6+bxSLAkxh721BTr1hJ9ZvEvPHbT/W9ny0KXDdnm/584StaPyfzZzd/SdqzOU8v/dd0ffCnWaYOOaqprtVL/zVdC99e9bOb/7F+2HZAf736LW1fvcf4xSywdclOw21jEqIsrKRxwiPD1MeCsNYYUbER6u7i4X8r3f3Lu9WyZUuny/B7rVq10tTXp+q9ae9x87cIAeAkUtsm66wr+prup6aqVi/fMV3LP/GPrYLXzdmm1+6Z0aBFY4umrdYnf5lv+FqfPb1QWxbvaNDXlhdX6vmb3lfmdzmGr2dG3s5Dyl5lPICktE6ysJrGM/s2QGP1HpFu6q0J/L/ExERNe3uakpOTnS7FL7Vp3UZPPvGkVi5fqYsuvMjpcoIKAeAULvnNeYpLjjHdT21Nnd66/3N99vTCEz5x+8r3C7P1+q8+UW1Nw2uYO3W5cjbmNvpahfuOaMGbKxvVprK8Wi/c9oHWmNyX3oiPn5hn6u+mVXqqhdU0XrezO1ryb7Wh+vvhtFYg6927t+bOnquhQ4c6XYpfaNq0qa6cdKU+mv6RVq9arZtvulmRkbxVZTUi/CnEJkXr0vtG6J0HvzTdl9crff2Ppdq+eq9u+tsllh1G01Dr52Tq9Xs/UU114xY2euu8mv/GCt3898a97rTyi02NCho/qa6o0Wv3fKxd68/QpfeNVGiY/Rl17mvL9f3CbMPtwyJC1a6ns0O4oWEh6je2qxZ/sNb2a0XGRKjHOZ1sv47btG/fXp9/+rmWL1+umbNmavv27SooKFBdnXMPDXaLjopWXFyc4hPi1bZNW3Xu3Fl9+/ZV14yubOrjAwSA0xg6sa+WfbxBO9bstaS/7FV79MdxL2vC3edqxPWDbb/B1dbU6cvnv9WsfywxPJ///aLt8nrVqD3zjYwa/MTrleZNXaEtS3bq6j9doM4D2xju63SW/Wu9Pvmr8WkOSerQp5VfDIcPmtDDJwGg94gufvHnDVZDhgzRkCFDnC4DLsAUwGl4PNJNf7tYMYnWLfKqLKvSx0/M05/H/1MrPv3etmmBnI25euLyqfr6JeM3f6n+Hfcj+cWNamNmI6Wf5GYV6G9Xv6XXf/2Jqd3qTqSmulaf/nWB3n7gS9XVmvjmSH7zlkeXQW2V1Cze9uuw+h8IDgSABkhplaQp/3uh6VPjjpe385DeuO8z/WH0PzT7lWU6nFdkSb871uzVy3d+pCcnTtXeLXmW9HmqVfwnEhlrzXyd11t/dv2fJ7yif9wxXRvnZxmaWjjWlsU79OiEVzTrn8tM1xcaFqL+4/wjAHhCPBpg8858kTER6nEuw/9AMGAcr4H6js7QeVMGa8FbjVvY1hAH9x7WJ08t0Kd/W6guA9uq61kdlDGkvdr1aqGw8NDTtq+urNHeLXna/M0OrZu7TblZ1j4th0eFKSE1rlFt2vZo3uA3ABrCW+fVhnlZ2jAvS3HJMep1XhdlDGmn9DPaqUnLxNO2L9hzWJsWbdfiD9ZaOpow4Pzujf7e2GnQhB6a/8YK2/rvxfA/EDT4SW6Ey38/Svk5h7TpG+tubMfy1nmVtXK3slbuliSFhHqU0ipJzTqmKL5JjCJjIhQZE6G6ujqVF1eqqKBEh/YdUd6Og6afik+l84C2jV6rMOCC7pr9z6Wmph5OpuRwmb6bsUHfzdggSYqOj1SzDilKaZWomMRoRcVFyFvnVcnhcpUUlmrvlgM6UlBieR0ejzT6Fv+aq23fu6XS2jex7XAif5nuAGAeAaARQsNCdOvzE/XMlGk+Of61rtargj2HVbDnsO3XOpXzpgxqdJs23Zqp75iuWjd7mw0V/afy4krlbMw1tfDQiEETeqpN9+Y+vWZDDLygu2a+tMTyfiOiw9Wd1f9A0GANQCNFRofrF69OVvNOTZ0uxSf6jslQ7xFdDLW99rHxatomODc3iYwO16X3jXC6jBMabPJI65PpPaKLIh3c8hiAtQgABsQmReved671y6c/K7XKSNOUxy803D42MVq/efc6pbaz/nAhp13x0Bif7+XQUM07pthyrgKr/4HgEtABwIbp5QZLSI3TvdOuU/rgdg5WYZ+mrZN09xtXm379MblFgu6ddq2adQieENB/XDedPamf02Wc0qDx1m4NHBEdru6s/geCSmAHACcTgOoXn/1y6lXqN7ars4VYLLVdE9377nVKtGh1e3LzBP162nVq062ZJf05qW2P5rr+L/6/H/ngC3ta+toqw/9A8AnoAOAPG2SGR4bptucn6vLfj/LJtrV2a5WRpt+8d12DXq1rjKS0eP1u+o064xJ75qd9Ia19E935ypUBcSNs0ipR7fu0sqw/hv+B4BPQd6yaxm1rbxuPRxp98xD9bvqNAb3ordd5XXTfB9crKc2e3eTCo8J041MXa/Ij4xq0v4E/ad4xRfe+e51t3xs7DLqwpyX9MPwPBKeADgDVDk8BHK9drxZ68JObdfaV/eQJCZyDLEJCQ3Txr4frzn9eqag4+0/cGn7tQP1+xk3qYOETqp3SB7fTfR/eEFA3f0kaeH43hYSa/3fY6zyG/4FgFNABwOuVqv1hHuAYMYlRuvbR8Xpgxs1q39vZE+IaomV6qn43/Qadf+fZlm91fCqtuzbT76bfoMmPjFN0vH8e8+nxSCOmDNI9b12j2KRop8tptITUOHUd2tF0P2dcZM1IAgD/EtABQJLKa5yu4MTa9miu302/Udf8+QI1bZ3kdDk/ExUboYt+PVwPfnqLY0HFE+LR8GsH6o+z79Dw6wYpPNJ/9qVq0jJRd79xtSY9PDag13aMvGGwqfbNOjRRz+HG9oEA4N/85xPXoPIaKSHC6SpOLCTUo3Mm99fZk/pp7ext+uLZb5S346CjNYWGhWjoxL668O5z/WYP+8TUOE3+w1iNv+tszZu6QgvfWaWq8mpHagmPCtOIKYN1wV1nKzLGT/9hNUKPczup7+gMrZ+b2ei2Ho80+ZFxlkwjAPA/gR8Aqj2q9Xrlz59RnhCPBpzfTf3HdtXmb3do+Wffa8O8TFVX+G74IjEtXude3V/nTOrnNzf+48WnxOrS+0ZozK1nauXnm7Tis+99tr1vdHykhl09QCOuH+y33x+jpjxxofJ3Fzb6kKhLfjtC3c4yP4UAwD8FfADwSiqtkhL8cxr5P3hCPOo5vLN6Du+sipJKrZ21VevnZip71R6VF1dafr245Bj1HtFFfUdnqMewzgEzlB2bFK3zpgzSeVMGaf/2g1r5+ffasmSn9m7JU12tdSs/PSEedR7QRmde3kcDzu8WFE/8JxKTEKXfvDtFr9z9sTK/yznt14dFhGriA6M1/NqBttcGwDkBHwAk6UiVRwmRfvZKwGlExUVq6MS+Gjqxr+pqvdqzeb+2fZej3RtzdWDXIeXnFKqmuuHvOXo8UnLLRLXv1VId+rZSx36t1aFPq4Afvm3Ruakuvvc8XXzveSo7UqGsFbuVtSJH+7ILlLfjkI7kFze4r5DQELXo3FTterZQ16Ed1O3sjopvEmNj9f4jNilav3rrWq34dKPmvPbdCUcDQsNC1G9cN11497Cg2rkRwIkFRQCoqZNKqqW4AH1TKSTUo/a9W/7HYry6Wq8O7ftRhfuOqKyoQhWlVaosq/8VGhaqyJhwRcVFKjYpWimtkpTSKlFhEYH1bn1jxSRGqe+YDPUdk/Hv/1dRUqm8nYdUXFimytIqlRdXqLykUt46ryKjwxUeFa7EtDiltEpS09ZJrj7L3uORhlzaW0Mu7a28HQeVszFXxYVlCgsPVdO2yerUv7ViEsxt/QwgcATNp+HhCo9iw70K7Ofd/xcS6lFq22Sltg3cjYV8ISouMiBet/Q3zTs1dc2JlgBOLDAmhRugpq4+BAAAgNMLmgAgSUcq/XdfAAAA/ElQBQBJKij3qMbPdgcEAMDfBF0AqK2T8kolC98WAwAg6ARdAJCk6jqPDpR6CAEAAJxEUAYASaqslfaXiOkAAABOIGgDgFQ/EpBb4pFD28oDAOC3gjoASPVrAQ6UeXSowqM6pgQAAJDkggAg1Z8XUFQp/VDiUXFV/X8DAOBmQbMTYEPU1kkHyz36sbL+COHYCK/C2DsIAOBCrgoAP6mpkworpMOVHkWGStFhUnSYVxEh9fulAwAQ7FwZAH7i9UoVNfW/Dh89RSDMI4WHSh55CQNAkCuy/hRuIGC4OgCcSI1XqqmRFDTHCgE4mcqGn7gNBB1XLAIEAAD/iQAAAIALEQAAAHAhAgAAAC5EAAAAwIUIAAAAuJAVAcDweXt1HNUHwEG1Jj6DQjw8PyGwWfEvuNRww4MlFlweAIwpKSg23DYuLs7CSgDfsyIAFBlteCArz4LLA4Ax+dkHDLeNj4+3sBLA96wIADlGG2YvzLTg8gDQeNUV1dq1bIfh9m3atLGwGsD3rAgAWUYbbp27WQd3FlhQAgA0zur3Vqiy1PhhAF06d7GwGsD3rAgAa4029NZ5Nfvxr1RbzYbcAHynYEe+lr+51HD70NBQ9ejRw8KKAN+zIgAsNNP4h/V79dUjn6m2ihAAwH6H9xTq419/qKqyKsN99OzZU0lJSRZWBfieFQFgh6TtZjrYOmez3rv9LeVnGV+QAwCn4q3zavPM7/X2Da/rSO6PpvoaOWKkRVUBzrHqzNtHJP3RbCeeEI86nd1FXYZnKLVTmuLT4hUWGW6+OgCuVH6kTCUFxdq7bo+2zdmigh35lvS7bMkypaenW9IX3KuyslKt2rQy2rxCUrSZ61sVADpIypYUalF/AOCXBg4YqFlfz3K6DAQBpwOAVVtZ7ZI03aK+AMBv3XPPPU6XAFjCyr0sH5PESj4AQatnz54aN3ac02UAlrAyAGyW9IKF/QGA3/B4PHr80cfl8Vg1cwo4y+rTLP4gaY/FfQKA46699loNHTrU6TIAy1gdAIokTZJUbXG/AOCYjIwMPf7o406XAVjKjvMsV0j6jQ39AoDPJScn643X31B0tKkF14DfsetA6+cl/a9NfQOAT0RFRemdt9/hnX8EJbsCgCQ9KOn3NvYPALaJjY3VtHemacgZQ5wuBbCFnQFAkp6UdJck45tuA4CPtW3TVjO/mqnhw4Y7XQpgG7sDgCS9JOlcSTk+uBYAmDL+gvFaMH+BenTntD8EN18EAKl+YWAPSX+SZPwAbgCwSfPmzfXiCy/qrTff4qQ/uIITO1p0Uv3agCmSIhy4PgD8W7NmzfSLu36h66dcr5iYGKfLgYs4fRaAk1taNZd0taRrJPVzuBYALhIVFaXzhp+nSZMmaeyYsYqI4FkEvufmAHCsVEnDVR8E0iW1k5QgKU4m/4BuFhYWFh4bExtn60U8YmtU+K34uHjFxcUpPj5enTp1UufOnTVo4CANHDiQmz4cRwCAbbK3Zo+RR7Ptvk5CQoJCwzgJGgAaw+kA4KtFgAhilVWs6wSAQEMAgGlVlVWq89Y5XQYAoBEIADDN6/WqqoK9ngAgkBAAYInyinLV1tU6XQYAoIEIALCGV6ooq3C6CgBAAxEAYJmqqipVVrIgEAACAQEAliorK1NtLVMBAODvCACwllcqKS5RXR1vBQCAPyMAwHJ1dXWEAADwcwSnKd+OAAAENUlEQVQA2KK2tlbFxcVMBwCAnyIAwDZ1tXUqLipWVRV7BACAvyEAwFZer1elJaUqLS1lSgAA/EiY0wXAHaoqq1RdVa2Y6BiFR4ZzgiAAOIwAAJ/xer0qLStVSEWIIqMiFRkZSRAAAIcQAOBzdXV1Ki8rV0V5hcLCwhQeHq6w8DCFhnKkMAD4CgEAjvF6vaqurlZ1dbUkyePxKCQk5N+/GB0AEMyc3jmVABB8xkq6SdK5Xbp1aRYdFa0uXbpo9OjRuuaqaxQfH+90fSfl9XpVW1vLq4MAXMHpAMAjVvBIkvSOpAkn+4Lk5GQ99eRTGnbuMN9VBQA4ocrKSvXs09No8wpJ0Wauz2uAwSFO0kKd4uYvSYcPH9btd9yuufPm+qYqAIDfIgAEh2ck9W3IF9bW1uq3v/utDhw4YHNJAAB/RgAIfOmSbmhMg7KyMv3jn/+wpxoAQEAgAAS+SZIa/f7c17O+ZrEdALgYASDw9TfSqLCwUHl5eVbXAgAIEASAwJditGHeAQIAADjF5Cis6cNVCACBr8Jow4KCAivrAAA0QsFBU5/BJWavTwAIfMVGG2ZlZ1lZBwCgEbKyTH0GG/7s/wkBIPDtNdpw3vx5VtYBAGgEk5/Be8xenwAQ+DKNNty6dau+XfytlbUAABpg3759+vKrL810sc1sDQSAwLfeTONHH3tUxcWmR5IAAA1UW1urR/70iKqqqsx0s8FsHQSAwLdaJuaCduXs0i/u+YXKysosLAkAcCJ1dXV69PFH9c2335jtaqHZDggAga9GJv8hLFu2TFdedaW2bNliUUkAgOPt379ft99xu6a9O81sV7skmV7FzWmAwWGSpA/NdhISEqJRI0fp/HHnq2+fvkpLS1NERIQF5QGA+9TW1urgwYPaum2r5s2fp08/+9SqI4Afk/SQ2U4IAMEhStI+SU2cLgQAYCuvpG4ysQD8J0wBBIcKSc87XQQAwHafyIKbv8QIQDBpImmnpESnCwEA2KJO0iBJa63orNGnyMFvlR/9Nc7pQgAAtnhd0itWdcYIQHAJlbRc0kCnCwEAWCpfUg9JB63qkDUAwaVW0lWSjjhdCADAMnWSpsjCm79EAAhG2yXdJAuOigQA+IX/kTTb6k5ZAxCctqp+uGiC04UAAEx5VdJv7eiYABC8Vqt+KmCsWOsBAIHoNUl3qP7df8sRAILbcknZki6QFO5wLQCAhvGqftj/t7JxOpcnQ3foJmm6pJ5OFwIAOKWDkq6XNNPuCzEC4A4HJb2p+oODhkgKc7QaAMDxvJKmSbpEJo95bygCgHvUSFok6QNJsaofDeDvHwCc5ZX0paTrJL0oqdRXF2YKwL1aqf690msldXe4FgBwmx8kvS/pLUmbnSiAAABJai/pPEmDJaVL6qj6MwUSxV4RAGDGj5JKJO2RtE3SBknzJW2RTav7G+r/AEAJ8HVk0D7uAAAAAElFTkSuQmCC;" parent="87" vertex="1">
                    <mxGeometry x="425" width="110" height="110" as="geometry"/>
                </mxCell>
            </root>
        </mxGraphModel>
    </diagram>
</mxfile>